<?xml version="1.0" encoding="utf-8"?>
<!-- Generator: Adobe Illustrator 22.1.0, SVG Export Plug-In . SVG Version: 6.00 Build 0)  -->
<svg version="1.1" xmlns="http://www.w3.org/2000/svg" xmlns:xlink="http://www.w3.org/1999/xlink" x="0px" y="0px"
	 viewBox="0 0 500 500" style="enable-background:new 0 0 500 500;" xml:space="preserve">
<style type="text/css">
	.st0{display:none;}
	.st1{display:none;fill:#A6A6A6;}
	.st2{font-family:'Quicksand-Regular';}
	.st3{font-size:28px;}
	.st4{letter-spacing:1;}
	.st5{font-size:14px;}
	.st6{letter-spacing:2;}
	.st7{fill:#8E8CC2;}
	.st8{fill:#3B3066;}
	.st9{fill:#FF526C;}
	.st10{fill:#FFC96B;}
	.st11{fill:#FF2849;}
	.st12{fill:#FFFFFF;}
	.st13{fill:#FF7885;}
	.st14{fill:#96EBD5;}
	.st15{fill:#57D3C2;}
	.st16{fill:#A6A6A6;}
	.st17{fill:#FFBD5F;}
	.st18{fill:#75FFDB;}
	.st19{display:inline;}
</style>
<g id="BACKGROUND" class="st0">
</g>
<g id="OBJECTS">
	<text transform="matrix(1 0 0 1 120.8928 63.3325)" class="st1 st2 st3 st4">GRAPHIC DESIGN</text>
	<text transform="matrix(1 0 0 1 144.4475 82.8384)" class="st1 st2 st5 st6">ELEMENT COLLECTION</text>
	<g>
		<g>
			<path class="st7" d="M182.2,130.9h-9c-4,0-7.2,3.2-7.2,7.2v104.2h23.4V138.1C189.3,134.1,186.1,130.9,182.2,130.9z"/>
			<path class="st8" d="M189.3,243.3h-23.4c-0.6,0-1.1-0.5-1.1-1.1V138.1c0-4.6,3.7-8.3,8.3-8.3h9c4.6,0,8.3,3.7,8.3,8.3v104.2
				C190.4,242.8,189.9,243.3,189.3,243.3z M167,241.1h21.2V138.1c0-3.4-2.7-6.1-6.1-6.1h-9c-3.4,0-6.1,2.7-6.1,6.1V241.1z"/>
		</g>
		<g>
			<path class="st9" d="M165.9,242.2v9.1c0,1.4,1.2,2.6,2.6,2.6h18.2c1.4,0,2.6-1.2,2.6-2.6v-9.1H165.9z"/>
			<path class="st8" d="M186.7,255.1h-18.2c-2,0-3.7-1.7-3.7-3.7v-9.1c0-0.6,0.5-1.1,1.1-1.1h23.4c0.6,0,1.1,0.5,1.1,1.1v9.1
				C190.4,253.4,188.8,255.1,186.7,255.1z M167,243.3v8.1c0,0.8,0.7,1.5,1.5,1.5h18.2c0.8,0,1.5-0.7,1.5-1.5v-8.1H167z"/>
		</g>
		<g>
			<polygon class="st10" points="185.2,254 170.1,254 165.9,279.5 177.6,295 189.3,279.5 			"/>
			<path class="st8" d="M177.6,296.1c-0.3,0-0.7-0.2-0.9-0.4l-11.7-15.5c-0.2-0.2-0.3-0.5-0.2-0.8l4.1-25.5c0.1-0.5,0.5-0.9,1.1-0.9
				h15.1c0.5,0,1,0.4,1.1,0.9l4.1,25.5c0,0.3,0,0.6-0.2,0.8l-11.7,15.5C178.3,295.9,178,296.1,177.6,296.1z M167.1,279.2l10.6,14
				l10.6-14l-3.9-24.1H171L167.1,279.2z"/>
		</g>
		<g>
			<line class="st11" x1="177.6" y1="295" x2="177.6" y2="274"/>
			<path class="st8" d="M177.6,296.1c-0.6,0-1.1-0.5-1.1-1.1v-21c0-0.6,0.5-1.1,1.1-1.1c0.6,0,1.1,0.5,1.1,1.1v21
				C178.7,295.6,178.2,296.1,177.6,296.1z"/>
		</g>
		<g>
			<circle class="st8" cx="177.6" cy="274" r="3.8"/>
		</g>
		<g>
			<path class="st12" d="M177.6,234.9c-0.6,0-1.1-0.5-1.1-1.1v-90.1c0-0.6,0.5-1.1,1.1-1.1c0.6,0,1.1,0.5,1.1,1.1v90.1
				C178.7,234.5,178.2,234.9,177.6,234.9z"/>
		</g>
	</g>
	<g>
		<g>
			<g>
				<rect x="72" y="212.5" class="st10" width="32.5" height="10.8"/>
				<path class="st8" d="M104.6,224.5H72c-0.6,0-1.1-0.5-1.1-1.1v-10.8c0-0.6,0.5-1.1,1.1-1.1h32.5c0.6,0,1.1,0.5,1.1,1.1v10.8
					C105.7,224,105.2,224.5,104.6,224.5z M73.1,222.3h30.4v-8.7H73.1V222.3z"/>
			</g>
			<g>
				<path class="st13" d="M96.4,183.8H80.2c-4.5,0-8.1,3.6-8.1,8.1v20.6h32.5v-20.6C104.6,187.4,100.9,183.8,96.4,183.8z"/>
				<path class="st8" d="M104.6,213.6H72c-0.6,0-1.1-0.5-1.1-1.1v-20.6c0-5.1,4.1-9.2,9.2-9.2h16.3c5.1,0,9.2,4.1,9.2,9.2v20.6
					C105.7,213.1,105.2,213.6,104.6,213.6z M73.1,211.5h30.4v-19.5c0-3.9-3.2-7-7-7H80.2c-3.9,0-7,3.2-7,7V211.5z"/>
			</g>
			<g>
				<path class="st7" d="M72,223.4v12.5c0,4.5,3.6,8.1,8.1,8.1h16.3c4.5,0,8.1-3.6,8.1-8.1v-12.5H72z"/>
				<path class="st8" d="M96.4,245.1H80.2c-5.1,0-9.2-4.1-9.2-9.2v-12.5c0-0.6,0.5-1.1,1.1-1.1h32.5c0.6,0,1.1,0.5,1.1,1.1v12.5
					C105.7,240.9,101.5,245.1,96.4,245.1z M73.1,224.5v11.4c0,3.9,3.2,7,7,7h16.3c3.9,0,7-3.2,7-7v-11.4H73.1z"/>
			</g>
		</g>
		<g>
			<path class="st12" d="M94.3,206.3c-0.6,0-1.1-0.5-1.1-1.1v-13.2c0-0.6,0.5-1.1,1.1-1.1c0.6,0,1.1,0.5,1.1,1.1v13.2
				C95.4,205.8,94.9,206.3,94.3,206.3z"/>
		</g>
		<g>
			<path class="st12" d="M94.3,236.5c-0.6,0-1.1-0.5-1.1-1.1V230c0-0.6,0.5-1.1,1.1-1.1c0.6,0,1.1,0.5,1.1,1.1v5.4
				C95.4,236,94.9,236.5,94.3,236.5z"/>
		</g>
	</g>
	<g>
		<g>
			<rect x="34.6" y="162" class="st7" width="22.8" height="93.3"/>
			<path class="st8" d="M57.3,256.3H34.6c-0.6,0-1.1-0.5-1.1-1.1V162c0-0.6,0.5-1.1,1.1-1.1h22.8c0.6,0,1.1,0.5,1.1,1.1v93.3
				C58.4,255.8,57.9,256.3,57.3,256.3z M35.6,254.2h20.6v-91.1H35.6V254.2z"/>
		</g>
		<g>
			<rect x="41.6" y="162" class="st10" width="8.7" height="93.3"/>
			<path class="st8" d="M50.3,256.3h-8.7c-0.6,0-1.1-0.5-1.1-1.1V162c0-0.6,0.5-1.1,1.1-1.1h8.7c0.6,0,1.1,0.5,1.1,1.1v93.3
				C51.4,255.8,50.9,256.3,50.3,256.3z M42.7,254.2h6.5v-91.1h-6.5V254.2z"/>
		</g>
		<g>
			<polygon class="st10" points="57.3,255.2 45.9,279.1 34.6,255.2 			"/>
			<path class="st8" d="M45.9,280.2c-0.4,0-0.8-0.2-1-0.6l-11.4-23.9c-0.2-0.3-0.1-0.7,0.1-1c0.2-0.3,0.5-0.5,0.9-0.5h22.8
				c0.4,0,0.7,0.2,0.9,0.5c0.2,0.3,0.2,0.7,0.1,1l-11.4,23.9C46.7,279.9,46.4,280.2,45.9,280.2z M36.3,256.3l9.7,20.3l9.7-20.3H36.3
				z"/>
		</g>
		<g>
			<path class="st13" d="M49.7,134.9h-7.6c-4.2,0-7.6,3.4-7.6,7.6v9.8h22.8v-9.8C57.3,138.3,53.9,134.9,49.7,134.9z"/>
			<path class="st8" d="M57.3,153.3H34.6c-0.6,0-1.1-0.5-1.1-1.1v-9.8c0-4.8,3.9-8.7,8.7-8.7h7.6c4.8,0,8.7,3.9,8.7,8.7v9.8
				C58.4,152.8,57.9,153.3,57.3,153.3z M35.6,151.1h20.6v-8.7c0-3.6-2.9-6.5-6.5-6.5h-7.6c-3.6,0-6.5,2.9-6.5,6.5V151.1z"/>
		</g>
		<g>
			<rect x="34.6" y="152.2" class="st10" width="22.8" height="9.8"/>
			<path class="st8" d="M57.3,163.1H34.6c-0.6,0-1.1-0.5-1.1-1.1v-9.8c0-0.6,0.5-1.1,1.1-1.1h22.8c0.6,0,1.1,0.5,1.1,1.1v9.8
				C58.4,162.6,57.9,163.1,57.3,163.1z M35.6,160.9h20.6v-7.6H35.6V160.9z"/>
		</g>
		<g>
			<polygon class="st8" points="51.6,267.2 45.9,279.1 40.2,267.2 			"/>
		</g>
		<g>
			<path class="st12" d="M49.2,147.7c-0.6,0-1.1-0.5-1.1-1.1v-6.4c0-0.6,0.5-1.1,1.1-1.1c0.6,0,1.1,0.5,1.1,1.1v6.4
				C50.3,147.2,49.8,147.7,49.2,147.7z"/>
		</g>
	</g>
	<g>
		<g>
			<g>
				<rect x="119.8" y="116.6" class="st10" width="30.3" height="171.9"/>
				<path class="st8" d="M150.1,289.5h-30.3c-0.6,0-1.1-0.5-1.1-1.1V116.6c0-0.6,0.5-1.1,1.1-1.1h30.3c0.6,0,1.1,0.5,1.1,1.1v171.9
					C151.2,289.1,150.7,289.5,150.1,289.5z M120.9,287.4H149V117.6h-28.2V287.4z"/>
			</g>
			<g>
				<g>
					<path class="st8" d="M150.1,127.7h-13.4c-0.6,0-1.1-0.5-1.1-1.1c0-0.6,0.5-1.1,1.1-1.1h13.4c0.6,0,1.1,0.5,1.1,1.1
						C151.2,127.2,150.7,127.7,150.1,127.7z"/>
				</g>
				<g>
					<path class="st8" d="M150.1,133.1h-6.7c-0.6,0-1.1-0.5-1.1-1.1c0-0.6,0.5-1.1,1.1-1.1h6.7c0.6,0,1.1,0.5,1.1,1.1
						C151.2,132.6,150.7,133.1,150.1,133.1z"/>
				</g>
				<g>
					<path class="st8" d="M150.1,138.5h-6.7c-0.6,0-1.1-0.5-1.1-1.1s0.5-1.1,1.1-1.1h6.7c0.6,0,1.1,0.5,1.1,1.1
						S150.7,138.5,150.1,138.5z"/>
				</g>
				<g>
					<path class="st8" d="M150.1,143.9h-6.7c-0.6,0-1.1-0.5-1.1-1.1c0-0.6,0.5-1.1,1.1-1.1h6.7c0.6,0,1.1,0.5,1.1,1.1
						C151.2,143.5,150.7,143.9,150.1,143.9z"/>
				</g>
				<g>
					<path class="st8" d="M150.1,149.4h-13.4c-0.6,0-1.1-0.5-1.1-1.1c0-0.6,0.5-1.1,1.1-1.1h13.4c0.6,0,1.1,0.5,1.1,1.1
						C151.2,148.9,150.7,149.4,150.1,149.4z"/>
				</g>
				<g>
					<path class="st8" d="M150.1,154.8h-6.7c-0.6,0-1.1-0.5-1.1-1.1c0-0.6,0.5-1.1,1.1-1.1h6.7c0.6,0,1.1,0.5,1.1,1.1
						C151.2,154.3,150.7,154.8,150.1,154.8z"/>
				</g>
				<g>
					<path class="st8" d="M150.1,160.2h-6.7c-0.6,0-1.1-0.5-1.1-1.1c0-0.6,0.5-1.1,1.1-1.1h6.7c0.6,0,1.1,0.5,1.1,1.1
						C151.2,159.7,150.7,160.2,150.1,160.2z"/>
				</g>
				<g>
					<path class="st8" d="M150.1,165.6h-6.7c-0.6,0-1.1-0.5-1.1-1.1c0-0.6,0.5-1.1,1.1-1.1h6.7c0.6,0,1.1,0.5,1.1,1.1
						C151.2,165.1,150.7,165.6,150.1,165.6z"/>
				</g>
				<g>
					<path class="st8" d="M150.1,171.1h-13.4c-0.6,0-1.1-0.5-1.1-1.1c0-0.6,0.5-1.1,1.1-1.1h13.4c0.6,0,1.1,0.5,1.1,1.1
						C151.2,170.6,150.7,171.1,150.1,171.1z"/>
				</g>
				<g>
					<path class="st8" d="M150.1,176.5h-6.7c-0.6,0-1.1-0.5-1.1-1.1c0-0.6,0.5-1.1,1.1-1.1h6.7c0.6,0,1.1,0.5,1.1,1.1
						C151.2,176,150.7,176.5,150.1,176.5z"/>
				</g>
				<g>
					<path class="st8" d="M150.1,181.9h-6.7c-0.6,0-1.1-0.5-1.1-1.1c0-0.6,0.5-1.1,1.1-1.1h6.7c0.6,0,1.1,0.5,1.1,1.1
						C151.2,181.4,150.7,181.9,150.1,181.9z"/>
				</g>
				<g>
					<path class="st8" d="M150.1,187.3h-6.7c-0.6,0-1.1-0.5-1.1-1.1c0-0.6,0.5-1.1,1.1-1.1h6.7c0.6,0,1.1,0.5,1.1,1.1
						C151.2,186.8,150.7,187.3,150.1,187.3z"/>
				</g>
				<g>
					<path class="st8" d="M150.1,192.7h-13.4c-0.6,0-1.1-0.5-1.1-1.1c0-0.6,0.5-1.1,1.1-1.1h13.4c0.6,0,1.1,0.5,1.1,1.1
						C151.2,192.3,150.7,192.7,150.1,192.7z"/>
				</g>
				<g>
					<path class="st8" d="M150.1,198.2h-6.7c-0.6,0-1.1-0.5-1.1-1.1c0-0.6,0.5-1.1,1.1-1.1h6.7c0.6,0,1.1,0.5,1.1,1.1
						C151.2,197.7,150.7,198.2,150.1,198.2z"/>
				</g>
				<g>
					<path class="st8" d="M150.1,203.6h-6.7c-0.6,0-1.1-0.5-1.1-1.1c0-0.6,0.5-1.1,1.1-1.1h6.7c0.6,0,1.1,0.5,1.1,1.1
						C151.2,203.1,150.7,203.6,150.1,203.6z"/>
				</g>
				<g>
					<path class="st8" d="M150.1,209h-6.7c-0.6,0-1.1-0.5-1.1-1.1c0-0.6,0.5-1.1,1.1-1.1h6.7c0.6,0,1.1,0.5,1.1,1.1
						C151.2,208.5,150.7,209,150.1,209z"/>
				</g>
				<g>
					<path class="st8" d="M150.1,214.4h-13.4c-0.6,0-1.1-0.5-1.1-1.1s0.5-1.1,1.1-1.1h13.4c0.6,0,1.1,0.5,1.1,1.1
						S150.7,214.4,150.1,214.4z"/>
				</g>
				<g>
					<path class="st8" d="M150.1,219.9h-6.7c-0.6,0-1.1-0.5-1.1-1.1c0-0.6,0.5-1.1,1.1-1.1h6.7c0.6,0,1.1,0.5,1.1,1.1
						C151.2,219.4,150.7,219.9,150.1,219.9z"/>
				</g>
				<g>
					<path class="st8" d="M150.1,225.3h-6.7c-0.6,0-1.1-0.5-1.1-1.1c0-0.6,0.5-1.1,1.1-1.1h6.7c0.6,0,1.1,0.5,1.1,1.1
						C151.2,224.8,150.7,225.3,150.1,225.3z"/>
				</g>
				<g>
					<path class="st8" d="M150.1,230.7h-6.7c-0.6,0-1.1-0.5-1.1-1.1c0-0.6,0.5-1.1,1.1-1.1h6.7c0.6,0,1.1,0.5,1.1,1.1
						C151.2,230.2,150.7,230.7,150.1,230.7z"/>
				</g>
				<g>
					<path class="st8" d="M150.1,236.1h-13.4c-0.6,0-1.1-0.5-1.1-1.1c0-0.6,0.5-1.1,1.1-1.1h13.4c0.6,0,1.1,0.5,1.1,1.1
						C151.2,235.6,150.7,236.1,150.1,236.1z"/>
				</g>
				<g>
					<path class="st8" d="M150.1,241.6h-6.7c-0.6,0-1.1-0.5-1.1-1.1c0-0.6,0.5-1.1,1.1-1.1h6.7c0.6,0,1.1,0.5,1.1,1.1
						C151.2,241.1,150.7,241.6,150.1,241.6z"/>
				</g>
				<g>
					<path class="st8" d="M150.1,247h-6.7c-0.6,0-1.1-0.5-1.1-1.1c0-0.6,0.5-1.1,1.1-1.1h6.7c0.6,0,1.1,0.5,1.1,1.1
						C151.2,246.5,150.7,247,150.1,247z"/>
				</g>
				<g>
					<path class="st8" d="M150.1,252.4h-6.7c-0.6,0-1.1-0.5-1.1-1.1c0-0.6,0.5-1.1,1.1-1.1h6.7c0.6,0,1.1,0.5,1.1,1.1
						C151.2,251.9,150.7,252.4,150.1,252.4z"/>
				</g>
				<g>
					<path class="st8" d="M150.1,257.8h-13.4c-0.6,0-1.1-0.5-1.1-1.1c0-0.6,0.5-1.1,1.1-1.1h13.4c0.6,0,1.1,0.5,1.1,1.1
						C151.2,257.3,150.7,257.8,150.1,257.8z"/>
				</g>
				<g>
					<path class="st8" d="M150.1,263.2h-6.7c-0.6,0-1.1-0.5-1.1-1.1c0-0.6,0.5-1.1,1.1-1.1h6.7c0.6,0,1.1,0.5,1.1,1.1
						C151.2,262.8,150.7,263.2,150.1,263.2z"/>
				</g>
				<g>
					<path class="st8" d="M150.1,268.7h-6.7c-0.6,0-1.1-0.5-1.1-1.1s0.5-1.1,1.1-1.1h6.7c0.6,0,1.1,0.5,1.1,1.1
						S150.7,268.7,150.1,268.7z"/>
				</g>
				<g>
					<path class="st8" d="M150.1,274.1h-6.7c-0.6,0-1.1-0.5-1.1-1.1c0-0.6,0.5-1.1,1.1-1.1h6.7c0.6,0,1.1,0.5,1.1,1.1
						C151.2,273.6,150.7,274.1,150.1,274.1z"/>
				</g>
				<g>
					<path class="st8" d="M150.1,279.5h-13.4c-0.6,0-1.1-0.5-1.1-1.1c0-0.6,0.5-1.1,1.1-1.1h13.4c0.6,0,1.1,0.5,1.1,1.1
						C151.2,279,150.7,279.5,150.1,279.5z"/>
				</g>
			</g>
		</g>
		<g>
			<path class="st12" d="M127.1,279.4c-0.6,0-1.1-0.5-1.1-1.1V126.6c0-0.6,0.5-1.1,1.1-1.1c0.6,0,1.1,0.5,1.1,1.1v151.7
				C128.2,278.9,127.7,279.4,127.1,279.4z"/>
		</g>
	</g>
	<g>
		<g>
			<rect x="235.7" y="205.4" class="st9" width="14.2" height="19.6"/>
			<path class="st8" d="M249.9,226.1h-14.2c-0.6,0-1.1-0.5-1.1-1.1v-19.6c0-0.6,0.5-1.1,1.1-1.1h14.2c0.6,0,1.1,0.5,1.1,1.1V225
				C251,225.6,250.5,226.1,249.9,226.1z M236.8,224h12v-17.5h-12V224z"/>
		</g>
		<g>
			<path class="st7" d="M252.3,225h-18.9c-1.2,0-2.2,1-2.2,2.2v51.7c0,4.4,3.6,8,8,8h7.3c4.4,0,8-3.6,8-8v-51.7
				C254.5,226,253.5,225,252.3,225z"/>
			<path class="st8" d="M246.5,288h-7.3c-5,0-9.1-4.1-9.1-9.1v-51.7c0-1.8,1.5-3.3,3.3-3.3h18.9c1.8,0,3.3,1.5,3.3,3.3v51.7
				C255.5,284,251.5,288,246.5,288z M233.4,226.1c-0.6,0-1.1,0.5-1.1,1.1v51.7c0,3.8,3.1,6.9,6.9,6.9h7.3c3.8,0,6.9-3.1,6.9-6.9
				v-51.7c0-0.6-0.5-1.1-1.1-1.1H233.4z"/>
		</g>
		<g>
			<circle class="st10" cx="242.8" cy="172.9" r="41"/>
			<path class="st8" d="M242.8,215c-23.2,0-42.1-18.9-42.1-42.1c0-23.2,18.9-42.1,42.1-42.1s42.1,18.9,42.1,42.1
				C284.9,196.1,266.1,215,242.8,215z M242.8,132.9c-22,0-40,17.9-40,40s17.9,40,40,40c22,0,40-17.9,40-40S264.9,132.9,242.8,132.9z
				"/>
		</g>
		<g>
			
				<ellipse transform="matrix(0.7071 -0.7071 0.7071 0.7071 -51.1065 222.334)" class="st14" cx="242.8" cy="172.9" rx="30.3" ry="30.3"/>
			<path class="st8" d="M242.8,204.3c-17.3,0-31.4-14.1-31.4-31.4c0-17.3,14.1-31.4,31.4-31.4c17.3,0,31.4,14.1,31.4,31.4
				C274.2,190.2,260.1,204.3,242.8,204.3z M242.8,143.6c-16.1,0-29.2,13.1-29.2,29.2c0,16.1,13.1,29.2,29.2,29.2
				c16.1,0,29.2-13.1,29.2-29.2C272.1,156.7,258.9,143.6,242.8,143.6z"/>
		</g>
		<g>
			<path class="st12" d="M226.8,168.8c-0.3,0-0.6-0.1-0.8-0.3c-0.4-0.4-0.4-1.1,0-1.5l11.7-11.7c0.4-0.4,1.1-0.4,1.5,0
				c0.4,0.4,0.4,1.1,0,1.5l-11.7,11.7C227.3,168.7,227,168.8,226.8,168.8z"/>
		</g>
		<g>
			<path class="st12" d="M229.6,184c-0.3,0-0.6-0.1-0.8-0.3c-0.4-0.4-0.4-1.1,0-1.5l24.5-24.5c0.4-0.4,1.1-0.4,1.5,0
				c0.4,0.4,0.4,1.1,0,1.5l-24.5,24.5C230.2,183.9,229.9,184,229.6,184z"/>
		</g>
		<g>
			<path class="st12" d="M244.8,190.1c-0.3,0-0.6-0.1-0.8-0.3c-0.4-0.4-0.4-1.1,0-1.5l14-14c0.4-0.4,1.1-0.4,1.5,0
				c0.4,0.4,0.4,1.1,0,1.5l-14,14C245.3,190,245.1,190.1,244.8,190.1z"/>
		</g>
		<g>
			<path class="st12" d="M243.4,275.9c-0.6,0-1.1-0.5-1.1-1.1v-40.1c0-0.6,0.5-1.1,1.1-1.1c0.6,0,1.1,0.5,1.1,1.1v40.1
				C244.5,275.4,244,275.9,243.4,275.9z"/>
		</g>
	</g>
	<g>
		<g>
			<path class="st9" d="M295.2,244.7h12.5l-2.1-115.3c0-2.3-1.9-4.1-4.1-4.1l0,0c-2.3,0-4.1,1.8-4.1,4.1L295.2,244.7z"/>
			<path class="st8" d="M307.6,245.7h-12.5c-0.3,0-0.6-0.1-0.8-0.3c-0.2-0.2-0.3-0.5-0.3-0.8l2.1-115.3c0.1-2.8,2.4-5.1,5.2-5.1
				s5.2,2.3,5.2,5.1l2.1,115.3c0,0.3-0.1,0.6-0.3,0.8C308.2,245.6,307.9,245.7,307.6,245.7z M296.3,243.6h10.3l-2.1-114.2
				c0-1.7-1.4-3-3.1-3c-1.7,0-3,1.3-3.1,3L296.3,243.6z"/>
		</g>
		<g>
			<rect x="295.2" y="244.7" class="st10" width="12.5" height="17.8"/>
			<path class="st8" d="M307.6,263.5h-12.5c-0.6,0-1.1-0.5-1.1-1.1v-17.8c0-0.6,0.5-1.1,1.1-1.1h12.5c0.6,0,1.1,0.5,1.1,1.1v17.8
				C308.7,263,308.2,263.5,307.6,263.5z M296.3,261.3h10.3v-15.6h-10.3V261.3z"/>
		</g>
		<g>
			<path class="st7" d="M295.2,262.4c0,0-10.8,6.7-2.7,16.9c8.1,10.2-0.2,15-0.2,15s12.1-0.7,13.2-12.5c0,0,1.9,2.8,2.2,7.1
				c0,0,13.5-13.5,0-26.6H295.2z"/>
			<path class="st8" d="M292.3,295.5c-0.5,0-0.9-0.3-1-0.8c-0.1-0.5,0.1-1,0.5-1.3c0,0,2.5-1.5,3.1-4.5c0.5-2.6-0.6-5.6-3.2-8.9
				c-2.6-3.3-3.7-6.7-3.1-9.9c0.9-5.3,5.9-8.4,6.1-8.6c0.2-0.1,0.4-0.2,0.6-0.2h12.5c0.3,0,0.6,0.1,0.8,0.3c4.2,4,6.3,8.5,6.3,13.3
				c0.1,8.3-6.1,14.5-6.3,14.8c-0.3,0.3-0.7,0.4-1.1,0.3c-0.4-0.1-0.7-0.5-0.7-0.9c-0.1-1.4-0.4-2.6-0.7-3.7
				C302.9,294.7,292.5,295.5,292.3,295.5C292.3,295.5,292.3,295.5,292.3,295.5z M295.5,263.5c-0.9,0.6-4.2,3.2-4.9,7
				c-0.5,2.6,0.4,5.4,2.7,8.2c3,3.8,4.3,7.4,3.7,10.7c-0.2,1.3-0.8,2.4-1.3,3.2c3.4-1.1,8.1-3.9,8.8-10.8c0-0.5,0.4-0.8,0.8-1
				c0.4-0.1,0.9,0.1,1.2,0.5c0.1,0.1,1.3,2,2,5.2c1.7-2.3,4.2-6.5,4.2-11.5c0-4.1-1.8-8-5.4-11.5H295.5z"/>
		</g>
		<g>
			<path class="st12" d="M301,258.7c-0.6,0-1.1-0.5-1.1-1.1v-5.4c0-0.6,0.5-1.1,1.1-1.1c0.6,0,1.1,0.5,1.1,1.1v5.4
				C302.1,258.2,301.6,258.7,301,258.7z"/>
		</g>
		<g>
			<path class="st12" d="M299.5,279.5c-0.3,0-0.7-0.2-0.9-0.5c-2.1-3-2.9-5.7-2.3-7.9c0.6-2.4,2.6-3.3,2.7-3.4
				c0.5-0.3,1.2,0,1.4,0.5c0.2,0.5,0,1.2-0.5,1.4c-0.1,0-1.2,0.6-1.6,2c-0.4,1.6,0.3,3.7,2,6.1c0.3,0.5,0.2,1.2-0.3,1.5
				C299.9,279.4,299.7,279.5,299.5,279.5z"/>
		</g>
	</g>
	<g>
		<g>
			<path class="st7" d="M323.7,224.8v29.1c0,15.3,12.4,27.6,27.6,27.6l0,0c15.3,0,27.6-12.4,27.6-27.6v-29.1H323.7z"/>
			<path class="st8" d="M351.4,282.6c-15.8,0-28.7-12.9-28.7-28.7v-29.1c0-0.6,0.5-1.1,1.1-1.1H379c0.6,0,1.1,0.5,1.1,1.1v29.1
				C380.1,269.7,367.2,282.6,351.4,282.6z M324.8,225.9v28c0,14.6,11.9,26.6,26.6,26.6c14.6,0,26.6-11.9,26.6-26.6v-28H324.8z"/>
		</g>
		<g>
			<path class="st14" d="M351.4,193.8L351.4,193.8c-15.3,0-27.6,12.4-27.6,27.6v3.4H379v-3.4C379,206.2,366.7,193.8,351.4,193.8z"/>
			<path class="st8" d="M379,225.9h-55.3c-0.6,0-1.1-0.5-1.1-1.1v-3.4c0-15.8,12.9-28.7,28.7-28.7c15.8,0,28.7,12.9,28.7,28.7v3.4
				C380.1,225.4,379.6,225.9,379,225.9z M324.8,223.7h53.1v-2.3c0-14.6-11.9-26.6-26.6-26.6c-14.6,0-26.6,11.9-26.6,26.6V223.7z"/>
		</g>
		<g>
			<path class="st10" d="M354,213.2h-5.3c-1.8,0-3.3,1.5-3.3,3.3v21.3c0,1.8,1.5,3.3,3.3,3.3h5.3c1.8,0,3.3-1.5,3.3-3.3v-21.3
				C357.4,214.7,355.9,213.2,354,213.2z"/>
			<path class="st8" d="M354,242.2h-5.3c-2.4,0-4.4-2-4.4-4.4v-21.3c0-2.4,2-4.4,4.4-4.4h5.3c2.4,0,4.4,2,4.4,4.4v21.3
				C358.5,240.3,356.5,242.2,354,242.2z M348.7,214.3c-1.2,0-2.3,1-2.3,2.3v21.3c0,1.2,1,2.3,2.3,2.3h5.3c1.2,0,2.3-1,2.3-2.3v-21.3
				c0-1.2-1-2.3-2.3-2.3H348.7z"/>
		</g>
		<g>
			<path class="st8" d="M351.4,214.3c-0.6,0-1.1-0.5-1.1-1.1v-29.5c0-5.3-4.3-9.6-9.6-9.6h-6.3c-6.5,0-11.8-5.3-11.8-11.8
				c0-6.5,5.3-11.8,11.8-11.8h28.4c5.3,0,9.6-4.3,9.6-9.6v-2.1c0-5.3-4.3-9.6-9.6-9.6h-14.2c-0.6,0-1.1-0.5-1.1-1.1
				c0-0.6,0.5-1.1,1.1-1.1h14.2c6.5,0,11.8,5.3,11.8,11.8v2.1c0,6.5-5.3,11.8-11.8,11.8h-28.4c-5.3,0-9.6,4.3-9.6,9.6
				c0,5.3,4.3,9.6,9.6,9.6h6.3c6.5,0,11.8,5.3,11.8,11.8v29.5C352.5,213.8,352,214.3,351.4,214.3z"/>
		</g>
		<g>
			<path class="st12" d="M351.4,270.2c-0.6,0-1.1-0.5-1.1-1.1s0.5-1.1,1.1-1.1c8.1,0,14.6-6.6,14.6-14.6c0-0.6,0.5-1.1,1.1-1.1
				c0.6,0,1.1,0.5,1.1,1.1C368.2,262.7,360.7,270.2,351.4,270.2z"/>
		</g>
		<g>
			<path class="st12" d="M367.1,245.5c-0.6,0-1.1-0.5-1.1-1.1V237c0-0.6,0.5-1.1,1.1-1.1c0.6,0,1.1,0.5,1.1,1.1v7.4
				C368.2,245,367.7,245.5,367.1,245.5z"/>
		</g>
	</g>
	<g>
		<g>
			<path class="st9" d="M464.5,170h-23.9c-1.4,0-2.4,1.1-2.4,2.4v10.3c0,1.4,1.1,2.4,2.4,2.4h23.9c1.4,0,2.4-1.1,2.4-2.4v-10.3
				C466.9,171.1,465.8,170,464.5,170z"/>
			<path class="st8" d="M464.5,186.3h-23.9c-1.9,0-3.5-1.6-3.5-3.5v-10.3c0-1.9,1.6-3.5,3.5-3.5h23.9c1.9,0,3.5,1.6,3.5,3.5v10.3
				C468,184.7,466.4,186.3,464.5,186.3z M440.6,171.1c-0.8,0-1.4,0.6-1.4,1.4v10.3c0,0.8,0.6,1.4,1.4,1.4h23.9
				c0.8,0,1.4-0.6,1.4-1.4v-10.3c0-0.8-0.6-1.4-1.4-1.4H440.6z"/>
		</g>
		<g>
			<path class="st9" d="M462.2,150.9c0-5.4-4.5-9.8-9.9-9.6c-5.2,0.1-9.5,4.6-9.4,9.9c0,1.3,0.3,2.5,0.8,3.6
				c1.8,4.2,2.5,8.9,2.5,13.5v1.8h12.6v-2c0-4.7,1.1-9.3,2.8-13.7C462,153.2,462.2,152.1,462.2,150.9z"/>
			<path class="st8" d="M458.8,171.1h-12.6c-0.6,0-1.1-0.5-1.1-1.1v-1.8c0-4.9-0.8-9.3-2.5-13.1c-0.6-1.3-0.9-2.6-0.9-4
				c-0.1-5.8,4.6-10.8,10.4-11c2.9-0.1,5.7,1,7.8,3c2.1,2,3.3,4.8,3.3,7.7c0,1.3-0.2,2.5-0.7,3.7c-1.8,4.9-2.7,9.3-2.7,13.4v2
				C459.9,170.6,459.4,171.1,458.8,171.1z M447.3,168.9h10.4V168c0-4.3,0.9-9,2.8-14.1c0.3-0.9,0.5-1.9,0.5-2.9
				c0-2.3-0.9-4.5-2.6-6.1c-1.7-1.6-3.9-2.5-6.2-2.4c-4.6,0.1-8.4,4.1-8.3,8.7c0,1.1,0.3,2.2,0.7,3.2c1.7,4,2.6,8.7,2.6,13.9V168.9z
				"/>
		</g>
		<g>
			<path class="st14" d="M442.9,185.2v63.5c0,2.8,1.7,5.2,4.2,6.2v9.8c0,2,1.6,3.7,3.7,3.7h3.5c2,0,3.7-1.6,3.7-3.7V255
				c2.5-1,4.2-3.4,4.2-6.2v-63.5H442.9z"/>
			<path class="st8" d="M454.3,269.5h-3.5c-2.6,0-4.7-2.1-4.7-4.7v-9.1c-2.6-1.3-4.2-4-4.2-6.9v-63.5c0-0.6,0.5-1.1,1.1-1.1h19.3
				c0.6,0,1.1,0.5,1.1,1.1v63.5c0,3-1.6,5.6-4.2,6.9v9.1C459,267.4,456.9,269.5,454.3,269.5z M444,186.3v62.4c0,2.3,1.4,4.4,3.5,5.2
				c0.4,0.2,0.7,0.6,0.7,1v9.8c0,1.4,1.2,2.6,2.6,2.6h3.5c1.4,0,2.6-1.2,2.6-2.6V255c0-0.4,0.3-0.8,0.7-1c2.2-0.9,3.5-2.9,3.5-5.2
				v-62.4H444z"/>
		</g>
		<g>
			<path class="st12" d="M454.7,243.8c-0.6,0-1.1-0.5-1.1-1.1v-49.9c0-0.6,0.5-1.1,1.1-1.1c0.6,0,1.1,0.5,1.1,1.1v49.9
				C455.8,243.3,455.3,243.8,454.7,243.8z"/>
		</g>
	</g>
	<g>
		<g>
			<path class="st10" d="M108.8,424.2c5.9,9,22.9,16.8,44.4-7.2c20.1-22.3,18.5-52.8,0.5-72.1c-19.8-21.2-62.2-20.4-77.6-0.9
				c-17.4,21.9,1,39,18.7,33.7c13.9-4.2,17.1,8.2,12.1,19C102.8,405.5,104.2,417.2,108.8,424.2z"/>
			<path class="st8" d="M125.4,434.1c-0.6,0-1.1,0-1.6-0.1c-6.4-0.5-12.4-3.9-15.9-9.2l0,0c-5.1-7.7-6-20-2-28.5
				c2.9-6.2,2.8-12.6,0-15.9c-2.2-2.5-5.9-3.1-10.8-1.6c-9.2,2.8-19.1-0.3-24-7.6c-5.3-7.7-3.7-17.9,4.2-27.9
				c7-8.9,20.2-14.6,35.3-15.2c17.5-0.7,34,5.3,44,16c19.4,20.7,19.2,51.7-0.5,73.6C142.2,431,132.1,434.1,125.4,434.1z M99.9,375.8
				c3.8,0,6.2,1.6,7.6,3.2c3.4,3.9,3.6,11.3,0.4,18.2c-3.6,7.9-2.8,19.2,1.9,26.4l0,0c3.1,4.7,8.4,7.8,14.2,8.2
				c6.2,0.5,16.2-1.9,28.5-15.5c18.9-21,19.1-50.7,0.5-70.6c-9.6-10.3-25.4-16-42.3-15.3c-14.4,0.6-27,5.9-33.7,14.3
				c-7.3,9.2-8.7,18.4-4.1,25.3c4.4,6.4,13.2,9.2,21.6,6.7C96.5,376.1,98.3,375.8,99.9,375.8z"/>
		</g>
		<g>
			<g>
				
					<ellipse transform="matrix(0.9249 -0.3803 0.3803 0.9249 -124.7592 66.3536)" class="st7" cx="105.6" cy="348.9" rx="10.4" ry="10.4"/>
				<path class="st8" d="M105.6,360.5c-6.4,0-11.5-5.2-11.5-11.5c0-6.4,5.2-11.5,11.5-11.5c6.4,0,11.5,5.2,11.5,11.5
					C117.1,355.3,111.9,360.5,105.6,360.5z M105.6,339.6c-5.2,0-9.4,4.2-9.4,9.4c0,5.2,4.2,9.4,9.4,9.4c5.2,0,9.4-4.2,9.4-9.4
					C114.9,343.8,110.7,339.6,105.6,339.6z"/>
			</g>
			<g>
				<path class="st12" d="M111.3,350c-0.6,0-1.1-0.5-1.1-1.1c0-2.6-2.1-4.6-4.6-4.6c-0.6,0-1.1-0.5-1.1-1.1c0-0.6,0.5-1.1,1.1-1.1
					c3.8,0,6.8,3.1,6.8,6.8C112.4,349.5,111.9,350,111.3,350z"/>
			</g>
		</g>
		<g>
			<g>
				
					<ellipse transform="matrix(0.7071 -0.7071 0.7071 0.7071 -215.2206 198.8618)" class="st9" cx="132.4" cy="359.2" rx="10.4" ry="10.4"/>
				<path class="st8" d="M132.4,370.8c-6.4,0-11.5-5.2-11.5-11.5c0-6.4,5.2-11.5,11.5-11.5c6.4,0,11.5,5.2,11.5,11.5
					C144,365.6,138.8,370.8,132.4,370.8z M132.4,349.9c-5.2,0-9.4,4.2-9.4,9.4c0,5.2,4.2,9.4,9.4,9.4c5.2,0,9.4-4.2,9.4-9.4
					C141.8,354.1,137.6,349.9,132.4,349.9z"/>
			</g>
			<g>
				<path class="st12" d="M138.2,360.3c-0.6,0-1.1-0.5-1.1-1.1c0-2.6-2.1-4.6-4.6-4.6c-0.6,0-1.1-0.5-1.1-1.1c0-0.6,0.5-1.1,1.1-1.1
					c3.8,0,6.8,3.1,6.8,6.8C139.2,359.8,138.8,360.3,138.2,360.3z"/>
			</g>
		</g>
		<g>
			<g>
				
					<ellipse transform="matrix(0.7071 -0.7071 0.7071 0.7071 -229.9707 215.0458)" class="st15" cx="144.6" cy="385.1" rx="10.4" ry="10.4"/>
				<path class="st8" d="M144.6,396.7c-6.4,0-11.5-5.2-11.5-11.5c0-6.4,5.2-11.5,11.5-11.5c6.4,0,11.5,5.2,11.5,11.5
					C156.1,391.5,151,396.7,144.6,396.7z M144.6,375.8c-5.2,0-9.4,4.2-9.4,9.4c0,5.2,4.2,9.4,9.4,9.4c5.2,0,9.4-4.2,9.4-9.4
					C154,380,149.8,375.8,144.6,375.8z"/>
			</g>
			<g>
				<path class="st12" d="M150.3,386.2c-0.6,0-1.1-0.5-1.1-1.1c0-2.6-2.1-4.6-4.6-4.6c-0.6,0-1.1-0.5-1.1-1.1s0.5-1.1,1.1-1.1
					c3.8,0,6.8,3.1,6.8,6.8C151.4,385.7,150.9,386.2,150.3,386.2z"/>
			</g>
		</g>
		<g>
			<g>
				
					<ellipse transform="matrix(0.2175 -0.9761 0.9761 0.2175 -296.7169 451.1622)" class="st16" cx="133" cy="410.6" rx="10.4" ry="10.4"/>
				<path class="st8" d="M133,422.2c-6.4,0-11.5-5.2-11.5-11.5c0-6.4,5.2-11.5,11.5-11.5c6.4,0,11.5,5.2,11.5,11.5
					C144.6,417,139.4,422.2,133,422.2z M133,401.3c-5.2,0-9.4,4.2-9.4,9.4c0,5.2,4.2,9.4,9.4,9.4c5.2,0,9.4-4.2,9.4-9.4
					C142.4,405.5,138.2,401.3,133,401.3z"/>
			</g>
			<g>
				<path class="st12" d="M138.8,411.7c-0.6,0-1.1-0.5-1.1-1.1c0-2.6-2.1-4.6-4.6-4.6c-0.6,0-1.1-0.5-1.1-1.1c0-0.6,0.5-1.1,1.1-1.1
					c3.8,0,6.8,3.1,6.8,6.8C139.8,411.2,139.3,411.7,138.8,411.7z"/>
			</g>
		</g>
	</g>
	<g>
		<g>
			<polygon class="st13" points="229.9,423.8 186.9,380.9 191.3,376.5 232.8,418 			"/>
			<path class="st8" d="M229.9,424.9c-0.3,0-0.6-0.1-0.8-0.3l-43-43c-0.2-0.2-0.3-0.5-0.3-0.8c0-0.3,0.1-0.6,0.3-0.8l4.4-4.4
				c0.4-0.4,1.1-0.4,1.5,0l41.5,41.5c0.3,0.3,0.4,0.8,0.2,1.3l-3,5.8c-0.2,0.3-0.5,0.5-0.8,0.6C230,424.9,229.9,424.9,229.9,424.9z
				 M188.4,380.9l41.1,41.1l1.9-3.8L191.3,378L188.4,380.9z"/>
		</g>
		<g>
			<polygon class="st13" points="186.9,378.8 229.9,335.9 234.2,340.3 192.7,381.8 			"/>
			<path class="st8" d="M192.7,382.9c-0.2,0-0.3,0-0.5-0.1l-5.8-3c-0.3-0.2-0.5-0.5-0.6-0.8c-0.1-0.3,0.1-0.7,0.3-0.9l43-43
				c0.4-0.4,1.1-0.4,1.5,0l4.4,4.4c0.4,0.4,0.4,1.1,0,1.5l-41.5,41.5C193.3,382.8,193,382.9,192.7,382.9z M188.7,378.5l3.8,1.9
				l40.2-40.2l-2.9-2.9L188.7,378.5z"/>
		</g>
		<g>
			<path class="st14" d="M228.9,404.7c-17.2,0-31.2,14-31.2,31.2h62.4C260.2,418.7,246.2,404.7,228.9,404.7z"/>
			<path class="st8" d="M260.2,437h-62.4c-0.6,0-1.1-0.5-1.1-1.1c0-17.8,14.5-32.3,32.3-32.3c17.8,0,32.3,14.5,32.3,32.3
				C261.3,436.5,260.8,437,260.2,437z M198.8,434.8h60.2c-0.6-16.1-13.9-29.1-30.1-29.1C212.7,405.8,199.4,418.7,198.8,434.8z"/>
		</g>
		<g>
			<path class="st12" d="M251,431.3c-0.5,0-0.9-0.3-1.1-0.9c-1.8-8-8-14.4-16-16.3c-0.6-0.1-0.9-0.7-0.8-1.3
				c0.1-0.6,0.7-0.9,1.3-0.8c8.8,2.1,15.7,9.1,17.6,17.9c0.1,0.6-0.2,1.2-0.8,1.3C251.1,431.3,251.1,431.3,251,431.3z"/>
		</g>
		<g>
			
				<ellipse transform="matrix(0.7071 -0.7071 0.7071 0.7071 -212.2762 245.8684)" class="st15" cx="190.7" cy="379.2" rx="9.9" ry="9.9"/>
			<path class="st8" d="M190.7,390.1c-6,0-10.9-4.9-10.9-10.9c0-6,4.9-10.9,10.9-10.9c6,0,10.9,4.9,10.9,10.9
				C201.6,385.2,196.7,390.1,190.7,390.1z M190.7,370.4c-4.8,0-8.8,3.9-8.8,8.8c0,4.8,3.9,8.8,8.8,8.8c4.8,0,8.8-3.9,8.8-8.8
				C199.4,374.3,195.5,370.4,190.7,370.4z"/>
		</g>
		<g>
			<path class="st7" d="M195.2,379.2c0,2.5-2,4.5-4.5,4.5s-4.5-2-4.5-4.5c0-2.5,2-4.5,4.5-4.5S195.2,376.7,195.2,379.2z"/>
			<path class="st8" d="M190.7,384.8c-3.1,0-5.6-2.5-5.6-5.6c0-3.1,2.5-5.6,5.6-5.6c3.1,0,5.6,2.5,5.6,5.6
				C196.3,382.3,193.7,384.8,190.7,384.8z M190.7,375.7c-1.9,0-3.4,1.5-3.4,3.4c0,1.9,1.5,3.4,3.4,3.4c1.9,0,3.4-1.5,3.4-3.4
				C194.1,377.3,192.5,375.7,190.7,375.7z"/>
		</g>
		<g>
			<g>
				<g>
					<circle class="st10" cx="246.5" cy="352" r="11.9"/>
					<path class="st8" d="M246.5,365c-3.3,0-6.6-1.3-9.1-3.8c-5-5-5-13.3,0-18.3c2.4-2.4,5.7-3.8,9.1-3.8c3.5,0,6.7,1.3,9.1,3.8l0,0
						c5,5,5,13.3,0,18.3C253.1,363.7,249.8,365,246.5,365z M246.5,341.3c-2.9,0-5.6,1.1-7.6,3.2c-4.2,4.2-4.2,11,0,15.2
						c4.2,4.2,11,4.2,15.2,0c4.2-4.2,4.2-11,0-15.2C252.1,342.4,249.4,341.3,246.5,341.3z"/>
				</g>
				<g>
					<path class="st14" d="M260,331.6c-9.4-9.4-24.6-9.4-34,0v0c-9.4,9.4-9.4,24.6,0,34l3.5,3.5l34-34L260,331.6z"/>
					<path class="st8" d="M229.5,370.1c-0.3,0-0.6-0.1-0.8-0.3l-3.5-3.5c-9.8-9.8-9.8-25.7,0-35.5c4.7-4.7,11.1-7.4,17.8-7.4
						c6.7,0,13,2.6,17.8,7.4l3.5,3.5c0.4,0.4,0.4,1.1,0,1.5l-34,34C230.1,370,229.8,370.1,229.5,370.1z M243,325.6
						c-6.1,0-11.9,2.4-16.2,6.7c-9,9-9,23.5,0,32.5l2.7,2.7L262,335l-2.7-2.7l0,0C254.9,328,249.2,325.6,243,325.6z"/>
				</g>
				<g>
					<path class="st7" d="M231.6,319c-4.7-4.7-12.3-4.7-17,0l-1.1,1.1c-4.7,4.7-4.7,12.3,0,17l6,6l18.1-18.1L231.6,319z"/>
					<path class="st8" d="M219.4,344.1c-0.3,0-0.6-0.1-0.8-0.3l-6-6c-5.1-5.1-5.1-13.5,0-18.6l1.1-1.1c5.1-5.1,13.5-5.1,18.6,0l6,6
						c0.2,0.2,0.3,0.5,0.3,0.8c0,0.3-0.1,0.6-0.3,0.8l-18.1,18.1C219.9,344,219.7,344.1,219.4,344.1z M223.1,316.5
						c-2.8,0-5.6,1.1-7.8,3.2l-1.1,1.1c-4.3,4.3-4.3,11.2,0,15.5l5.2,5.2l16.6-16.6l-5.2-5.2l0,0
						C228.7,317.6,225.9,316.5,223.1,316.5z"/>
				</g>
				<g>
					<path class="st12" d="M252.1,337.9c-0.3,0-0.6-0.1-0.8-0.3c-5.2-5.2-13-3.7-13-3.7c-0.6,0.1-1.2-0.3-1.3-0.8
						c-0.1-0.6,0.3-1.2,0.8-1.3c0.4-0.1,9-1.8,15,4.2c0.4,0.4,0.4,1.1,0,1.5C252.7,337.8,252.4,337.9,252.1,337.9z"/>
				</g>
				<g>
					<path class="st12" d="M227.4,327.2c-0.3,0-0.6-0.1-0.8-0.3l-2.8-2.8c-1.7-1.7-4.8-0.2-4.8-0.2c-0.5,0.2-1.2,0-1.4-0.5
						c-0.2-0.5,0-1.2,0.5-1.4c0.2-0.1,4.6-2.1,7.3,0.7l2.8,2.8c0.4,0.4,0.4,1.1,0,1.5C227.9,327.1,227.7,327.2,227.4,327.2z"/>
				</g>
			</g>
			<g>
				<g>
					<path class="st8" d="M263.4,370.1c-0.3,0-0.6-0.1-0.8-0.3l-4.8-4.8c-0.4-0.4-0.4-1.1,0-1.5s1.1-0.4,1.5,0l4.8,4.8
						c0.4,0.4,0.4,1.1,0,1.5C264,370,263.7,370.1,263.4,370.1z"/>
				</g>
				<g>
					<path class="st8" d="M270.9,356.3h-7.1c-0.6,0-1.1-0.5-1.1-1.1c0-0.6,0.5-1.1,1.1-1.1h7.1c0.6,0,1.1,0.5,1.1,1.1
						C272,355.8,271.5,356.3,270.9,356.3z"/>
				</g>
				<g>
					<path class="st8" d="M262.6,346.3c-0.4,0-0.8-0.3-1-0.7c-0.2-0.6,0.1-1.2,0.6-1.4l6.8-2.6c0.6-0.2,1.2,0.1,1.4,0.6
						c0.2,0.6-0.1,1.2-0.6,1.4l-6.8,2.6C262.9,346.3,262.8,346.3,262.6,346.3z"/>
				</g>
				<g>
					<path class="st8" d="M249.7,377.5c-0.6,0-1.1-0.5-1.1-1.1v-7.1c0-0.6,0.5-1.1,1.1-1.1c0.6,0,1.1,0.5,1.1,1.1v7.1
						C250.8,377.1,250.3,377.5,249.7,377.5z"/>
				</g>
				<g>
					<path class="st8" d="M237,376.1c-0.1,0-0.3,0-0.4-0.1c-0.6-0.2-0.8-0.8-0.6-1.4l2.6-6.8c0.2-0.6,0.8-0.8,1.4-0.6
						c0.6,0.2,0.8,0.8,0.6,1.4l-2.6,6.8C237.9,375.8,237.5,376.1,237,376.1z"/>
				</g>
			</g>
		</g>
	</g>
	<g>
		<g>
			<path class="st7" d="M361.9,360.7h-79c-1.6,0-3,1.3-3,3v48.8c0,1.6,1.3,3,3,3h79c1.6,0,3-1.3,3-3v-48.8
				C364.9,362.1,363.5,360.7,361.9,360.7z"/>
			<path class="st8" d="M361.9,416.5h-79c-2.2,0-4.1-1.8-4.1-4.1v-48.8c0-2.2,1.8-4.1,4.1-4.1h79c2.2,0,4.1,1.8,4.1,4.1v48.8
				C365.9,414.7,364.1,416.5,361.9,416.5z M282.9,361.8c-1,0-1.9,0.8-1.9,1.9v48.8c0,1,0.8,1.9,1.9,1.9h79c1,0,1.9-0.8,1.9-1.9
				v-48.8c0-1-0.8-1.9-1.9-1.9H282.9z"/>
		</g>
		<g>
			<path class="st16" d="M279.9,409.1v3.4c0,1.6,1.3,3,3,3h79c1.6,0,3-1.3,3-3v-3.4H279.9z"/>
			<path class="st8" d="M361.9,416.5h-79c-2.2,0-4.1-1.8-4.1-4.1v-3.4c0-0.6,0.5-1.1,1.1-1.1h85c0.6,0,1.1,0.5,1.1,1.1v3.4
				C365.9,414.7,364.1,416.5,361.9,416.5z M281,410.1v2.3c0,1,0.8,1.9,1.9,1.9h79c1,0,1.9-0.8,1.9-1.9v-2.3H281z"/>
		</g>
		<g>
			<path class="st16" d="M361.9,360.7h-79c-1.6,0-3,1.3-3,3v15.5h85v-15.5C364.9,362.1,363.5,360.7,361.9,360.7z"/>
			<path class="st8" d="M364.9,380.3h-85c-0.6,0-1.1-0.5-1.1-1.1v-15.5c0-2.2,1.8-4.1,4.1-4.1h79c2.2,0,4.1,1.8,4.1,4.1v15.5
				C365.9,379.8,365.5,380.3,364.9,380.3z M281,378.1h82.8v-14.4c0-1-0.8-1.9-1.9-1.9h-79c-1,0-1.9,0.8-1.9,1.9V378.1z"/>
		</g>
		<g>
			<circle class="st13" cx="329.4" cy="385.8" r="20"/>
			<path class="st8" d="M329.4,406.9c-11.6,0-21.1-9.5-21.1-21.1c0-11.6,9.5-21.1,21.1-21.1c11.6,0,21.1,9.5,21.1,21.1
				C350.5,397.4,341,406.9,329.4,406.9z M329.4,366.8c-10.5,0-19,8.5-19,19s8.5,19,19,19c10.5,0,19-8.5,19-19
				S339.8,366.8,329.4,366.8z"/>
		</g>
		<g>
			<circle class="st15" cx="329.4" cy="385.8" r="12.4"/>
			<path class="st8" d="M329.4,399.3c-7.4,0-13.5-6.1-13.5-13.5c0-7.4,6.1-13.5,13.5-13.5c7.4,0,13.5,6.1,13.5,13.5
				C342.9,393.2,336.8,399.3,329.4,399.3z M329.4,374.4c-6.3,0-11.3,5.1-11.3,11.3c0,6.3,5.1,11.3,11.3,11.3
				c6.3,0,11.3-5.1,11.3-11.3C340.7,379.5,335.6,374.4,329.4,374.4z"/>
		</g>
		<g>
			<path class="st12" d="M334.4,392.7c-0.3,0-0.6-0.1-0.8-0.4c-0.4-0.5-0.3-1.1,0.1-1.5c1.5-1.3,2.3-3.1,2.3-5.1
				c0-0.6,0.5-1.1,1.1-1.1s1.1,0.5,1.1,1.1c0,2.6-1.1,5-3.1,6.7C334.9,392.6,334.7,392.7,334.4,392.7z"/>
		</g>
		<g>
			<path class="st12" d="M335.3,381.8c-0.3,0-0.6-0.1-0.8-0.4c-1.3-1.5-3.1-2.3-5-2.3c-0.6,0-1.2,0.1-1.8,0.2
				c-0.6,0.2-1.2-0.2-1.3-0.8c-0.2-0.6,0.2-1.2,0.8-1.3c0.8-0.2,1.5-0.3,2.3-0.3c2.6,0,5,1.1,6.7,3.1c0.4,0.5,0.3,1.1-0.1,1.5
				C335.8,381.7,335.5,381.8,335.3,381.8z"/>
		</g>
		<g>
			<rect x="289.5" y="355.4" class="st7" width="16.9" height="5.2"/>
			<path class="st8" d="M306.4,361.7h-16.9c-0.6,0-1.1-0.5-1.1-1.1v-5.2c0-0.6,0.5-1.1,1.1-1.1h16.9c0.6,0,1.1,0.5,1.1,1.1v5.2
				C307.5,361.2,307,361.7,306.4,361.7z M290.6,359.5h14.7v-3h-14.7V359.5z"/>
		</g>
		<g>
			<rect x="351.3" y="366.2" class="st9" width="8" height="4.9"/>
			<path class="st8" d="M359.3,372.3h-8c-0.6,0-1.1-0.5-1.1-1.1v-4.9c0-0.6,0.5-1.1,1.1-1.1h8c0.6,0,1.1,0.5,1.1,1.1v4.9
				C360.3,371.8,359.9,372.3,359.3,372.3z M352.4,370.1h5.8v-2.8h-5.8V370.1z"/>
		</g>
		<g>
			<path class="st12" d="M302.7,403.1h-14.5c-0.6,0-1.1-0.5-1.1-1.1c0-0.6,0.5-1.1,1.1-1.1h14.5c0.6,0,1.1,0.5,1.1,1.1
				C303.8,402.6,303.3,403.1,302.7,403.1z"/>
		</g>
		<g>
			<path class="st12" d="M298,396.6h-9.8c-0.6,0-1.1-0.5-1.1-1.1c0-0.6,0.5-1.1,1.1-1.1h9.8c0.6,0,1.1,0.5,1.1,1.1
				C299.1,396.1,298.6,396.6,298,396.6z"/>
		</g>
	</g>
	<g>
		<g>
			<path class="st14" d="M423.7,339c-24.3,0-44,19.7-44,44c0,24.3,19.7,44,44,44c24.3,0,44-19.7,44-44
				C467.7,358.7,448,339,423.7,339z M423.7,391.2c-4.5,0-8.2-3.7-8.2-8.2c0-4.5,3.7-8.2,8.2-8.2c4.5,0,8.2,3.7,8.2,8.2
				C431.9,387.5,428.3,391.2,423.7,391.2z"/>
			<path class="st8" d="M423.7,428.1c-24.9,0-45.1-20.2-45.1-45.1c0-24.9,20.2-45.1,45.1-45.1c24.9,0,45.1,20.2,45.1,45.1
				C468.8,407.8,448.6,428.1,423.7,428.1z M423.7,340c-23.7,0-42.9,19.3-42.9,42.9c0,23.7,19.3,42.9,42.9,42.9
				c23.7,0,42.9-19.3,42.9-42.9C466.7,359.3,447.4,340,423.7,340z M423.7,392.3c-5.1,0-9.3-4.2-9.3-9.3c0-5.1,4.2-9.3,9.3-9.3
				c5.1,0,9.3,4.2,9.3,9.3C433,388.1,428.8,392.3,423.7,392.3z M423.7,375.8c-3.9,0-7.1,3.2-7.1,7.1c0,3.9,3.2,7.1,7.1,7.1
				c3.9,0,7.1-3.2,7.1-7.1C430.8,379,427.6,375.8,423.7,375.8z"/>
		</g>
		<g>
			<path class="st12" d="M423.7,419c-5.4,0-10.6-1.2-15.4-3.4c-0.5-0.3-0.8-0.9-0.5-1.4c0.3-0.5,0.9-0.8,1.4-0.5
				c4.5,2.1,9.4,3.2,14.5,3.2c7,0,13.7-2.1,19.4-6.1l0,0c2-1.4,3.8-3,5.4-4.7c0.4-0.4,1.1-0.5,1.5-0.1c0.4,0.4,0.5,1.1,0.1,1.5
				c-1.7,1.9-3.7,3.6-5.8,5h0C438.3,416.8,431.2,419,423.7,419z M400.7,410.3c-0.3,0-0.5-0.1-0.7-0.3c-7.8-6.8-12.3-16.7-12.3-27.1
				c0-0.6,0.5-1.1,1.1-1.1s1.1,0.5,1.1,1.1c0,9.7,4.2,19,11.5,25.5c0.5,0.4,0.5,1.1,0.1,1.5C401.3,410.2,401,410.3,400.7,410.3z
				 M454.7,400.2c-0.2,0-0.3,0-0.5-0.1c-0.5-0.3-0.7-0.9-0.5-1.5c2.5-4.8,3.8-10.2,3.8-15.6c0-0.6,0.5-1.1,1.1-1.1
				c0.6,0,1.1,0.5,1.1,1.1c0,5.8-1.4,11.5-4,16.6C455.5,399.9,455.1,400.2,454.7,400.2z M457.2,374.1c-0.5,0-0.9-0.3-1-0.8
				c-2.2-7.3-6.8-13.8-13.1-18.2c-0.5-0.3-0.6-1-0.3-1.5c0.3-0.5,1-0.6,1.5-0.3c6.7,4.7,11.6,11.5,13.9,19.3
				c0.2,0.6-0.2,1.2-0.7,1.3C457.4,374.1,457.3,374.1,457.2,374.1z M391,371.8c-0.1,0-0.3,0-0.4-0.1c-0.6-0.2-0.8-0.8-0.6-1.4
				c1.9-5,4.9-9.6,8.8-13.3c0.4-0.4,1.1-0.4,1.5,0c0.4,0.4,0.4,1.1,0,1.5c-3.6,3.5-6.5,7.8-8.2,12.5
				C391.9,371.5,391.4,371.8,391,371.8z M435.1,351c-0.1,0-0.2,0-0.4-0.1c-6-2.1-12.7-2.4-18.9-0.9c-0.6,0.1-1.2-0.2-1.3-0.8
				c-0.1-0.6,0.2-1.2,0.8-1.3c6.6-1.6,13.7-1.2,20.1,1c0.6,0.2,0.9,0.8,0.7,1.4C436,350.7,435.6,351,435.1,351z"/>
		</g>
		<g>
			<path class="st15" d="M423.7,363c-11,0-20,9-20,20c0,11.1,9,20,20,20c11.1,0,20-9,20-20C443.7,371.9,434.8,363,423.7,363z
				 M423.7,391.2c-4.5,0-8.2-3.7-8.2-8.2c0-4.5,3.7-8.2,8.2-8.2c4.5,0,8.2,3.7,8.2,8.2C431.9,387.5,428.3,391.2,423.7,391.2z"/>
			<path class="st8" d="M423.7,404.1c-11.6,0-21.1-9.5-21.1-21.1c0-11.6,9.5-21.1,21.1-21.1c11.6,0,21.1,9.5,21.1,21.1
				C444.8,394.6,435.4,404.1,423.7,404.1z M423.7,364c-10.4,0-18.9,8.5-18.9,18.9c0,10.4,8.5,18.9,18.9,18.9
				c10.4,0,18.9-8.5,18.9-18.9C442.7,372.5,434.2,364,423.7,364z M423.7,392.3c-5.1,0-9.3-4.2-9.3-9.3c0-5.1,4.2-9.3,9.3-9.3
				c5.1,0,9.3,4.2,9.3,9.3C433,388.1,428.8,392.3,423.7,392.3z M423.7,375.8c-3.9,0-7.1,3.2-7.1,7.1c0,3.9,3.2,7.1,7.1,7.1
				c3.9,0,7.1-3.2,7.1-7.1C430.8,379,427.6,375.8,423.7,375.8z"/>
		</g>
	</g>
	<g>
		<g>
			<path class="st10" d="M397.5,233.1v40.6c0,2.6,2.1,4.8,4.8,4.8h15.9c2.6,0,4.8-2.1,4.8-4.8v-40.6H397.5z"/>
			<path class="st8" d="M418.1,279.6h-15.9c-3.2,0-5.9-2.6-5.9-5.9v-40.6c0-0.6,0.5-1.1,1.1-1.1h25.4c0.6,0,1.1,0.5,1.1,1.1v40.6
				C424,276.9,421.4,279.6,418.1,279.6z M398.6,234.2v39.5c0,2,1.7,3.7,3.7,3.7h15.9c2,0,3.7-1.7,3.7-3.7v-39.5H398.6z"/>
		</g>
		<g>
			<rect x="399.7" y="217.2" class="st15" width="21" height="15.9"/>
			<path class="st8" d="M420.7,234.2h-21c-0.6,0-1.1-0.5-1.1-1.1v-15.9c0-0.6,0.5-1.1,1.1-1.1h21c0.6,0,1.1,0.5,1.1,1.1v15.9
				C421.8,233.7,421.3,234.2,420.7,234.2z M400.8,232h18.9v-13.7h-18.9V232z"/>
		</g>
		<g>
			<path class="st8" d="M410.8,286.5h-1.3c-2.3,0-4.2-1.9-4.2-4.2v-3.8c0-0.6,0.5-1.1,1.1-1.1h7.5c0.6,0,1.1,0.5,1.1,1.1v3.8
				C415,284.6,413.1,286.5,410.8,286.5z M407.5,279.6v2.7c0,1.1,0.9,2,2,2h1.3c1.1,0,2-0.9,2-2v-2.7H407.5z"/>
		</g>
		<g>
			<g>
				<path class="st8" d="M406.8,226.1h-2.5c-0.6,0-1.1-0.5-1.1-1.1c0-0.6,0.5-1.1,1.1-1.1h2.5c0.6,0,1.1,0.5,1.1,1.1
					C407.9,225.7,407.4,226.1,406.8,226.1z"/>
			</g>
			<g>
				<path class="st8" d="M416,226.1h-2.5c-0.6,0-1.1-0.5-1.1-1.1c0-0.6,0.5-1.1,1.1-1.1h2.5c0.6,0,1.1,0.5,1.1,1.1
					C417.1,225.7,416.6,226.1,416,226.1z"/>
			</g>
		</g>
		<g>
			<path class="st12" d="M410.2,266.7c-0.6,0-1.1-0.5-1.1-1.1v-24.4c0-0.6,0.5-1.1,1.1-1.1c0.6,0,1.1,0.5,1.1,1.1v24.4
				C411.3,266.3,410.8,266.7,410.2,266.7z"/>
		</g>
		<g>
			<path class="st8" d="M417.5,266.7h-14.7c-0.6,0-1.1-0.5-1.1-1.1c0-0.6,0.5-1.1,1.1-1.1h14.7c0.6,0,1.1,0.5,1.1,1.1
				C418.6,266.3,418.1,266.7,417.5,266.7z"/>
		</g>
	</g>
	<g>
		<g>
			<g>
				<g>
					<rect x="384.5" y="135.5" class="st7" width="11.2" height="11.2"/>
					<path class="st8" d="M395.7,147.8h-11.2c-0.6,0-1.1-0.5-1.1-1.1v-11.2c0-0.6,0.5-1.1,1.1-1.1h11.2c0.6,0,1.1,0.5,1.1,1.1v11.2
						C396.8,147.3,396.3,147.8,395.7,147.8z M385.6,145.6h9v-9h-9V145.6z"/>
				</g>
				<g>
					<polygon class="st15" points="401.3,157.9 378.9,157.9 384.5,146.7 395.7,146.7 					"/>
					<path class="st8" d="M401.3,159h-22.4c-0.4,0-0.7-0.2-0.9-0.5c-0.2-0.3-0.2-0.7,0-1.1l5.6-11.2c0.2-0.4,0.6-0.6,1-0.6h11.2
						c0.4,0,0.8,0.2,1,0.6l5.6,11.2c0.2,0.3,0.2,0.7,0,1.1C402,158.8,401.7,159,401.3,159z M380.7,156.8h18.9l-4.5-9h-9.9
						L380.7,156.8z"/>
				</g>
				<g>
					<polygon class="st17" points="390.1,178.2 387.1,157.9 393.1,157.9 					"/>
					<path class="st8" d="M390.1,179.3c-0.5,0-1-0.4-1.1-0.9l-3-20.3c0-0.3,0-0.6,0.3-0.9c0.2-0.2,0.5-0.4,0.8-0.4h6
						c0.3,0,0.6,0.1,0.8,0.4c0.2,0.2,0.3,0.6,0.3,0.9l-3,20.3C391.1,178.9,390.6,179.3,390.1,179.3z M388.4,159l1.7,11.8l1.7-11.8
						H388.4z"/>
				</g>
			</g>
			<g>
				<path class="st12" d="M390.1,144.2c-0.6,0-1.1-0.5-1.1-1.1v-3.7c0-0.6,0.5-1.1,1.1-1.1c0.6,0,1.1,0.5,1.1,1.1v3.7
					C391.2,143.7,390.7,144.2,390.1,144.2z"/>
			</g>
			<g>
				<path class="st12" d="M393.1,154.9c-0.4,0-0.8-0.2-1-0.6l-1.5-3.2c-0.3-0.5,0-1.2,0.5-1.4c0.5-0.3,1.2,0,1.4,0.5l1.5,3.2
					c0.3,0.5,0,1.2-0.5,1.4C393.4,154.9,393.2,154.9,393.1,154.9z"/>
			</g>
		</g>
		<g>
			<g>
				<g>
					<rect x="414.7" y="135.5" class="st9" width="11.2" height="11.2"/>
					<path class="st8" d="M425.9,147.8h-11.2c-0.6,0-1.1-0.5-1.1-1.1v-11.2c0-0.6,0.5-1.1,1.1-1.1h11.2c0.6,0,1.1,0.5,1.1,1.1v11.2
						C427,147.3,426.5,147.8,425.9,147.8z M415.8,145.6h9v-9h-9V145.6z"/>
				</g>
				<g>
					<polygon class="st13" points="431.5,157.9 409.1,157.9 414.7,146.7 425.9,146.7 					"/>
					<path class="st8" d="M431.5,159h-22.4c-0.4,0-0.7-0.2-0.9-0.5c-0.2-0.3-0.2-0.7,0-1.1l5.6-11.2c0.2-0.4,0.6-0.6,1-0.6h11.2
						c0.4,0,0.8,0.2,1,0.6l5.6,11.2c0.2,0.3,0.2,0.7,0,1.1C432.2,158.8,431.9,159,431.5,159z M410.8,156.8h18.9l-4.5-9h-9.9
						L410.8,156.8z"/>
				</g>
				<g>
					<polygon class="st17" points="420.3,178.2 417.3,157.9 423.3,157.9 					"/>
					<path class="st8" d="M420.3,179.3c-0.5,0-1-0.4-1.1-0.9l-3-20.3c0-0.3,0-0.6,0.3-0.9c0.2-0.2,0.5-0.4,0.8-0.4h6
						c0.3,0,0.6,0.1,0.8,0.4c0.2,0.2,0.3,0.6,0.3,0.9l-3,20.3C421.3,178.9,420.8,179.3,420.3,179.3z M418.6,159l1.7,11.8L422,159
						H418.6z"/>
				</g>
			</g>
			<g>
				<path class="st12" d="M420.3,144.2c-0.6,0-1.1-0.5-1.1-1.1v-3.7c0-0.6,0.5-1.1,1.1-1.1c0.6,0,1.1,0.5,1.1,1.1v3.7
					C421.4,143.7,420.9,144.2,420.3,144.2z"/>
			</g>
			<g>
				<path class="st12" d="M423.3,154.9c-0.4,0-0.8-0.2-1-0.6l-1.5-3.2c-0.3-0.5,0-1.2,0.5-1.4s1.2,0,1.4,0.5l1.5,3.2
					c0.3,0.5,0,1.2-0.5,1.4C423.6,154.9,423.4,154.9,423.3,154.9z"/>
			</g>
		</g>
		<g>
			<g>
				<g>
					
						<rect x="400" y="193.7" transform="matrix(-1 -1.224647e-16 1.224647e-16 -1 811.259 398.5333)" class="st14" width="11.2" height="11.2"/>
					<path class="st8" d="M411.2,206H400c-0.6,0-1.1-0.5-1.1-1.1v-11.2c0-0.6,0.5-1.1,1.1-1.1h11.2c0.6,0,1.1,0.5,1.1,1.1v11.2
						C412.3,205.5,411.8,206,411.2,206z M401.1,203.8h9v-9h-9V203.8z"/>
				</g>
				<g>
					<polygon class="st15" points="394.4,182.5 416.8,182.5 411.2,193.7 400,193.7 					"/>
					<path class="st8" d="M411.2,194.7H400c-0.4,0-0.8-0.2-1-0.6l-5.6-11.2c-0.2-0.3-0.2-0.7,0-1.1c0.2-0.3,0.5-0.5,0.9-0.5h22.4
						c0.4,0,0.7,0.2,0.9,0.5c0.2,0.3,0.2,0.7,0,1.1l-5.6,11.2C412,194.5,411.6,194.7,411.2,194.7z M400.7,192.6h9.9l4.5-9h-18.9
						L400.7,192.6z"/>
				</g>
				<g>
					<polygon class="st17" points="405.6,162.2 408.6,182.5 402.6,182.5 					"/>
					<path class="st8" d="M408.6,183.5h-6c-0.3,0-0.6-0.1-0.8-0.4c-0.2-0.2-0.3-0.6-0.3-0.9l3-20.3c0.1-0.5,0.5-0.9,1.1-0.9l0,0
						c0.5,0,1,0.4,1.1,0.9l3,20.3c0,0.3,0,0.6-0.3,0.9C409.2,183.4,408.9,183.5,408.6,183.5z M403.9,181.4h3.5l-1.7-11.8
						L403.9,181.4z"/>
				</g>
			</g>
			<g>
				<path class="st12" d="M405.6,202.1c-0.6,0-1.1-0.5-1.1-1.1v-3.7c0-0.6,0.5-1.1,1.1-1.1c0.6,0,1.1,0.5,1.1,1.1v3.7
					C406.7,201.6,406.2,202.1,405.6,202.1z"/>
			</g>
			<g>
				<path class="st12" d="M404.2,190.9c-0.4,0-0.8-0.2-1-0.6l-1.5-3.2c-0.3-0.5,0-1.2,0.5-1.4s1.2,0,1.4,0.5l1.5,3.2
					c0.3,0.5,0,1.2-0.5,1.4C404.5,190.9,404.3,190.9,404.2,190.9z"/>
			</g>
		</g>
	</g>
	<g>
		<g>
			<rect x="40.2" y="339.1" class="st7" width="16.5" height="87.3"/>
			<path class="st8" d="M56.7,427.5H40.2c-0.6,0-1.1-0.5-1.1-1.1v-87.3c0-0.6,0.5-1.1,1.1-1.1h16.5c0.6,0,1.1,0.5,1.1,1.1v87.3
				C57.8,427,57.3,427.5,56.7,427.5z M41.2,425.4h14.4v-85.2H41.2V425.4z"/>
		</g>
		<g>
			<polygon class="st7" points="56.7,426.4 51.2,440.9 45.6,440.9 40.2,426.4 			"/>
			<path class="st8" d="M51.2,442h-5.6c-0.5,0-0.9-0.3-1-0.7l-5.5-14.5c-0.1-0.3-0.1-0.7,0.1-1c0.2-0.3,0.5-0.5,0.9-0.5h16.5
				c0.4,0,0.7,0.2,0.9,0.5c0.2,0.3,0.2,0.7,0.1,1l-5.5,14.5C52.1,441.7,51.7,442,51.2,442z M46.4,439.8h4.1l4.7-12.3H41.7
				L46.4,439.8z"/>
		</g>
		<g>
			<line class="st18" x1="48.4" y1="440.9" x2="48.4" y2="445.8"/>
			<path class="st8" d="M48.4,446.9c-0.6,0-1.1-0.5-1.1-1.1v-4.9c0-0.6,0.5-1.1,1.1-1.1c0.6,0,1.1,0.5,1.1,1.1v4.9
				C49.5,446.4,49,446.9,48.4,446.9z"/>
		</g>
		<g>
			<rect x="35" y="334" class="st10" width="23.5" height="5.1"/>
			<path class="st8" d="M58.5,340.2H35c-0.6,0-1.1-0.5-1.1-1.1V334c0-0.6,0.5-1.1,1.1-1.1h23.5c0.6,0,1.1,0.5,1.1,1.1v5.1
				C59.6,339.7,59.1,340.2,58.5,340.2z M36.1,338h21.3v-2.9H36.1V338z"/>
		</g>
		<g>
			<path class="st10" d="M29.6,375.2l5.4-5.4v-43.3h-1.2c-2.4,0-4.3,1.9-4.3,4.3V375.2z"/>
			<path class="st8" d="M29.6,376.3c-0.1,0-0.3,0-0.4-0.1c-0.4-0.2-0.7-0.6-0.7-1v-44.5c0-3,2.4-5.4,5.4-5.4H35
				c0.6,0,1.1,0.5,1.1,1.1v43.3c0,0.3-0.1,0.6-0.3,0.8l-5.4,5.4C30.1,376.2,29.9,376.3,29.6,376.3z M33.9,327.6
				c-1.8,0-3.2,1.4-3.2,3.2v41.8l3.3-3.3L33.9,327.6L33.9,327.6z"/>
		</g>
		<g>
			<rect x="40.2" y="326.5" class="st7" width="16.5" height="7.5"/>
			<path class="st8" d="M56.7,335.1H40.2c-0.6,0-1.1-0.5-1.1-1.1v-7.5c0-0.6,0.5-1.1,1.1-1.1h16.5c0.6,0,1.1,0.5,1.1,1.1v7.5
				C57.8,334.6,57.3,335.1,56.7,335.1z M41.2,333h14.4v-5.4H41.2V333z"/>
		</g>
		<g>
			<path class="st10" d="M50.6,310.2h-4.3c-1.1,0-2,0.9-2,2v14.2h8.4v-14.2C52.6,311.1,51.7,310.2,50.6,310.2z"/>
			<path class="st8" d="M52.6,327.6h-8.4c-0.6,0-1.1-0.5-1.1-1.1v-14.2c0-1.7,1.4-3.1,3.1-3.1h4.3c1.7,0,3.1,1.4,3.1,3.1v14.2
				C53.7,327.1,53.2,327.6,52.6,327.6z M45.3,325.4h6.2v-13.2c0-0.5-0.4-0.9-0.9-0.9h-4.3c-0.5,0-0.9,0.4-0.9,0.9V325.4z"/>
		</g>
		<g>
			<rect x="40.3" y="396.3" class="st10" width="16.4" height="30.1"/>
			<path class="st8" d="M56.7,427.5H40.3c-0.6,0-1.1-0.5-1.1-1.1v-30.1c0-0.6,0.5-1.1,1.1-1.1h16.4c0.6,0,1.1,0.5,1.1,1.1v30.1
				C57.8,427,57.3,427.5,56.7,427.5z M41.4,425.3h14.2v-27.9H41.4V425.3z"/>
		</g>
		<g>
			<path class="st12" d="M50.7,385.9c-0.6,0-1.1-0.5-1.1-1.1v-34.7c0-0.6,0.5-1.1,1.1-1.1c0.6,0,1.1,0.5,1.1,1.1v34.7
				C51.8,385.4,51.3,385.9,50.7,385.9z"/>
		</g>
		<g>
			<path class="st12" d="M50.7,420.7c-0.6,0-1.1-0.5-1.1-1.1v-16.8c0-0.6,0.5-1.1,1.1-1.1c0.6,0,1.1,0.5,1.1,1.1v16.8
				C51.8,420.2,51.3,420.7,50.7,420.7z"/>
		</g>
	</g>
</g>
<g id="DESIGNED_BY_FREEPIK" class="st0">
	<g class="st19">
		<g>
			<g>
				<path class="st16" d="M179.6,472.3v-0.2c-0.2,0.2-0.4,0.5-0.6,0.6c-0.2,0.2-0.4,0.3-0.7,0.4c-0.2,0.1-0.5,0.1-0.8,0.1
					c-0.4,0-0.7-0.1-1.1-0.2c-0.3-0.2-0.6-0.4-0.9-0.7c-0.2-0.3-0.4-0.7-0.5-1.1c-0.1-0.4-0.2-0.9-0.2-1.3c0-1,0.2-1.8,0.7-2.4
					c0.5-0.6,1.1-0.8,2-0.8c0.5,0,0.9,0.1,1.2,0.2c0.3,0.2,0.6,0.4,0.9,0.7v-2.4c0-0.3,0.1-0.6,0.2-0.8c0.1-0.2,0.3-0.3,0.6-0.3
					c0.2,0,0.4,0.1,0.6,0.2c0.1,0.2,0.2,0.4,0.2,0.7v7.1c0,0.3-0.1,0.5-0.2,0.7c-0.1,0.2-0.3,0.2-0.6,0.2c-0.2,0-0.4-0.1-0.5-0.2
					C179.6,472.8,179.6,472.6,179.6,472.3z M176.4,469.9c0,0.4,0.1,0.8,0.2,1.1c0.1,0.3,0.3,0.5,0.6,0.7c0.2,0.2,0.5,0.2,0.8,0.2
					c0.3,0,0.5-0.1,0.8-0.2c0.2-0.1,0.4-0.4,0.6-0.7c0.1-0.3,0.2-0.7,0.2-1.1c0-0.4-0.1-0.8-0.2-1.1c-0.1-0.3-0.3-0.5-0.6-0.7
					c-0.2-0.2-0.5-0.2-0.8-0.2c-0.3,0-0.6,0.1-0.8,0.3c-0.2,0.2-0.4,0.4-0.5,0.7C176.4,469.1,176.4,469.5,176.4,469.9z"/>
				<path class="st16" d="M186.7,470.3h-3.2c0,0.4,0.1,0.7,0.2,1c0.1,0.3,0.3,0.5,0.6,0.6c0.2,0.1,0.5,0.2,0.8,0.2
					c0.2,0,0.4,0,0.5-0.1c0.2,0,0.3-0.1,0.5-0.2c0.2-0.1,0.3-0.2,0.4-0.3c0.1-0.1,0.3-0.3,0.5-0.5c0.1-0.1,0.2-0.1,0.4-0.1
					c0.2,0,0.3,0,0.4,0.1c0.1,0.1,0.2,0.2,0.2,0.4c0,0.1-0.1,0.3-0.2,0.5c-0.1,0.2-0.3,0.4-0.5,0.6c-0.2,0.2-0.5,0.3-0.9,0.4
					c-0.3,0.1-0.8,0.2-1.2,0.2c-1,0-1.8-0.3-2.4-0.9c-0.6-0.6-0.9-1.4-0.9-2.4c0-0.5,0.1-0.9,0.2-1.3c0.1-0.4,0.4-0.8,0.6-1.1
					c0.3-0.3,0.6-0.5,1-0.7c0.4-0.2,0.8-0.2,1.3-0.2c0.6,0,1.2,0.1,1.6,0.4c0.5,0.3,0.8,0.6,1,1c0.2,0.4,0.3,0.9,0.3,1.3
					c0,0.4-0.1,0.7-0.4,0.8C187.5,470.3,187.1,470.3,186.7,470.3z M183.5,469.4h2.9c0-0.6-0.2-1-0.4-1.2c-0.3-0.3-0.6-0.4-1-0.4
					c-0.4,0-0.7,0.1-1,0.4C183.7,468.4,183.6,468.9,183.5,469.4z"/>
				<path class="st16" d="M194.1,471.1c0,0.4-0.1,0.8-0.3,1.1c-0.2,0.3-0.5,0.6-1,0.7c-0.4,0.2-0.9,0.2-1.6,0.2
					c-0.6,0-1.1-0.1-1.5-0.3c-0.4-0.2-0.7-0.4-0.9-0.7c-0.2-0.3-0.3-0.5-0.3-0.8c0-0.2,0.1-0.3,0.2-0.5c0.1-0.1,0.3-0.2,0.5-0.2
					c0.2,0,0.3,0,0.4,0.1c0.1,0.1,0.2,0.2,0.3,0.3c0.2,0.3,0.4,0.5,0.6,0.6c0.2,0.1,0.5,0.2,0.9,0.2c0.3,0,0.6-0.1,0.8-0.2
					c0.2-0.1,0.3-0.3,0.3-0.5c0-0.3-0.1-0.5-0.3-0.6c-0.2-0.1-0.6-0.3-1.1-0.4c-0.6-0.1-1-0.3-1.4-0.4c-0.4-0.2-0.6-0.4-0.8-0.6
					c-0.2-0.2-0.3-0.6-0.3-0.9c0-0.3,0.1-0.6,0.3-0.9c0.2-0.3,0.5-0.5,0.9-0.7c0.4-0.2,0.8-0.3,1.4-0.3c0.4,0,0.8,0,1.1,0.1
					c0.3,0.1,0.6,0.2,0.8,0.4c0.2,0.1,0.4,0.3,0.5,0.5c0.1,0.2,0.2,0.4,0.2,0.5c0,0.2-0.1,0.3-0.2,0.5c-0.1,0.1-0.3,0.2-0.5,0.2
					c-0.2,0-0.3,0-0.4-0.1c-0.1-0.1-0.3-0.2-0.4-0.4c-0.1-0.2-0.3-0.3-0.4-0.4c-0.2-0.1-0.4-0.1-0.7-0.1c-0.3,0-0.5,0.1-0.7,0.2
					c-0.2,0.1-0.3,0.3-0.3,0.5c0,0.2,0.1,0.3,0.2,0.4c0.1,0.1,0.3,0.2,0.6,0.3c0.2,0.1,0.6,0.2,1,0.3c0.5,0.1,0.9,0.3,1.2,0.4
					c0.3,0.2,0.6,0.4,0.7,0.6C194,470.5,194.1,470.8,194.1,471.1z"/>
				<path class="st16" d="M195.7,465.9c-0.2,0-0.4-0.1-0.6-0.2c-0.2-0.1-0.2-0.3-0.2-0.6c0-0.2,0.1-0.4,0.2-0.6
					c0.2-0.1,0.4-0.2,0.6-0.2c0.2,0,0.4,0.1,0.6,0.2c0.2,0.1,0.2,0.3,0.2,0.6c0,0.2-0.1,0.4-0.2,0.6
					C196.1,465.8,196,465.9,195.7,465.9z M196.5,467.5v4.7c0,0.3-0.1,0.6-0.2,0.7c-0.2,0.2-0.3,0.2-0.6,0.2c-0.2,0-0.4-0.1-0.6-0.3
					c-0.1-0.2-0.2-0.4-0.2-0.7v-4.6c0-0.3,0.1-0.6,0.2-0.7c0.1-0.2,0.3-0.2,0.6-0.2c0.2,0,0.4,0.1,0.6,0.2
					C196.5,467,196.5,467.3,196.5,467.5z"/>
				<path class="st16" d="M203.6,467.8v4.7c0,0.5-0.1,1-0.2,1.4c-0.1,0.4-0.3,0.7-0.6,1c-0.3,0.3-0.6,0.4-1,0.6
					c-0.4,0.1-0.9,0.2-1.5,0.2c-0.6,0-1.1-0.1-1.5-0.2c-0.4-0.2-0.8-0.4-1-0.6c-0.2-0.2-0.4-0.5-0.4-0.8c0-0.2,0.1-0.4,0.2-0.5
					c0.1-0.1,0.3-0.2,0.5-0.2c0.2,0,0.4,0.1,0.6,0.3c0.1,0.1,0.2,0.2,0.3,0.3c0.1,0.1,0.2,0.2,0.3,0.3c0.1,0.1,0.2,0.1,0.4,0.2
					c0.2,0,0.3,0.1,0.5,0.1c0.4,0,0.7-0.1,1-0.2c0.2-0.1,0.4-0.3,0.5-0.5c0.1-0.2,0.1-0.4,0.2-0.7c0-0.2,0-0.6,0-1.2
					c-0.2,0.3-0.5,0.6-0.9,0.8c-0.3,0.2-0.7,0.3-1.2,0.3c-0.5,0-1-0.1-1.4-0.4c-0.4-0.3-0.7-0.7-0.9-1.2c-0.2-0.5-0.3-1.1-0.3-1.7
					c0-0.5,0.1-0.9,0.2-1.3c0.1-0.4,0.3-0.7,0.6-1c0.2-0.3,0.5-0.5,0.8-0.6c0.3-0.1,0.7-0.2,1.1-0.2c0.5,0,0.9,0.1,1.2,0.3
					c0.3,0.2,0.6,0.5,0.9,0.8v-0.2c0-0.3,0.1-0.5,0.2-0.7c0.1-0.2,0.3-0.2,0.5-0.2c0.3,0,0.5,0.1,0.6,0.3
					C203.6,467.1,203.6,467.4,203.6,467.8z M198.9,469.9c0,0.7,0.1,1.2,0.4,1.5c0.3,0.3,0.7,0.5,1.1,0.5c0.3,0,0.5-0.1,0.8-0.2
					c0.2-0.1,0.4-0.4,0.6-0.7c0.1-0.3,0.2-0.6,0.2-1.1c0-0.7-0.1-1.2-0.4-1.5c-0.3-0.4-0.7-0.6-1.1-0.6c-0.5,0-0.8,0.2-1.1,0.5
					C199.1,468.7,198.9,469.2,198.9,469.9z"/>
				<path class="st16" d="M206.2,467.5v0.2c0.3-0.4,0.6-0.7,0.9-0.8c0.3-0.2,0.7-0.3,1.2-0.3c0.4,0,0.8,0.1,1.1,0.3
					c0.3,0.2,0.6,0.4,0.8,0.8c0.1,0.2,0.2,0.4,0.2,0.6c0,0.2,0,0.5,0,0.9v3c0,0.3-0.1,0.6-0.2,0.7c-0.1,0.2-0.3,0.2-0.6,0.2
					c-0.2,0-0.4-0.1-0.6-0.3c-0.2-0.2-0.2-0.4-0.2-0.7v-2.7c0-0.5-0.1-0.9-0.2-1.2c-0.1-0.3-0.4-0.4-0.9-0.4c-0.3,0-0.6,0.1-0.8,0.3
					c-0.2,0.2-0.4,0.4-0.5,0.7c-0.1,0.2-0.1,0.7-0.1,1.4v2c0,0.3-0.1,0.6-0.2,0.7c-0.2,0.2-0.3,0.2-0.6,0.2c-0.2,0-0.4-0.1-0.6-0.3
					c-0.2-0.2-0.2-0.4-0.2-0.7v-4.7c0-0.3,0.1-0.5,0.2-0.7c0.1-0.2,0.3-0.2,0.6-0.2c0.1,0,0.3,0,0.4,0.1c0.1,0.1,0.2,0.2,0.3,0.3
					C206.2,467.2,206.2,467.3,206.2,467.5z"/>
				<path class="st16" d="M216.1,470.3h-3.2c0,0.4,0.1,0.7,0.2,1c0.1,0.3,0.3,0.5,0.6,0.6c0.2,0.1,0.5,0.2,0.8,0.2
					c0.2,0,0.4,0,0.5-0.1c0.2,0,0.3-0.1,0.5-0.2c0.1-0.1,0.3-0.2,0.4-0.3c0.1-0.1,0.3-0.3,0.5-0.5c0.1-0.1,0.2-0.1,0.4-0.1
					c0.2,0,0.3,0,0.4,0.1c0.1,0.1,0.2,0.2,0.2,0.4c0,0.1-0.1,0.3-0.2,0.5c-0.1,0.2-0.3,0.4-0.5,0.6c-0.2,0.2-0.5,0.3-0.9,0.4
					c-0.4,0.1-0.8,0.2-1.2,0.2c-1,0-1.9-0.3-2.4-0.9c-0.6-0.6-0.9-1.4-0.9-2.4c0-0.5,0.1-0.9,0.2-1.3c0.1-0.4,0.4-0.8,0.6-1.1
					c0.3-0.3,0.6-0.5,1-0.7c0.4-0.2,0.8-0.2,1.3-0.2c0.6,0,1.2,0.1,1.6,0.4c0.5,0.3,0.8,0.6,1,1c0.2,0.4,0.3,0.9,0.3,1.3
					c0,0.4-0.1,0.7-0.4,0.8C216.8,470.3,216.5,470.3,216.1,470.3z M212.9,469.4h2.9c0-0.6-0.2-1-0.4-1.2c-0.3-0.3-0.6-0.4-1-0.4
					c-0.4,0-0.7,0.1-1,0.4C213.1,468.4,213,468.9,212.9,469.4z"/>
				<path class="st16" d="M222.7,472.3v-0.2c-0.2,0.2-0.4,0.5-0.6,0.6c-0.2,0.2-0.4,0.3-0.7,0.4c-0.2,0.1-0.5,0.1-0.8,0.1
					c-0.4,0-0.7-0.1-1.1-0.2c-0.3-0.2-0.6-0.4-0.9-0.7c-0.2-0.3-0.4-0.7-0.5-1.1c-0.1-0.4-0.2-0.9-0.2-1.3c0-1,0.2-1.8,0.7-2.4
					c0.5-0.6,1.1-0.8,2-0.8c0.5,0,0.9,0.1,1.2,0.2c0.3,0.2,0.6,0.4,0.9,0.7v-2.4c0-0.3,0.1-0.6,0.2-0.8c0.1-0.2,0.3-0.3,0.6-0.3
					c0.2,0,0.4,0.1,0.6,0.2c0.1,0.2,0.2,0.4,0.2,0.7v7.1c0,0.3-0.1,0.5-0.2,0.7c-0.1,0.2-0.3,0.2-0.6,0.2c-0.2,0-0.4-0.1-0.5-0.2
					C222.8,472.8,222.7,472.6,222.7,472.3z M219.5,469.9c0,0.4,0.1,0.8,0.2,1.1c0.1,0.3,0.3,0.5,0.6,0.7c0.2,0.2,0.5,0.2,0.8,0.2
					c0.3,0,0.5-0.1,0.8-0.2c0.2-0.1,0.4-0.4,0.6-0.7c0.1-0.3,0.2-0.7,0.2-1.1c0-0.4-0.1-0.8-0.2-1.1c-0.1-0.3-0.3-0.5-0.6-0.7
					c-0.2-0.2-0.5-0.2-0.8-0.2c-0.3,0-0.6,0.1-0.8,0.3c-0.2,0.2-0.4,0.4-0.5,0.7C219.6,469.1,219.5,469.5,219.5,469.9z"/>
				<path class="st16" d="M229.3,465.1v2.5c0.3-0.3,0.6-0.6,0.9-0.7c0.3-0.2,0.7-0.3,1.2-0.3c0.5,0,1,0.1,1.4,0.4
					c0.4,0.3,0.7,0.6,0.9,1.1c0.2,0.5,0.3,1.1,0.3,1.7c0,0.5-0.1,0.9-0.2,1.4c-0.1,0.4-0.3,0.8-0.5,1.1c-0.2,0.3-0.5,0.5-0.9,0.7
					c-0.3,0.2-0.7,0.2-1.1,0.2c-0.2,0-0.5,0-0.7-0.1c-0.2-0.1-0.4-0.1-0.6-0.2c-0.2-0.1-0.3-0.2-0.4-0.3c-0.1-0.1-0.3-0.3-0.4-0.5
					v0.2c0,0.3-0.1,0.5-0.2,0.7c-0.1,0.2-0.3,0.2-0.6,0.2c-0.2,0-0.4-0.1-0.5-0.2c-0.1-0.2-0.2-0.4-0.2-0.7v-7.1
					c0-0.3,0.1-0.6,0.2-0.7c0.1-0.2,0.3-0.3,0.6-0.3c0.2,0,0.4,0.1,0.6,0.2C229.2,464.6,229.3,464.8,229.3,465.1z M229.4,470
					c0,0.6,0.1,1.1,0.4,1.5c0.3,0.3,0.7,0.5,1.2,0.5c0.4,0,0.8-0.2,1.1-0.5c0.3-0.4,0.4-0.9,0.4-1.5c0-0.4-0.1-0.8-0.2-1.1
					c-0.1-0.3-0.3-0.5-0.5-0.7c-0.2-0.2-0.5-0.3-0.8-0.3c-0.3,0-0.6,0.1-0.8,0.3c-0.2,0.2-0.4,0.4-0.6,0.7
					C229.4,469.1,229.4,469.5,229.4,470z"/>
				<path class="st16" d="M236.2,473.4l0.1-0.4l-2-5c-0.1-0.3-0.2-0.5-0.2-0.6c0-0.1,0-0.3,0.1-0.4c0.1-0.1,0.2-0.2,0.3-0.3
					c0.1-0.1,0.3-0.1,0.4-0.1c0.2,0,0.4,0.1,0.5,0.2c0.1,0.1,0.2,0.4,0.3,0.6l1.4,4l1.3-3.7c0.1-0.3,0.2-0.5,0.3-0.7
					c0.1-0.2,0.2-0.3,0.3-0.3c0.1-0.1,0.2-0.1,0.4-0.1c0.1,0,0.2,0,0.4,0.1c0.1,0.1,0.2,0.2,0.3,0.3c0.1,0.1,0.1,0.2,0.1,0.3
					c0,0.1,0,0.2-0.1,0.3c0,0.1-0.1,0.3-0.1,0.4l-2.1,5.5c-0.2,0.5-0.4,0.9-0.5,1.1c-0.2,0.3-0.4,0.5-0.7,0.6
					c-0.3,0.1-0.7,0.2-1.2,0.2c-0.5,0-0.8-0.1-1.1-0.2c-0.2-0.1-0.4-0.3-0.4-0.6c0-0.2,0.1-0.3,0.2-0.4c0.1-0.1,0.3-0.2,0.5-0.2
					c0.1,0,0.2,0,0.3,0c0.1,0,0.2,0,0.3,0c0.2,0,0.3,0,0.4-0.1c0.1-0.1,0.2-0.2,0.3-0.3C236,473.9,236.1,473.7,236.2,473.4z"/>
			</g>
			<g>
				<path class="st16" d="M259.7,466.8h0.4v-0.5c0-0.5,0.1-0.9,0.2-1.2c0.1-0.3,0.3-0.5,0.7-0.7c0.3-0.1,0.7-0.2,1.3-0.2
					c0.9,0,1.4,0.2,1.4,0.7c0,0.1,0,0.3-0.2,0.4c-0.1,0.1-0.2,0.2-0.3,0.2c-0.1,0-0.2,0-0.3,0c-0.1,0-0.3,0-0.4,0
					c-0.3,0-0.5,0.1-0.6,0.3c-0.1,0.2-0.1,0.4-0.1,0.7v0.4h0.4c0.6,0,0.9,0.2,0.9,0.6c0,0.3-0.1,0.4-0.2,0.5
					c-0.2,0.1-0.4,0.1-0.7,0.1h-0.4v4.3c0,0.3-0.1,0.6-0.2,0.7c-0.2,0.2-0.3,0.3-0.6,0.3c-0.2,0-0.4-0.1-0.6-0.3
					c-0.2-0.2-0.2-0.4-0.2-0.7v-4.3h-0.4c-0.2,0-0.4-0.1-0.6-0.2c-0.1-0.1-0.2-0.2-0.2-0.4C258.9,467,259.1,466.8,259.7,466.8"/>
				<path class="st16" d="M265,470.9v1.4c0,0.3-0.1,0.6-0.2,0.7c-0.2,0.2-0.3,0.2-0.6,0.2c-0.2,0-0.4-0.1-0.6-0.3
					c-0.1-0.2-0.2-0.4-0.2-0.7v-4.5c0-0.7,0.3-1.1,0.8-1.1c0.3,0,0.5,0.1,0.6,0.3c0.1,0.2,0.2,0.4,0.2,0.8c0.2-0.3,0.4-0.6,0.6-0.8
					c0.2-0.2,0.5-0.3,0.8-0.3c0.3,0,0.7,0.1,1,0.3c0.3,0.2,0.5,0.4,0.5,0.7c0,0.2-0.1,0.4-0.2,0.5c-0.1,0.1-0.3,0.2-0.4,0.2
					c-0.1,0-0.2,0-0.4-0.1c-0.2-0.1-0.4-0.1-0.6-0.1c-0.2,0-0.4,0.1-0.6,0.2c-0.2,0.1-0.3,0.3-0.4,0.6c-0.1,0.2-0.1,0.5-0.2,0.9
					C265,470,265,470.4,265,470.9"/>
				<path class="st16" d="M272.4,470.3h-3.2c0,0.4,0.1,0.7,0.2,1c0.1,0.3,0.3,0.5,0.6,0.6c0.2,0.1,0.5,0.2,0.8,0.2
					c0.2,0,0.4,0,0.5-0.1c0.2,0,0.3-0.1,0.5-0.2c0.2-0.1,0.3-0.2,0.4-0.3c0.1-0.1,0.3-0.3,0.5-0.4c0.1-0.1,0.2-0.1,0.4-0.1
					c0.2,0,0.3,0,0.4,0.1c0.1,0.1,0.2,0.2,0.2,0.4c0,0.1-0.1,0.3-0.2,0.5c-0.1,0.2-0.3,0.4-0.5,0.6c-0.2,0.2-0.5,0.3-0.9,0.4
					c-0.3,0.1-0.8,0.2-1.2,0.2c-1,0-1.9-0.3-2.4-0.9c-0.6-0.6-0.9-1.4-0.9-2.4c0-0.5,0.1-0.9,0.2-1.3c0.1-0.4,0.3-0.8,0.6-1.1
					c0.3-0.3,0.6-0.5,1-0.7c0.4-0.2,0.8-0.2,1.3-0.2c0.6,0,1.2,0.1,1.6,0.4c0.5,0.3,0.8,0.6,1,1c0.2,0.4,0.3,0.9,0.3,1.3
					c0,0.4-0.1,0.7-0.4,0.8C273.2,470.3,272.9,470.3,272.4,470.3 M269.3,469.4h2.9c0-0.6-0.2-1-0.4-1.2c-0.3-0.3-0.6-0.4-1-0.4
					c-0.4,0-0.7,0.1-1,0.4C269.5,468.4,269.3,468.9,269.3,469.4"/>
				<path class="st16" d="M279.2,470.3H276c0,0.4,0.1,0.7,0.2,1c0.1,0.3,0.3,0.5,0.6,0.6c0.2,0.1,0.5,0.2,0.8,0.2
					c0.2,0,0.4,0,0.5-0.1c0.2,0,0.3-0.1,0.5-0.2c0.2-0.1,0.3-0.2,0.4-0.3c0.1-0.1,0.3-0.3,0.5-0.4c0.1-0.1,0.2-0.1,0.4-0.1
					c0.2,0,0.3,0,0.4,0.1c0.1,0.1,0.2,0.2,0.2,0.4c0,0.1-0.1,0.3-0.2,0.5c-0.1,0.2-0.3,0.4-0.5,0.6c-0.2,0.2-0.5,0.3-0.9,0.4
					c-0.3,0.1-0.8,0.2-1.2,0.2c-1,0-1.8-0.3-2.4-0.9c-0.6-0.6-0.9-1.4-0.9-2.4c0-0.5,0.1-0.9,0.2-1.3c0.1-0.4,0.3-0.8,0.6-1.1
					c0.3-0.3,0.6-0.5,1-0.7c0.4-0.2,0.8-0.2,1.3-0.2c0.6,0,1.2,0.1,1.6,0.4c0.4,0.3,0.8,0.6,1,1c0.2,0.4,0.3,0.9,0.3,1.3
					c0,0.4-0.1,0.7-0.4,0.8C279.9,470.3,279.6,470.3,279.2,470.3 M276,469.4h2.9c0-0.6-0.2-1-0.4-1.2c-0.3-0.3-0.6-0.4-1-0.4
					c-0.4,0-0.7,0.1-1,0.4C276.2,468.4,276.1,468.9,276,469.4"/>
				<path class="st16" d="M282.7,467.5v0.2c0.3-0.4,0.6-0.7,1-0.8c0.3-0.2,0.7-0.3,1.1-0.3c0.5,0,1,0.1,1.4,0.4
					c0.4,0.3,0.7,0.6,1,1.1c0.2,0.5,0.4,1.1,0.4,1.8c0,0.5-0.1,1-0.2,1.4c-0.1,0.4-0.3,0.8-0.6,1c-0.2,0.3-0.5,0.5-0.9,0.7
					c-0.3,0.2-0.7,0.2-1.1,0.2c-0.5,0-0.9-0.1-1.2-0.3c-0.3-0.2-0.6-0.5-0.9-0.8v2.4c0,0.7-0.3,1.1-0.8,1.1c-0.3,0-0.5-0.1-0.6-0.3
					c-0.1-0.2-0.1-0.5-0.1-0.8v-7c0-0.3,0.1-0.5,0.2-0.7c0.1-0.1,0.3-0.2,0.6-0.2c0.2,0,0.4,0.1,0.6,0.2
					C282.7,467,282.7,467.2,282.7,467.5 M285.9,469.9c0-0.4-0.1-0.8-0.2-1.1c-0.1-0.3-0.3-0.5-0.5-0.7c-0.2-0.2-0.5-0.2-0.8-0.2
					c-0.4,0-0.8,0.2-1.1,0.5c-0.3,0.4-0.5,0.9-0.5,1.6c0,0.6,0.2,1.1,0.5,1.5c0.3,0.4,0.7,0.5,1.1,0.5c0.3,0,0.5-0.1,0.7-0.2
					c0.2-0.2,0.4-0.4,0.6-0.7C285.8,470.7,285.9,470.3,285.9,469.9"/>
				<path class="st16" d="M289.2,465.9c-0.2,0-0.4-0.1-0.6-0.2c-0.2-0.1-0.2-0.3-0.2-0.6c0-0.2,0.1-0.4,0.2-0.6
					c0.2-0.1,0.4-0.2,0.6-0.2c0.2,0,0.4,0.1,0.6,0.2c0.2,0.1,0.2,0.3,0.2,0.6c0,0.2-0.1,0.4-0.2,0.6
					C289.6,465.8,289.4,465.9,289.2,465.9 M290,467.5v4.7c0,0.3-0.1,0.6-0.2,0.7c-0.2,0.2-0.4,0.3-0.6,0.3c-0.2,0-0.4-0.1-0.6-0.3
					c-0.1-0.2-0.2-0.4-0.2-0.7v-4.6c0-0.3,0.1-0.6,0.2-0.7c0.2-0.2,0.3-0.2,0.6-0.2c0.2,0,0.4,0.1,0.6,0.2
					C289.9,467,290,467.3,290,467.5"/>
				<path class="st16" d="M295.2,472.5l-1.4-2.4l-0.9,0.8v1.3c0,0.3-0.1,0.6-0.2,0.7c-0.2,0.2-0.4,0.3-0.6,0.3
					c-0.2,0-0.4-0.1-0.6-0.3c-0.1-0.2-0.2-0.4-0.2-0.7v-6.9c0-0.4,0.1-0.6,0.2-0.8c0.1-0.2,0.3-0.3,0.6-0.3c0.2,0,0.4,0.1,0.6,0.3
					c0.1,0.2,0.2,0.4,0.2,0.8v3.9l1.8-1.9c0.2-0.2,0.4-0.4,0.5-0.5c0.1-0.1,0.3-0.1,0.4-0.1c0.2,0,0.4,0.1,0.5,0.2
					c0.1,0.1,0.2,0.3,0.2,0.5c0,0.2-0.2,0.6-0.7,1l-0.9,0.8l1.7,2.6c0.1,0.2,0.2,0.3,0.3,0.4c0.1,0.1,0.1,0.2,0.1,0.3
					c0,0.3-0.1,0.5-0.2,0.6c-0.1,0.1-0.3,0.2-0.6,0.2c-0.2,0-0.4-0.1-0.5-0.2C295.5,472.9,295.4,472.8,295.2,472.5"/>
				<path class="st16" d="M298.7,473.2c-0.2,0-0.5-0.1-0.6-0.2c-0.2-0.2-0.3-0.4-0.3-0.7c0-0.2,0.1-0.4,0.3-0.6
					c0.2-0.2,0.4-0.3,0.6-0.3c0.2,0,0.5,0.1,0.6,0.3c0.2,0.2,0.3,0.4,0.3,0.6c0,0.3-0.1,0.5-0.3,0.7
					C299.2,473.1,299,473.2,298.7,473.2"/>
				<path class="st16" d="M306.8,471.2c0,0.2-0.1,0.4-0.2,0.6c-0.1,0.2-0.3,0.4-0.6,0.7c-0.2,0.2-0.6,0.4-0.9,0.5
					c-0.4,0.1-0.8,0.2-1.3,0.2c-1,0-1.8-0.3-2.3-0.9c-0.6-0.6-0.8-1.4-0.8-2.3c0-0.7,0.1-1.3,0.4-1.8c0.3-0.5,0.6-0.9,1.1-1.2
					c0.5-0.3,1.1-0.4,1.7-0.4c0.4,0,0.8,0.1,1.2,0.2c0.4,0.1,0.6,0.3,0.9,0.5c0.2,0.2,0.4,0.4,0.6,0.6c0.1,0.2,0.2,0.4,0.2,0.6
					c0,0.2-0.1,0.4-0.2,0.5c-0.1,0.1-0.3,0.2-0.5,0.2c-0.1,0-0.2,0-0.3-0.1c-0.1-0.1-0.2-0.2-0.3-0.3c-0.2-0.3-0.4-0.5-0.6-0.7
					c-0.2-0.2-0.5-0.2-0.8-0.2c-0.5,0-0.9,0.2-1.2,0.6c-0.3,0.4-0.4,0.9-0.4,1.5c0,0.3,0,0.6,0.1,0.8c0.1,0.3,0.2,0.5,0.3,0.7
					c0.1,0.2,0.3,0.3,0.5,0.4c0.2,0.1,0.4,0.1,0.7,0.1c0.3,0,0.6-0.1,0.8-0.2c0.2-0.2,0.4-0.4,0.6-0.7c0.1-0.2,0.2-0.3,0.3-0.4
					c0.1-0.1,0.3-0.2,0.4-0.2c0.2,0,0.4,0.1,0.5,0.2C306.7,470.9,306.8,471,306.8,471.2"/>
				<path class="st16" d="M313.8,469.9c0,0.5-0.1,0.9-0.2,1.3c-0.2,0.4-0.4,0.8-0.7,1c-0.3,0.3-0.6,0.5-1,0.7
					c-0.4,0.2-0.8,0.2-1.3,0.2c-0.5,0-0.9-0.1-1.3-0.2c-0.4-0.2-0.7-0.4-1-0.7c-0.3-0.3-0.5-0.6-0.7-1c-0.1-0.4-0.2-0.8-0.2-1.3
					c0-0.5,0.1-0.9,0.2-1.3c0.2-0.4,0.4-0.8,0.6-1c0.3-0.3,0.6-0.5,1-0.7c0.4-0.2,0.8-0.2,1.3-0.2c0.5,0,0.9,0.1,1.3,0.2
					c0.4,0.2,0.7,0.4,1,0.7c0.3,0.3,0.5,0.6,0.7,1C313.7,469,313.8,469.4,313.8,469.9 M312.1,469.9c0-0.7-0.1-1.2-0.4-1.5
					c-0.3-0.4-0.7-0.6-1.2-0.6c-0.3,0-0.6,0.1-0.8,0.2c-0.2,0.2-0.4,0.4-0.6,0.7c-0.1,0.3-0.2,0.7-0.2,1.1c0,0.4,0.1,0.8,0.2,1.1
					c0.1,0.3,0.3,0.6,0.6,0.7c0.2,0.2,0.5,0.3,0.8,0.3c0.5,0,0.9-0.2,1.2-0.6C312,471.1,312.1,470.6,312.1,469.9"/>
				<path class="st16" d="M320,470v2.2c0,0.3-0.1,0.6-0.2,0.8c-0.2,0.2-0.4,0.3-0.6,0.3c-0.2,0-0.4-0.1-0.6-0.3
					c-0.2-0.2-0.2-0.4-0.2-0.8v-2.6c0-0.4,0-0.7,0-1c0-0.2-0.1-0.4-0.2-0.6c-0.1-0.1-0.3-0.2-0.6-0.2c-0.5,0-0.9,0.2-1,0.6
					c-0.2,0.4-0.3,0.9-0.3,1.6v2.2c0,0.3-0.1,0.6-0.2,0.8c-0.2,0.2-0.4,0.3-0.6,0.3c-0.2,0-0.4-0.1-0.6-0.3
					c-0.2-0.2-0.2-0.4-0.2-0.8v-4.6c0-0.3,0.1-0.5,0.2-0.7c0.1-0.2,0.3-0.2,0.6-0.2c0.2,0,0.4,0.1,0.6,0.2c0.1,0.1,0.2,0.4,0.2,0.6
					v0.2c0.3-0.3,0.6-0.6,0.9-0.7c0.3-0.2,0.7-0.2,1.1-0.2c0.4,0,0.8,0.1,1,0.2c0.3,0.2,0.5,0.4,0.7,0.7c0.3-0.3,0.6-0.6,0.9-0.7
					c0.3-0.2,0.7-0.2,1-0.2c0.4,0,0.8,0.1,1.1,0.3c0.3,0.2,0.6,0.4,0.7,0.7c0.1,0.3,0.2,0.8,0.2,1.4v3.2c0,0.3-0.1,0.6-0.2,0.8
					c-0.2,0.2-0.4,0.3-0.6,0.3c-0.2,0-0.4-0.1-0.6-0.3c-0.2-0.2-0.2-0.4-0.2-0.8v-2.7c0-0.3,0-0.6,0-0.8c0-0.2-0.1-0.4-0.2-0.5
					c-0.1-0.1-0.3-0.2-0.6-0.2c-0.2,0-0.4,0.1-0.6,0.2c-0.2,0.1-0.3,0.3-0.5,0.5C320,468.9,320,469.3,320,470"/>
			</g>
			<g>
				<path class="st16" d="M244.5,469.5C244.5,469.5,244.5,469.5,244.5,469.5C244.5,469.5,244.5,469.5,244.5,469.5z"/>
				<path class="st16" d="M244.6,470C244.6,470,244.6,470,244.6,470c0-0.1-0.1-0.3-0.1-0.4C244.5,469.8,244.6,469.9,244.6,470z"/>
				<path class="st16" d="M245.1,471.6C245.1,471.5,245.1,471.5,245.1,471.6C245.1,471.5,245.1,471.5,245.1,471.6z"/>
				<path class="st16" d="M245.1,471.5C245.1,471.4,245.1,471.4,245.1,471.5C245.1,471.4,245.1,471.4,245.1,471.5z"/>
				<path class="st16" d="M244.7,470.6c0.1,0.3,0.2,0.5,0.3,0.7C244.9,471.1,244.8,470.9,244.7,470.6
					C244.8,470.6,244.7,470.6,244.7,470.6z"/>
				<path class="st16" d="M250.8,463.3c0.3,0,0.5,0,0.8,0.1l0.1-0.5c0,0-0.7-0.2-1.7-0.1l-0.1-0.3c0.3-0.1,0.5-0.3,0.5-0.6
					c0-0.4-0.3-0.7-0.7-0.7c-0.4,0-0.7,0.3-0.7,0.7c0,0.3,0.2,0.6,0.5,0.6l0.1,0.3c-1,0.1-1.8,0.5-1.8,0.5l0.1,0.4
					c0.6-0.2,1.2-0.3,1.6-0.4C250.1,463.3,250.5,463.3,250.8,463.3z"/>
				<path class="st16" d="M245.1,465.7L245.1,465.7C245.1,465.7,245.2,465.7,245.1,465.7l-0.1-0.2l-0.3-0.2c0,0-0.5,0.5-0.9,1.3
					c0,0,0-0.1-0.1-0.1c-0.1-0.1-0.3-0.2-0.5-0.2c0,0,0,0,0,0c-0.1,0-0.2,0-0.3-0.1c0.1-0.1,0.1-0.2,0.1-0.3c0-0.2-0.2-0.4-0.4-0.4
					c-0.2,0-0.4,0.2-0.4,0.4c0,0.2,0.2,0.4,0.4,0.4c0,0,0.1,0,0.1,0c0.1,0.1,0.3,0.2,0.5,0.2c0.1,0,0.2,0,0.3,0.1
					c0.1,0.1,0.1,0.2,0.1,0.3c0,0,0,0,0,0c-0.3,0.7-0.2,1.7-0.2,1.7l0.7,0c0-0.3,0.1-0.9,0.2-1.4
					C244.7,466.3,245.1,465.8,245.1,465.7z"/>
				<path class="st16" d="M256.5,463.9c-0.2,0-0.4,0.2-0.4,0.4c0,0,0,0.1,0,0.1c-0.1,0.1-0.2,0.3-0.2,0.5c0,0.1,0,0.2-0.1,0.3
					c-0.1,0-0.1,0.1-0.2,0.1c-0.5-0.7-1.1-1.1-1.1-1.1l-0.5,0.5c0.4,0.3,0.7,0.7,1.1,1.2c0.2,0.4,0.5,0.8,0.7,1.3l0.6-0.3
					c0,0-0.3-0.7-0.7-1.4c0.1,0,0.1-0.1,0.2-0.1c0.1-0.1,0.2-0.3,0.2-0.5c0-0.1,0-0.2,0.1-0.3c0.1,0.1,0.2,0.1,0.3,0.1
					c0.2,0,0.4-0.2,0.4-0.4C257,464.1,256.8,463.9,256.5,463.9z"/>
				<path class="st16" d="M254.9,469.6c-0.9,0.4-2.3,1-4.2,1.3c-0.7,0.1-1.5,0.1-2.1,0.1c-0.9,0-1.6-0.1-2.2-0.1
					c-0.7-0.1-1.2-0.2-1.5-0.3c0.1,0.2,0.2,0.5,0.3,0.7c0,0,0,0,0,0c0,0,0,0.1,0,0.1c0,0,0,0.1,0,0.1c0,0,0,0,0,0
					c0.2,0.4,0.4,0.7,0.7,1c0.9,1,1.8,1.1,1.8,1.1l0,0l0,0c0,0,0.8,0.3,2.1,0.3c1.2,0,2.4-0.2,3.5-0.7c0.8-0.4,1.6-1.1,2-1.7
					c0.3-0.5,0.5-0.9,0.7-1.4c0.1-0.3,0.1-0.7,0.1-1.1C255.8,469.1,255.4,469.4,254.9,469.6z"/>
				<path class="st16" d="M245.4,465.9c0,0-0.4,0.6-0.7,1.4c-0.2,0.6-0.2,1.5-0.2,1.5v0c0,0.2,0,0.4,0,0.6c0,0,0,0,0,0
					c0,0,0,0.1,0,0.1c0,0.1,0,0.3,0.1,0.4c0.4,0.1,3,0.7,6,0.3c1.8-0.3,3.2-0.8,4.1-1.2c0.7-0.3,1.2-0.6,1.3-0.8
					c-0.2-0.6-0.7-1.7-1.1-2.3c-1.3-1.8-2.6-2.3-3.3-2.4c-0.3,0-0.5-0.1-0.8-0.1c-0.3,0-0.6,0-1.1,0.1c-0.5,0-1,0.2-1.6,0.4
					c-0.8,0.3-1.6,0.7-2.2,1.3l0,0C245.8,465.5,245.6,465.7,245.4,465.9z M253.1,465.5c0.6,0,1.1,0.5,1.1,1.1c0,0.6-0.5,1.1-1.1,1.1
					c-0.6,0-1.1-0.5-1.1-1.1C252,466,252.5,465.5,253.1,465.5z M247.9,465.5c1,0,1.8,0.8,1.8,1.8c0,1-0.8,1.8-1.8,1.8
					c-1,0-1.8-0.8-1.8-1.8C246.2,466.3,247,465.5,247.9,465.5z"/>
			</g>
		</g>
	</g>
</g>
<g id="Layer_4">
</g>
</svg>
