<?xml version="1.0" encoding="utf-8"?>
<!-- Generator: Adobe Illustrator 22.1.0, SVG Export Plug-In . SVG Version: 6.00 Build 0)  -->
<svg version="1.1" id="Coding_2_" xmlns="http://www.w3.org/2000/svg" xmlns:xlink="http://www.w3.org/1999/xlink" x="0px" y="0px"
	 viewBox="0 0 1200 1200" style="enable-background:new 0 0 1200 1200;" xml:space="preserve">
<style type="text/css">
	.st0{display:none;fill:#E57B5E;}
	.st1{fill:#FF916E;}
	.st2{fill:#CF7659;}
	.st3{fill-rule:evenodd;clip-rule:evenodd;fill:#4D565E;}
	.st4{fill-rule:evenodd;clip-rule:evenodd;fill:#343B42;}
	.st5{fill-rule:evenodd;clip-rule:evenodd;fill:#E6E6E6;}
	.st6{fill-rule:evenodd;clip-rule:evenodd;fill:#FDDA79;}
	.st7{fill-rule:evenodd;clip-rule:evenodd;fill:#92DEEB;}
	.st8{fill-rule:evenodd;clip-rule:evenodd;fill:#808080;}
	.st9{fill-rule:evenodd;clip-rule:evenodd;fill:#F77B55;}
	.st10{fill-rule:evenodd;clip-rule:evenodd;fill:#E6E5E5;}
	.st11{fill-rule:evenodd;clip-rule:evenodd;fill:#363F48;}
</style>
<rect id="Background" class="st0" width="1200" height="1200"/>
<g id="Coding_1_">
	<circle id="Background_3_" class="st1" cx="600" cy="600" r="525"/>
	<g id="Coding">
		<path id="Compound" class="st2" d="M840.2,261.4v43.8v2.2v2.4v41.4v2.2v2.4v41.4v2.2v2.4v41.4v2.2v2.4v43.8v2.2h-3.1h-56.3h-3.1
			h-3.3h-53.2H718h-3.1h-53.2h-3.3h-3.1h-53.2H599h-3.1h-53.4h-3.1h-3.1h-53.2H480h-3.1h-56.5h-3.1v-2.2v-43.8v-2.4v-2.2V402v-2.4
			v-2.2V356v-2.4v-2.2v-41.4v-2.4v-2.2v-43.8v-2.2h3.1h56.5h3.1h3.1h53.2h3.1h3.1h53.4h3.1h3.1h53.2h3.1h3.3h53.2h3.1h3.1h53.2h3.3
			h3.1h56.3h3.1V261.4z M833.9,309.9h-53.2v41.4h53.2V309.9z M774.3,309.9h-53.2v41.4h53.2V309.9z M714.9,309.9h-53.2v41.4h53.2
			V309.9z M655.3,309.9h-53.2v41.4h53.2V309.9z M595.9,309.9h-53.4v41.4h53.4V309.9z M536.3,309.9h-53.2v41.4h53.2V309.9z
			 M476.8,309.9h-53.4v41.4h53.4V309.9z M423.4,305.2h53.4v-41.4h-53.4V305.2z M483.1,305.2h53.2v-41.4h-53.2V305.2z M542.5,305.2
			h53.4v-41.4h-53.4V305.2z M602.1,305.2h53.2v-41.4h-53.2V305.2z M661.7,305.2h53.2v-41.4h-53.2V305.2z M721.1,305.2h53.2v-41.4
			h-53.2V305.2z M780.8,305.2h53.2v-41.4h-53.2V305.2z M833.9,356h-53.2v41.4h53.2V356z M774.3,356h-53.2v41.4h53.2V356z M714.9,356
			h-53.2v41.4h53.2V356z M655.3,356h-53.2v41.4h53.2V356z M595.9,356h-53.4v41.4h53.4V356z M536.3,356h-53.2v41.4h53.2V356z
			 M476.8,356h-53.4v41.4h53.4V356z M833.9,402h-53.2v41.4h53.2V402z M774.3,402h-53.2v41.4h53.2V402z M714.9,402h-53.2v41.4h53.2
			V402z M655.3,402h-53.2v41.4h53.2V402z M595.9,402h-53.4v41.4h53.4V402z M536.3,402h-53.2v41.4h53.2V402z M476.8,402h-53.4v41.4
			h53.4V402z M833.9,448.1h-53.2v41.4h53.2V448.1z M774.3,448.1h-53.2v41.4h53.2V448.1z M714.9,448.1h-53.2v41.4h53.2V448.1z
			 M655.3,448.1h-53.2v41.4h53.2V448.1z M595.9,448.1h-53.4v41.4h53.4V448.1z M536.3,448.1h-53.2v41.4h53.2V448.1z M476.8,448.1
			h-53.4v41.4h53.4V448.1z"/>
		<g id="Laptop">
			<path class="st3" d="M306.9,485h584.1c12,0,21.6,9.8,21.6,21.8v398.9H285.1V506.8C285.1,494.8,294.8,485,306.9,485L306.9,485z"/>
			<path class="st4" d="M188,978.7h410.7h410.9c2.2,0,1.8-1.8-0.9-3.8l-88.3-67.9c-2.7-2.2-6.9-3.8-9.1-3.8H598.8H286.4
				c-2.2,0-6.4,1.6-9.1,3.8l-88.3,67.9C186.3,976.9,185.8,978.7,188,978.7L188,978.7z"/>
			<path class="st3" d="M191.2,973.8c271.9,0,543.6,0,815.4,0c6,0,6.7,5.1,1.3,11.3l-11.1,12.5c-5.6,6.2-14.9,11.1-21.1,11.1
				c-251.2,0-502.4,0-753.6,0c-6.2,0-15.6-4.9-21.1-11.1l-11.1-12.5C184.5,979,184.9,973.8,191.2,973.8L191.2,973.8z"/>
			<polygon class="st5" points="534.9,940.9 569.4,940.9 628.4,940.9 662.9,940.9 682.2,962 609,962 588.8,962 515.6,962 			"/>
			<rect x="304.9" y="512.2" class="st5" width="588.1" height="372.2"/>
		</g>
		<g id="Circle">
			<path class="st6" d="M200.1,891.5c68.8,0,124.8-56.1,124.8-124.8c0-68.7-56.1-124.8-124.8-124.8S75.2,697.9,75.2,766.7
				C75.2,835.4,131.3,891.5,200.1,891.5L200.1,891.5z"/>
			<path class="st7" d="M929.4,627c107.2,0,194.9-87.4,194.9-194.9c0-107.2-87.7-194.7-194.9-194.7c-107.2,0-194.9,87.4-194.9,194.7
				C734.5,539.5,822.2,627,929.4,627L929.4,627z"/>
		</g>
		<g id="Codes">
			<rect x="345.8" y="582.9" class="st8" width="324.6" height="18.5"/>
			<rect x="535.1" y="619.2" class="st8" width="192.5" height="15.8"/>
			<rect x="357.1" y="652.5" class="st8" width="192.2" height="15.8"/>
			<rect x="357.1" y="722.4" class="st8" width="192.2" height="15.8"/>
			<rect x="357.1" y="750.2" class="st8" width="192.2" height="16"/>
			<rect x="566.1" y="750.2" class="st9" width="60.7" height="16"/>
			<rect x="647.9" y="750.2" class="st8" width="60.7" height="16"/>
			<rect x="571.2" y="723.3" class="st8" width="137.5" height="15.8"/>
			<rect x="592.3" y="652.5" class="st8" width="103.7" height="15.8"/>
			<rect x="370.7" y="619.2" class="st8" width="55.6" height="15.8"/>
			<rect x="450.4" y="619.2" class="st9" width="55.6" height="15.8"/>
			<rect x="705.8" y="582.9" class="st9" width="49.6" height="18.5"/>
			<rect x="357.1" y="789.4" class="st8" width="61.4" height="15.8"/>
			<rect x="439" y="789.4" class="st9" width="61.4" height="15.8"/>
			<rect x="527.3" y="789.4" class="st8" width="99.5" height="15.8"/>
		</g>
		<g id="Text">
			<path class="st3" d="M122,771.8v-10l57.6-24.5V748L134,766.7l45.6,19.1v10.7L122,771.8z M186.3,811.2l25.4-89.9h8.7l-25.4,89.9
				H186.3z M284.4,771.8L227,796.5v-10.7l45.4-19.1L227,748v-10.7l57.4,24.5V771.8z"/>
			<g>
				<polygon class="st3" points="787.9,431.8 787.9,422 832.4,398.2 832.4,408.7 797,426.9 832.4,445.6 832.4,456.1 				"/>
				<path class="st3" d="M881.8,433.2l7.3,1.1c-0.9,5.1-2.9,9.1-6.2,12c-3.3,2.9-7.6,4.2-12.5,4.2c-6,0-10.9-2-14.7-6
					c-3.8-4-5.6-9.6-5.6-17.1c0-4.9,0.9-9.1,2.4-12.7c1.6-3.6,4-6.2,7.3-8.2c3.1-1.8,6.7-2.7,10.7-2.7c4.7,0,8.7,1.3,11.8,3.8
					c3.1,2.4,5.1,6,6,10.5l-7.3,1.1c-0.7-3.1-2-5.3-3.8-6.9c-1.8-1.3-4-2.2-6.4-2.2c-3.8,0-6.9,1.3-9.4,4.2
					c-2.4,2.7-3.6,6.9-3.6,12.9c0,6,1.1,10.5,3.3,13.1c2.4,2.7,5.3,4,9.1,4c2.9,0,5.6-0.9,7.6-2.7C880,439.8,881.1,437,881.8,433.2
					L881.8,433.2z"/>
				<path class="st3" d="M892.7,427.2c0-8.2,2.4-14.5,7.1-18.2c3.8-3.3,8.4-5.1,14-5.1c6.2,0,11.1,2,15.1,6c3.8,4,5.8,9.8,5.8,16.7
					c0,5.8-0.9,10.5-2.7,13.6c-1.6,3.3-4.2,6-7.3,7.8c-3.3,1.8-7.1,2.7-10.9,2.7c-6.2,0-11.3-2-15.3-6
					C894.7,440.5,892.7,434.7,892.7,427.2L892.7,427.2z M900.5,427.2c0,5.8,1.3,10,3.8,12.9c2.7,2.9,5.8,4.2,9.6,4.2
					c3.8,0,6.9-1.3,9.3-4.2c2.7-2.9,3.8-7.1,3.8-13.1c0-5.6-1.3-9.6-3.8-12.5c-2.4-2.9-5.6-4.2-9.3-4.2c-3.8,0-6.9,1.3-9.6,4.2
					C901.8,417.1,900.5,421.6,900.5,427.2L900.5,427.2z"/>
				<path class="st3" d="M972.6,449.6v-5.6c-2.7,4.2-6.9,6.4-12.5,6.4c-3.6,0-6.9-0.9-9.8-2.9c-3.1-2-5.3-4.7-7.1-8.2
					c-1.6-3.6-2.4-7.6-2.4-12.2c0-4.5,0.9-8.5,2.2-12c1.6-3.6,3.8-6.5,6.9-8.5c2.9-1.8,6.2-2.9,9.8-2.9c2.9,0,5.1,0.7,7.3,1.8
					c2,1.1,3.8,2.7,5.1,4.5v-22.3h7.6v61.9H972.6z M948.5,427.4c0,5.6,1.3,10,3.8,12.7c2.5,2.9,5.3,4.2,8.5,4.2c3.3,0,6.2-1.3,8.5-4
					c2.4-2.7,3.6-6.9,3.6-12.5c0-6-1.1-10.5-3.6-13.4c-2.2-2.9-5.3-4.2-8.7-4.2c-3.3,0-6.2,1.3-8.5,4
					C949.6,416.9,948.5,421.4,948.5,427.4L948.5,427.4z"/>
				<path class="st3" d="M1022.4,435.2l7.8,0.9c-1.1,4.7-3.6,8.2-6.9,10.7c-3.3,2.7-7.6,3.8-12.7,3.8c-6.7,0-11.8-2-15.6-6
					c-3.8-4-5.8-9.6-5.8-16.9c0-7.6,2-13.4,5.8-17.6c3.8-4,8.9-6.2,15.1-6.2c6,0,10.9,2,14.7,6.2c3.8,4,5.6,9.8,5.6,17.1
					c0,0.4,0,1.1,0,2H997c0.2,4.9,1.6,8.7,4.2,11.3c2.5,2.7,5.6,3.8,9.3,3.8c2.7,0,5.1-0.7,7.1-2.2
					C1019.7,440.7,1021.3,438.3,1022.4,435.2L1022.4,435.2z M997.5,422.9h24.9c-0.2-3.8-1.3-6.7-2.9-8.5c-2.5-2.9-5.6-4.4-9.4-4.4
					c-3.6,0-6.5,1.1-8.7,3.6C999,415.8,997.7,418.9,997.5,422.9L997.5,422.9z"/>
				<polygon class="st3" points="1092.9,431.8 1048.4,456.1 1048.4,445.6 1083.6,426.9 1048.4,408.7 1048.4,398.2 1092.9,422 				
					"/>
			</g>
		</g>
		<g id="Gears_1_">
			<path class="st5" d="M310.2,359.1c6.7,3.6,12.5,8.5,17.1,14.2l21.4-7.8l12,33.2l-21.4,7.8c0.2,3.6-0.2,7.3-0.9,11.1
				c-0.7,3.8-1.6,7.3-2.9,10.7l17.4,14.7l-22.7,26.9l-17.4-14.5c-6.2,3.8-13.3,6.5-20.9,7.6l-4,22.2l-34.5-6l3.8-22.5
				c-6.7-3.6-12.5-8.5-17.1-14.2l-21.1,7.8l-12.2-33.2l21.4-7.8c0-3.6,0.2-7.3,0.9-11.1c0.7-3.8,1.8-7.3,3.1-10.7l-17.6-14.7
				l22.7-26.9l17.3,14.7c6.5-4,13.6-6.7,20.9-7.8l4-22.3l34.7,6L310.2,359.1z"/>
			<path class="st10" d="M544.3,286.1c5.8,9.6,9.3,20,10.9,30.9l32.7,6.2l-9.6,50.5l-32.7-6c-2.7,4.7-5.8,9.1-9.3,13.3
				c-3.6,4.2-7.6,8-11.8,11.3l10.9,31.4L486.6,441l-10.9-31.4c-10.9,0.2-21.8-1.8-32-6l-21.8,25.1l-39.2-33.6l21.8-25.1
				c-5.8-9.6-9.3-20-10.9-30.9l-32.7-6l9.6-50.7l32.7,6c2.7-4.7,5.8-9.1,9.3-13.3c3.8-4.2,7.6-8,12-11.4l-11.1-31.4l48.7-17.1
				l10.9,31.4c10.9,0,21.8,1.8,32.3,6l21.6-25.1l39.2,33.6L544.3,286.1z"/>
			<path class="st11" d="M286.8,390.7c9.6,1.6,16,10.7,14.2,20.3c-1.6,9.6-10.7,16-20.2,14.2c-9.6-1.6-16-10.7-14.5-20.2
				C268.1,395.3,277.3,388.9,286.8,390.7L286.8,390.7z M289.7,373.8c18.9,3.3,31.4,21.4,28,40.3c-3.1,18.7-21.1,31.4-40,28
				c-18.7-3.3-31.4-21.4-28-40C253,383.1,271,370.4,289.7,373.8L289.7,373.8z"/>
			<path class="st11" d="M491.3,308.6c10.7,9.1,12,25.6,2.7,36.3c-9.3,10.9-25.6,12-36.3,2.7c-10.9-9.1-12.2-25.4-2.9-36.3
				C464.2,300.6,480.4,299.2,491.3,308.6L491.3,308.6z M507.5,289.7c21.1,18.2,23.6,50.3,5.3,71.4c-18.2,21.4-50.3,23.8-71.4,5.6
				c-21.4-18.2-23.8-50.3-5.6-71.6C454.1,273.6,486.2,271.4,507.5,289.7L507.5,289.7z"/>
		</g>
	</g>
</g>
</svg>
