<?xml version="1.0" encoding="utf-8"?>
<!-- Generator: Adobe Illustrator 22.1.0, SVG Export Plug-In . SVG Version: 6.00 Build 0)  -->
<svg version="1.1" xmlns="http://www.w3.org/2000/svg" xmlns:xlink="http://www.w3.org/1999/xlink" x="0px" y="0px"
	 viewBox="0 0 500 500" style="enable-background:new 0 0 500 500;" xml:space="preserve">
<style type="text/css">
	.st0{display:none;}
	.st1{display:inline;fill:#00CFFF;}
	.st2{display:inline;fill:#E8FBFF;}
	.st3{display:inline;fill:#BAF1FF;}
	.st4{display:inline;fill:#FFFFFF;}
	.st5{display:inline;fill:#DEDEDE;}
	.st6{display:inline;}
	.st7{fill:#99BFC9;}
	.st8{fill:#779AA3;}
	.st9{fill:#DEDEDE;}
	.st10{fill:#003757;}
	.st11{fill:#005C91;}
	.st12{fill:#133447;}
	.st13{fill:#1E5370;}
	.st14{fill:#003C5E;}
	.st15{fill:#5498BF;}
	.st16{fill:#BAF1FF;}
	.st17{fill:#99D0DE;}
	.st18{fill:#E8FBFF;}
	.st19{fill:#FFFFFF;}
	.st20{fill:#8BC9D9;}
	.st21{fill:#FF9CBD;}
	.st22{opacity:0.15;}
	.st23{fill:#0E2533;}
	.st24{fill:#FFBE8F;}
	.st25{font-family:'Comfortaa-Thin';}
	.st26{font-size:10.7099px;}
	.st27{fill:#004973;}
	.st28{fill:#FF595F;}
	.st29{fill:#CC3F44;}
	.st30{fill:#70C6DB;}
	.st31{fill:#00CFFF;}
	.st32{fill:#B8B8B8;}
</style>
<g id="BACKGROUND" class="st0">
	<rect class="st1" width="500" height="500"/>
	<path class="st2" d="M168.5,187.1H11.8c0,0,16.6,0.9,18.9-16.6c2.3-17.6,22.6-24.8,37.4-14.5c14.8,10.3,23.6,4.9,32.4,0
		c8.8-4.9,19.4-1.7,26.8,9.4c7.4,11.1,13.2,11.9,21.3,10.2C158.8,173.4,161.6,186.6,168.5,187.1z"/>
	<path class="st2" d="M298,60h156.7c0,0-16.6,0.9-18.9-16.6c-2.3-17.6-22.6-24.8-37.4-14.5c-14.8,10.3-23.6,4.9-32.4,0
		c-8.8-4.9-19.4-1.7-26.8,9.4c-7.4,11.1-13.2,11.9-21.3,10.2C307.7,46.3,304.9,59.5,298,60z"/>
	<path class="st3" d="M279.5,90.1h-222c0,0,23.6,1.3,26.9-23.6c3.3-24.9,32.1-35.1,53.1-20.5c21,14.6,33.4,7,45.8,0
		c12.4-7,27.5-2.4,38,13.3c10.5,15.7,18.7,16.8,30.1,14.4C265.7,70.6,269.7,89.4,279.5,90.1z"/>
	<rect y="297.3" class="st4" width="500" height="202.7"/>
	<path class="st5" d="M248.1,453c-0.2,3.5-40.7,4.2-90.4,1.5c-49.8-2.7-90-7.7-89.8-11.2c0.2-3.5,40.7-4.2,90.4-1.5
		C208.1,444.5,248.3,449.5,248.1,453z"/>
	<g class="st6">
		<path class="st7" d="M235.6,454L89.1,440.1l-31-10.1l0,0l32.3-4.1L237,439.8c5.3,0.5,8.5,4,8.1,7.9l0,0
			C244.7,451.6,240.9,454.5,235.6,454z"/>
		<path class="st8" d="M236,450L89.5,436.1l-31.4-6.1l0,0L90,430l146.5,13.8c5.3,0.5,8.7,2.2,8.5,3.9l0,0
			C244.9,449.4,241.3,450.5,236,450z"/>
		<polygon class="st9" points="89.1,440.1 58.1,430.1 58.1,430.1 90.4,426 		"/>
		<polygon class="st10" points="73,428.2 58.1,430.1 72.4,434.7 		"/>
		
			<rect x="217" y="438.9" transform="matrix(0.9956 9.406284e-02 -9.406284e-02 0.9956 42.9555 -19.3458)" class="st11" width="19.3" height="14.2"/>
		
			<rect x="223.7" y="438.9" transform="matrix(0.9956 9.406289e-02 -9.406289e-02 0.9956 42.9555 -19.3458)" class="st10" width="6.1" height="14.2"/>
	</g>
</g>
<g id="OBJECTS">
	<ellipse class="st9" cx="73.5" cy="331.2" rx="55.8" ry="9.2"/>
	<ellipse class="st9" cx="433" cy="327.2" rx="55.8" ry="9.2"/>
	<ellipse class="st9" cx="408" cy="448.4" rx="46.6" ry="9.2"/>
	<path class="st9" d="M397.4,426c0,4-16.5,7.2-36.8,7.2c-20.3,0-36.8-3.2-36.8-7.2c0-4,16.5-7.2,36.8-7.2
		C380.9,418.7,397.4,422,397.4,426z"/>
	<ellipse class="st9" cx="93" cy="409.8" rx="46.6" ry="9.2"/>
	<ellipse class="st9" cx="289.1" cy="440" rx="46.6" ry="9.2"/>
	<ellipse class="st9" cx="262" cy="405.2" rx="138.9" ry="17.2"/>
	<g>
		<path class="st12" d="M110.9,279.7c0-5.7-1.2-11.2-3.3-16.2l10.1-4.2c-2.7-6.5-6.6-12.3-11.6-17.2l-7.7,7.8
			c-3.9-3.9-8.6-7-13.8-9.1l4.2-10.1c-6.4-2.6-13.2-4-20.2-4h-0.1l0.1,10.9c-5.8,0-11.2,1.2-16.2,3.3L48,230.7
			c-6.5,2.7-12.3,6.6-17.2,11.6l7.7,7.7c-3.9,3.9-7,8.6-9.1,13.7l-10.1-4.2c-2.7,6.4-4,13.3-4,20.3l0,0.3l10-0.2h0.9
			c0,5.7,1.2,11.2,3.2,16.2l-10.1,4.2c2.7,6.5,6.6,12.3,11.6,17.2l7.7-7.7c3.9,3.9,8.6,7,13.7,9.2l-4.2,10.1c6.5,2.7,13.3,4,20.3,4
			h0.5l0.5,0l-1-10.9v0c5.7,0,11.2-1.2,16.2-3.2l4.2,10.1c6.5-2.7,12.3-6.6,17.3-11.6l-7.7-7.7c3.9-3.9,7-8.6,9.2-13.7l10.1,4.2
			c2.7-6.5,4-13.3,4-20.5L110.9,279.7z M68.6,300.1c-11.2,0-20.3-9.1-20.3-20.3c0-11.2,9.1-20.3,20.3-20.3s20.3,9.1,20.3,20.3
			C88.8,291.1,79.7,300.1,68.6,300.1z"/>
		<path class="st13" d="M68.6,237.5c-23.4,0-42.3,19-42.3,42.3c0,23.4,19,42.3,42.3,42.3c23.4,0,42.3-19,42.3-42.3
			C110.9,256.5,91.9,237.5,68.6,237.5z M68.6,300.1c-11.2,0-20.3-9.1-20.3-20.3c0-11.2,9.1-20.3,20.3-20.3s20.3,9.1,20.3,20.3
			C88.8,291.1,79.7,300.1,68.6,300.1z"/>
		
			<ellipse transform="matrix(0.7071 -0.7071 0.7071 0.7071 -177.826 130.454)" class="st12" cx="68.6" cy="279.9" rx="12.4" ry="12.4"/>
	</g>
	<g>
		<path class="st14" d="M474.8,282.8c0.9-5.7,0.5-11.3-0.8-16.5l10.6-2.6c-1.7-6.8-4.7-13.1-8.9-18.8l-8.8,6.5
			c-3.3-4.4-7.4-8.2-12.2-11.1l5.6-9.4c-5.9-3.6-12.5-5.9-19.4-7l-0.1,0l-1.6,10.8c-5.7-0.9-11.3-0.6-16.6,0.8l-2.6-10.6
			c-6.8,1.7-13.1,4.7-18.8,8.8l6.5,8.8c-4.4,3.3-8.2,7.4-11.1,12.2l-9.4-5.6c-3.6,6-6,12.5-7,19.4l0,0.3l9.9,1.4l0.9,0.1
			c-0.9,5.7-0.6,11.2,0.7,16.5l-10.6,2.6c1.7,6.8,4.6,13.1,8.8,18.8l8.8-6.5c3.3,4.4,7.4,8.2,12.2,11.1l-5.7,9.3
			c6,3.6,12.5,6,19.5,7.1l0.5,0.1l0.5,0l0.7-10.9l0,0c5.7,0.9,11.2,0.6,16.5-0.7l2.6,10.6c6.8-1.7,13.1-4.6,18.8-8.8l-6.5-8.8
			c4.4-3.3,8.2-7.4,11.2-12.2l9.3,5.7c3.6-6,6-12.6,7.1-19.6L474.8,282.8z M428.5,305.6c-16-2.5-27-17.5-24.6-33.5
			c2.5-16,17.5-27,33.5-24.6s27,17.5,24.6,33.5S444.5,308,428.5,305.6z"/>
		<path class="st12" d="M439.4,234.7c-23.1-3.6-44.7,12.3-48.3,35.4c-3.6,23.1,12.3,44.7,35.4,48.3c23.1,3.6,44.7-12.3,48.3-35.4
			C478.4,259.9,462.5,238.3,439.4,234.7z M428.5,305.6c-16-2.5-27-17.5-24.6-33.5c2.5-16,17.5-27,33.5-24.6
			c16,2.5,27,17.5,24.6,33.5S444.5,308,428.5,305.6z"/>
	</g>
	<g>
		<polygon class="st10" points="335.9,379 164.1,379 174.8,333.7 325.2,333.7 		"/>
		<path class="st11" d="M344.3,405.9H155.7c-8.8,0-16-7.2-16-16l0,0c0-8.8,7.2-16,16-16h188.7c8.8,0,16,7.2,16,16l0,0
			C360.4,398.6,353.2,405.9,344.3,405.9z"/>
		<path class="st10" d="M344.3,392.5H155.7c-6.4,0-12-3.9-14.6-9.4c-0.9,2-1.5,4.3-1.5,6.7l0,0c0,8.8,7.2,16,16,16h188.7
			c8.8,0,16-7.2,16-16l0,0c0-2.4-0.5-4.6-1.5-6.7C356.3,388.7,350.8,392.5,344.3,392.5z"/>
		<path class="st15" d="M274.8,382H177c-1.1,0-2.1-0.9-2.1-2.1l0,0c0-1.1,0.9-2.1,2.1-2.1h97.8c1.1,0,2.1,0.9,2.1,2.1l0,0
			C276.9,381.1,276,382,274.8,382z"/>
		<path class="st15" d="M323,382h-35.3c-1.1,0-2.1-0.9-2.1-2.1l0,0c0-1.1,0.9-2.1,2.1-2.1H323c1.1,0,2.1,0.9,2.1,2.1l0,0
			C325,381.1,324.1,382,323,382z"/>
		<path class="st11" d="M424.7,336.2H75.3c-4.5,0-8.2-3.7-8.2-8.2V119.8c0-4.5,3.7-8.2,8.2-8.2h349.5c4.5,0,8.2,3.7,8.2,8.2V328
			C433,332.5,429.3,336.2,424.7,336.2z"/>
		<path class="st14" d="M419.2,306.2H80.8c-3.8,0-7-3.1-7-7V133.1c0-3.8,3.1-7,7-7h338.4c3.8,0,7,3.1,7,7v166.1
			C426.2,303,423.1,306.2,419.2,306.2z"/>
		<path class="st16" d="M416.3,303.1H83.7c-3.7,0-6.8-3.1-6.8-6.8V136c0-3.7,3.1-6.8,6.8-6.8h332.5c3.7,0,6.8,3.1,6.8,6.8v160.4
			C423.1,300.1,420,303.1,416.3,303.1z"/>
		<path class="st17" d="M99,303.1H401l8.9-173.8c-0.4-0.1-0.8-0.1-1.2-0.1H91.4c-0.4,0-0.8,0-1.2,0.1L99,303.1z"/>
		
			<ellipse transform="matrix(0.9021 -0.4314 0.4314 0.9021 -114.0744 139.2822)" class="st18" cx="250" cy="321.1" rx="8.4" ry="8.4"/>
		<path class="st10" d="M255.7,321.1c0,3.2-2.6,5.7-5.7,5.7c-3.2,0-5.7-2.6-5.7-5.7c0-3.2,2.6-5.7,5.7-5.7
			C253.2,315.4,255.7,318,255.7,321.1z"/>
		<rect x="99.1" y="78.6" class="st19" width="301.9" height="224.5"/>
		<path class="st11" d="M271.6,236h-12.1c-2.9,0-5.2-2.3-5.2-5.2v-12.1c0-2.9,2.3-5.2,5.2-5.2h12.1c2.9,0,5.2,2.3,5.2,5.2v12.1
			C276.8,233.6,274.5,236,271.6,236z"/>
		<path class="st16" d="M308.7,236h-12.1c-2.9,0-5.2-2.3-5.2-5.2v-12.1c0-2.9,2.3-5.2,5.2-5.2h12.1c2.9,0,5.2,2.3,5.2,5.2v12.1
			C313.9,233.6,311.5,236,308.7,236z"/>
		<path class="st20" d="M382.8,236h-12.1c-2.9,0-5.2-2.3-5.2-5.2v-12.1c0-2.9,2.3-5.2,5.2-5.2h12.1c2.9,0,5.2,2.3,5.2,5.2v12.1
			C388,233.6,385.6,236,382.8,236z"/>
		<path class="st21" d="M345.7,236h-12.1c-2.9,0-5.2-2.3-5.2-5.2v-12.1c0-2.9,2.3-5.2,5.2-5.2h12.1c2.9,0,5.2,2.3,5.2,5.2v12.1
			C350.9,233.6,348.6,236,345.7,236z"/>
		<polygon class="st16" points="194.6,274.4 178.9,274.4 172.9,303.1 201.5,303.1 		"/>
		<rect x="112.3" y="216.1" class="st16" width="33.6" height="87"/>
		<polygon class="st16" points="175.6,303.1 142,303.1 153.5,256.3 169,256.3 		"/>
		<rect x="112" y="140.7" class="st21" width="133.8" height="62"/>
		<circle class="st19" cx="143" cy="171.7" r="19.2"/>
		<path class="st11" d="M141.6,180.7L141.6,180.7c-0.9,0.9-2.5,0.9-3.4,0l-6.9-6.9c-0.9-0.9-0.9-2.5,0-3.4l0,0
			c0.9-0.9,2.5-0.9,3.4,0l6.9,6.9C142.5,178.2,142.5,179.7,141.6,180.7z"/>
		<path class="st11" d="M138.2,180.5L138.2,180.5c-0.9-0.9-0.9-2.5,0-3.4l12-12c0.9-0.9,2.5-0.9,3.4,0l0,0c0.9,0.9,0.9,2.5,0,3.4
			l-12,12C140.7,181.5,139.2,181.5,138.2,180.5z"/>
		<rect x="254.4" y="140.7" class="st16" width="133.8" height="62"/>
		<rect x="103.1" y="83" class="st16" width="293.7" height="14.2"/>
		<rect x="167.1" y="87.1" class="st20" width="165.8" height="5.9"/>
		<g>
			<g>
				<path class="st19" d="M384.6,93.8L384.6,93.8c-0.3-0.3-0.3-0.7,0-0.9l6.6-6.6c0.3-0.3,0.7-0.3,0.9,0l0,0c0.3,0.3,0.3,0.7,0,0.9
					l-6.6,6.6C385.3,94.1,384.9,94.1,384.6,93.8z"/>
				<path class="st19" d="M392.1,93.8L392.1,93.8c0.3-0.3,0.3-0.7,0-0.9l-6.6-6.6c-0.3-0.3-0.7-0.3-0.9,0l0,0
					c-0.3,0.3-0.3,0.7,0,0.9l6.6,6.6C391.4,94.1,391.9,94.1,392.1,93.8z"/>
			</g>
			<g>
				<path class="st19" d="M375.3,86.7c1.9,0,3.4,1.5,3.4,3.4c0,1.9-1.5,3.4-3.4,3.4c-1.9,0-3.4-1.5-3.4-3.4
					C371.9,88.2,373.5,86.7,375.3,86.7 M375.3,85.7c-2.4,0-4.4,2-4.4,4.4s2,4.4,4.4,4.4c2.4,0,4.4-2,4.4-4.4S377.8,85.7,375.3,85.7
					L375.3,85.7z"/>
			</g>
			<g>
				<path class="st19" d="M366.3,93.8h-8c-0.3,0-0.5-0.2-0.5-0.5c0-0.3,0.2-0.5,0.5-0.5h8c0.3,0,0.5,0.2,0.5,0.5
					C366.8,93.6,366.6,93.8,366.3,93.8z"/>
			</g>
		</g>
		<g>
			<g>
				<path class="st19" d="M116.3,93.5h-8c-0.3,0-0.5-0.2-0.5-0.5c0-0.3,0.2-0.5,0.5-0.5h8c0.3,0,0.5,0.2,0.5,0.5
					C116.8,93.3,116.6,93.5,116.3,93.5z"/>
			</g>
		</g>
		<g>
			<g>
				<path class="st19" d="M116.3,90.6h-8c-0.3,0-0.5-0.2-0.5-0.5c0-0.3,0.2-0.5,0.5-0.5h8c0.3,0,0.5,0.2,0.5,0.5
					C116.8,90.4,116.6,90.6,116.3,90.6z"/>
			</g>
		</g>
		<g>
			<g>
				<path class="st19" d="M116.3,87.7h-8c-0.3,0-0.5-0.2-0.5-0.5c0-0.3,0.2-0.5,0.5-0.5h8c0.3,0,0.5,0.2,0.5,0.5
					C116.8,87.4,116.6,87.7,116.3,87.7z"/>
			</g>
		</g>
		<path class="st19" d="M229.2,175.4h-56.1c-1.5,0-2.7-1.2-2.7-2.7l0,0c0-1.5,1.2-2.7,2.7-2.7h56.1c1.5,0,2.7,1.2,2.7,2.7l0,0
			C231.9,174.2,230.7,175.4,229.2,175.4z"/>
		<path class="st19" d="M229.2,163.4h-56.1c-1.5,0-2.7-1.2-2.7-2.7l0,0c0-1.5,1.2-2.7,2.7-2.7h56.1c1.5,0,2.7,1.2,2.7,2.7l0,0
			C231.9,162.2,230.7,163.4,229.2,163.4z"/>
		<path class="st19" d="M229.2,187.4h-56.1c-1.5,0-2.7-1.2-2.7-2.7l0,0c0-1.5,1.2-2.7,2.7-2.7h56.1c1.5,0,2.7,1.2,2.7,2.7l0,0
			C231.9,186.2,230.7,187.4,229.2,187.4z"/>
		<path class="st22" d="M176.7,260.9h-2.9v-0.2c0-1-0.8-1.8-1.8-1.8h-13.8c-1,0-1.8,0.8-1.8,1.8v2c0,1,0.8,1.8,1.8,1.8h13.8
			c1,0,1.8-0.8,1.8-1.8v-0.2h2v5h-10.7c-0.5,0-0.8,0.4-0.8,0.8v6.4c-1,0.4-1.8,1.3-1.8,2.5v4c-0.6,0.4-1.3,0.9-2.2,1.4
			c-1.6,0.9-2.3,1.9-2.5,2.7c-4.9,1.2-11.5,2.8-17.5,3.9c-7.1,1.3-13.4,1.9-15.1,2.1c-0.3,0-0.5,0.1-0.8,0.1c-0.3-0.4-0.7-0.7-1.1-1
			c0,0-5.4,1-9.6,1.7c-0.3,0.1-1.7,0.4-3.7,0.7c-0.1-0.7-0.1-1.3-0.1-1.7c1.5-0.5,2.8-1.5,3.7-3.1c3.9-6.9,2.4-13.3,0.2-17.6l0,0
			c0,0-2.7-11.4-15.7-7.9c-8.7,2.3-11,18.2-11.5,28.4c-0.3-0.2-0.6-0.3-0.9-0.5c-2.1-1.3-4.6-3.2-6.7-5.7c-2.2-2.5-3.9-5.6-5-8.8
			c-0.8-2.2-1.3-4.5-1.6-6.5c0.7-0.6,1.4-1.7,1.4-3.8c-0.1-4.1,0.6-5.2,1.1-5.9c0.5-0.7-1.2-1.8-2.4,1c-1.2,2.8-1.2,2.8-1.2,2.8
			s-1.6-6.1-3.6-7.9c-0.3-0.2-0.5-0.3-0.8-0.3v13.5c0.3,0.3,0.6,0.5,1,0.7c-0.2,2.3-0.2,5,0.2,7.9c0.3,2,0.9,4.1,1.6,6.2
			c0.8,2.1,1.8,4,3,5.8c2.4,3.6,5.5,6.4,8.1,8.3c2.6,1.9,4.8,2.9,5.7,3.3c0.4,0.2,0.8,0.3,1.1,0.4c-0.1,0.6-0.2,1.3-0.3,1.9
			c0,0,2.2,0.9,6.6,1.4c0,0,9.5,6.6,3.2,21c-1.6,3.6-2.9,7.1-4,10.5H123c-1-3.7-2.1-7.3-3.6-10.5c-5.2-11.3,1.6-13.5,1.8-21.3
			c0,0,3.1-0.2,5-1.9c0,0,0.2-0.9,0.2-2.3c1.9-0.2,8.5-1.3,15.7-3.5c6.2-1.9,12.6-4.6,17.2-7.1c0.7,0.4,1.8,0.7,3.3,0.6v2.7
			c0,1.5,1.2,2.6,2.6,2.6c1.5,0,2.6-1.2,2.6-2.6V289c3.6-1.7,6.3-5.3,4.2-6.1c-1-0.4-2.6-0.3-4.2-0.1v-5.5c0-1.2-0.8-2.1-1.8-2.5
			v-5.6h10.7c0.5,0,0.8-0.4,0.8-0.8v-6.7C177.6,261.2,177.2,260.9,176.7,260.9z"/>
		<path class="st22" d="M397.5,138.5c-2.4,1.2-5.4,6.7-5.4,6.7s0,0-0.5-3c-0.5-3-2.4-2.4-2.1-1.6c0.4,0.8,0.7,2.1-0.3,6
			c-0.5,2.1-0.1,3.3,0.5,4.1c-0.8,1.9-1.8,3.9-3.1,5.9c-1.8,2.8-4.2,5.4-6.9,7.3c-2.5,1.8-5.2,2.9-7.4,3.6c-0.6-1.6-1-2.6-1-2.6
			c-5.7,4.9-12.2,5.8-17.2,5.6c0.4-2.6,0.4-4.5,0.3-6c0.6-0.2,1.1-0.5,1.7-0.8c0.6-0.3,1.2-0.7,1.7-1c3.2-0.9,5.7-4,7.4-7.2
			c2.7-5.2,2.6-12.8-3.2-17c-5.6-4.1-10.4-3.9-17.5-3.6c0,0-1.8,3.3,0.5,7.4c-3.8,3.2-7.8,9-6,17.5c0.7,3.4,3.6,5.4,7.3,5.9
			c0,0.8-0.1,1.9-0.3,3.3c-0.2-0.1-0.4-0.1-0.5-0.1c-4.2-0.7-13.4-6-13.4-6c-1.1,0.6-2.2,1.7-3.1,2.9c-0.2-0.2-0.4-0.4-0.7-0.6
			c-1.6-1.6-3.2-4-4.5-6.9c-0.3-0.7-0.6-1.5-0.9-2.3c-0.2-0.8-0.4-1.6-0.6-2.4c-0.1-0.4-0.2-0.8-0.3-1.2l-0.2-1.2
			c-0.1-0.4-0.1-0.8-0.2-1.2c-0.1-0.4-0.1-0.8-0.1-1.2c-0.1-0.8-0.1-1.6-0.2-2.4c-0.1-0.8-0.1-1.6-0.1-2.3c0-0.6,0-1.1,0-1.7
			c0.8-0.4,1.7-1.4,2-3.5c0.5-4.1,1.4-5.1,2-5.7c0.6-0.6-0.9-2-2.5,0.5c-0.5,0.9-0.9,1.4-1.1,1.8c-0.5,0.7-0.5,0.7-0.5,0.7
			s-0.7-6.4-2.5-8.5c-1.8-2.2-4.9,3.7-4.2,8.4c0.5,3,1.2,4.7,2.2,5.7c-0.1,0.5-0.3,1-0.4,1.5c-0.3,0.8-0.4,1.6-0.5,2.5
			c-0.1,0.9-0.3,1.8-0.4,2.7c-0.1,0.5-0.1,1-0.1,1.4c0,0.5,0,1,0,1.5c0,0.5,0,1,0,1.5c0,0.5,0,1,0.1,1.5c0.1,1,0.3,2.1,0.4,3.1
			c0.2,1,0.5,2.1,0.7,3.1c1.1,4,3.2,7.7,5.3,10.2c1.1,1.2,2,2.2,2.9,3c-0.3,0.7-0.4,1.1-0.4,1.1v0c1.6,1.6,3.6,2.8,5.5,3.7
			c0.8,0.4,1.5,0.7,2.3,0.9c0.7,0.3,1.4,0.5,2.1,0.7c1,0.3,1.8,0.5,2.5,0.6c0.4,0.1,0.8,0.2,1,0.2c0.2,0,0.4,0.1,0.4,0.1
			c0.2,4.3,0,8.5-0.3,12.4c-0.1,1.1-0.2,2.2-0.3,3.3c-0.1,0.5-0.1,1.1-0.2,1.6c-0.4,3.1-0.9,6-1.4,8.5c-0.1,0.4-0.2,0.8-0.3,1.2
			c-0.2,0.8-0.3,1.6-0.5,2.3c-0.1,0.2-0.1,0.4-0.2,0.6l-1,0l-0.1-8.2c0-0.9-0.8-1.7-1.7-1.7c-0.9,0-1.7,0.7-1.7,1.7l0.4,22.3l0,0v0
			L332,311l0.2,12.2v0l0,0l0.2,13h49.2l0-0.9v0l0,0l-0.4-36.3v0v0l-0.1-12.2l0,0c0,0,0,0,0,0l-0.1-12.2l0,0v0l-0.1-12.2v0l0,0
			l-0.1-12.3v0l0,0l-0.1-12.3v0l0,0l-0.3-24.7v0v0l-0.1-9.8c0-0.9-0.8-1.7-1.7-1.7c-0.9,0-1.7,0.7-1.7,1.6l0.1,8.2l-5.3-0.1
			c-0.2-0.5-0.5-1.1-0.7-1.7c-0.6-1.5-1.2-3-1.6-4.6c-0.5-1.5-0.9-3.1-1.3-4.6c-2.4-10-2.3-18.8-2.3-18.8c0.3,0,0.6,0,0.9,0
			c0.9,0,1.7-0.1,2.6-0.3c2.5-0.5,4.7-1.5,5.6-2c0.3-0.2,0.5-0.3,0.5-0.3c-0.1-1.1-0.3-2.3-0.6-3.3c0,0,0.1,0,0.1,0
			c3-1.1,6.7-3,9.9-6c1.6-1.4,3.1-3.1,4.3-4.9c1.2-1.8,2.3-3.7,3-5.5c1.1-2.7,1.7-5.3,2.1-7.6c1.7-0.5,3.5-1.9,3.9-4.4
			C398.7,143.4,399.9,137.3,397.5,138.5z M361.5,256.5l-12.1,0c-0.1-2.9-0.2-6-0.3-9.2l11.2,0C360.7,250.5,361.1,253.6,361.5,256.5z
			 M358.9,238.5c0.3,1.8,0.6,3.6,0.8,5.5l-10.8,0c-0.1-2-0.1-4-0.1-6c0-1.1,0-2.1,0-3.2l9.6,0C358.6,236.1,358.8,237.3,358.9,238.5z
			 M349,224.6c0-0.8,0.1-1.5,0.1-2.1l0.7,0c0.7,0.1,1.4,0.2,2.2,0.2c1.1,0,2.1-0.1,3.1-0.2l1,0c0.2,0.9,0.4,2,0.6,3.1
			c0.3,1.8,0.7,3.8,1.1,5.9l-9,0C348.9,229,348.9,226.7,349,224.6z M332.8,210.4l0-0.2l0.1,0C332.9,210.3,332.8,210.3,332.8,210.4z
			 M333,219.2l-0.1-5.2c1.6,0.5,3.1,1,4.6,1.4c0,0.1,0,0.2,0,0.3c0,0.1,0,0.3,0,0.5c0,0.1,0,0.2,0,0.3c0,0.1,0,0.1,0,0.2
			c-0.1,0.7-0.1,1.5-0.1,2.5L333,219.2z M333.3,231.6l-0.2-9.1l4.1,0c0,0.6,0,1.1,0,1.7c0.1,2.2,0.2,4.7,0.4,7.3L333.3,231.6z
			 M333.4,234.9l4.6,0c0.1,1.2,0.3,2.4,0.4,3.7c0.2,1.8,0.5,3.6,0.8,5.4l-5.6,0L333.4,234.9z M333.6,247.4l6.1,0
			c0.6,3.1,1.2,6.3,1.8,9.2l-7.7,0L333.6,247.4z M333.9,260l8.4,0c0.4,1.7,0.9,3.3,1.3,4.8c-0.5,0.5-1,1.3-1.4,2.3
			c-0.3,0.8-0.3,1.5-0.2,2.1l-7.9,0L333.9,260z M377.7,323.9l0.3,9.5l-42.5,0l-0.2-9.5L377.7,323.9z M377.6,320.4l-42.4,0L335,311
			l42.3,0L377.6,320.4z M376.9,298.1l0.3,9.4l-42.3,0l-0.2-9.4L376.9,298.1z M376.8,294.6l-42.1,0l-0.2-9.3l42-0.1L376.8,294.6z
			 M376,269.1l-4.2,0c0-0.1,0-0.2,0-0.3c-0.1-0.4-0.3-0.9-0.5-1.3c-0.7-1.3-1.7-2.2-2.8-2.7c0.2-1.5,0.4-3.1,0.5-4.9l6.7,0
			L376,269.1z M375.6,256.5l-6.4,0c0.2-2.9,0.3-6,0.3-9.2l5.7,0L375.6,256.5z M375.2,244l-5.6,0c0-2.1-0.1-4.2-0.1-6.2
			c0-1-0.1-2-0.1-2.9l5.6,0L375.2,244z M374.8,231.5l-5.7,0c-0.2-2.7-0.4-5.2-0.7-7.4c-0.1-0.6-0.1-1.1-0.2-1.6l6.3,0L374.8,231.5z
			 M372.8,213.6c-0.8-1.1-1.5-2.3-2.2-3.5l3.5,0l0.3,9l-6.6,0c-0.1-0.4-0.1-0.7-0.2-1.1h0c0,0,0-0.1,0-0.1c0-0.3-0.1-0.6-0.1-0.8
			c0-0.1,0-0.2-0.1-0.3c0-0.1,0-0.2,0-0.2c0-0.2-0.1-0.3-0.1-0.4c-0.1-0.3-0.1-0.6-0.2-0.9C370.7,214.4,372.8,213.6,372.8,213.6z
			 M363.7,272.6l5.1,0c0.1,0,0.2,0,0.2,0l7.1,0l0.3,9.3l-42,0.1l-0.2-9.3l29.2-0.1C363.5,272.6,363.6,272.6,363.7,272.6z M362,259.9
			c0.3,1.8,0.6,3.5,0.8,5.1c-0.7,0.5-1.5,1.3-2.1,2.6c-0.3,0.6-0.4,1.1-0.4,1.6l-7.3,0c0.1-0.5,0.1-1,0-1.5
			c-0.1-0.4-0.3-0.9-0.6-1.3c-0.8-1.2-1.9-2.1-3-2.5c0-1.2,0-2.5-0.1-3.9L362,259.9z"/>
		<path class="st22" d="M311.4,254.9l-11.9-4.2c-2.8-1-6.1,0.6-7.4,3.5l-5.2,12.2c-1.2,2.9,0.1,6.1,2.9,7.1l11.9,4.2
			c0.1,0,0.1,0,0.2,0.1c0.2,0.5,0.4,1.1,0.6,1.8c0.5,1.6,1.3,2.5,2.1,3c-0.5,2.3-1,5-1.6,7.9c-0.2,0.9-0.4,1.9-0.6,2.9
			c-0.2,1-0.5,1.9-0.7,2.9c-0.4,2-1.1,3.8-1.6,5.7c-0.9,2.8-1.9,5.5-3,7.6c-1-1.9-1.9-3.1-1.9-3.1c-6.2,6.2-10.8,9.3-14.2,10.7
			c0.2-1.3,0.3-2.6,0.4-3.7c1.7-0.8,3.4-1.9,5-3.4c2.7-2.5,4.5-5.6,5.5-8.9c0.2,0.1,0.4,0.2,0.7,0.2c2.8,0,6.5-7.4,3.5-8.7
			c-0.7-0.3-1.3-0.3-1.9-0.1c0-0.5,0-0.9,0-1.4c-0.7-8.7-5.4-12.6-15.3-11.1c-9.9,1.5-12.5,10.4-12.5,10.4c0,0.2-0.1,0.3-0.1,0.5
			c-0.5-0.2-1.1-0.3-1.9-0.1c-3.3,0.8-2,8.5,0.7,8.9c0.5,0.1,0.9-0.1,1.2-0.3c-0.1,3.1,0.4,6.4,1.9,9.9c0.9,2,2.3,3.5,4.1,4.3
			c0,1.1-0.2,2.5-0.4,3.8c-4.6-1.7-10.9-7.6-10.9-7.6c0,0,0,0-0.1,0c-0.1-0.2-0.3-0.5-0.4-0.7c-0.2-0.4-0.5-0.8-0.8-1.3
			c-1.1-1.9-2.1-4.6-2.9-7.7c-0.2-0.8-0.4-1.5-0.5-2.4c-0.1-0.8-0.3-1.6-0.4-2.5c-0.2-0.8-0.2-1.7-0.3-2.5c-0.1-0.8-0.2-1.7-0.2-2.5
			c0-0.8-0.1-1.6-0.1-2.4c0-0.8-0.1-1.6-0.1-2.3c0-0.9,0-1.7,0-2.5c0.1,0,0.3,0,0.4-0.1c1-0.3,2.3-1.1,3.5-3.4
			c0.5-1,0.9-1.7,1.3-2.4l1.6,0.5c2.8,1,6.1-0.6,7.4-3.5l5.2-12.2c1.2-2.9-0.1-6.1-2.9-7.1l-11.9-4.2c-2.8-1-6.1,0.6-7.4,3.5
			l-5.2,12.2c-1.2,2.9,0.1,6.1,2.9,7.1l0.9,0.3c0,0.2-0.1,0.4-0.1,0.5c-0.6,3.2-0.5,5.3,0.1,6.6c-0.4,1.2-0.9,2.6-1.3,4.2
			c-0.3,0.8-0.4,1.7-0.6,2.5c-0.2,0.9-0.3,1.8-0.5,2.7c-0.2,0.9-0.2,1.9-0.3,2.9c-0.1,1-0.2,2-0.2,3c0,1,0,2,0,3c0,1,0.1,2,0.2,3
			c0.4,3.9,1.3,7.5,2.5,10.3c0.3,0.7,0.6,1.3,0.9,1.9c0.3,0.6,0.5,1.1,0.8,1.6c0.6,0.9,1,1.6,1.2,2c0,0,0,0,0,0
			c-1,1.8-1.6,3.1-1.6,3.1c3.7,8.5,9.4,10.6,9.4,10.6c-0.1,1.5-0.2,3.1-0.3,4.5h30c0.4-5.3,1-8.8,1-8.8c5.1,0.1,9.1-4.6,9.1-4.6
			c0-0.5,0-1-0.1-1.5c0,0,0,0,0,0c0.4-0.5,0.9-1.3,1.7-2.4c0.4-0.6,0.7-1.2,1.1-1.9c0.4-0.7,0.8-1.4,1.1-2.2
			c1.6-3.2,2.7-7.3,3.6-11.5c1.5-7.6,1.5-15.7,1-21.2c1.4-1.1,2.2-3.4,2.1-7.6c0-1.4-0.4-2.8-0.9-4.1l3.6-8.4
			C315.5,259.1,314.2,255.9,311.4,254.9z"/>
	</g>
	<g>
		<g>
			<g>
				<path class="st23" d="M337.4,426.6c-0.9,0-1.7-0.8-1.7-1.7V200.5c0-0.9,0.8-1.7,1.7-1.7c0.9,0,1.7,0.8,1.7,1.7v224.4
					C339.1,425.8,338.3,426.6,337.4,426.6z"/>
			</g>
		</g>
		<g>
			<g>
				<path class="st23" d="M383.3,426.6c-0.9,0-1.7-0.8-1.7-1.7V200.5c0-0.9,0.8-1.7,1.7-1.7c0.9,0,1.7,0.8,1.7,1.7v224.4
					C385,425.8,384.2,426.6,383.3,426.6z"/>
			</g>
		</g>
		<g>
			<g>
				<path class="st23" d="M383.3,212.1h-45.9c-0.9,0-1.7-0.8-1.7-1.7c0-0.9,0.8-1.7,1.7-1.7h45.9c0.9,0,1.7,0.8,1.7,1.7
					C385,211.3,384.2,212.1,383.3,212.1z"/>
			</g>
			<g>
				<path class="st23" d="M383.3,224.5h-45.9c-0.9,0-1.7-0.8-1.7-1.7c0-0.9,0.8-1.7,1.7-1.7h45.9c0.9,0,1.7,0.8,1.7,1.7
					C385,223.8,384.2,224.5,383.3,224.5z"/>
			</g>
			<g>
				<path class="st23" d="M383.3,237h-45.9c-0.9,0-1.7-0.8-1.7-1.7c0-0.9,0.8-1.7,1.7-1.7h45.9c0.9,0,1.7,0.8,1.7,1.7
					C385,236.3,384.2,237,383.3,237z"/>
			</g>
			<g>
				<path class="st23" d="M383.3,249.5h-45.9c-0.9,0-1.7-0.8-1.7-1.7c0-0.9,0.8-1.7,1.7-1.7h45.9c0.9,0,1.7,0.8,1.7,1.7
					C385,248.7,384.2,249.5,383.3,249.5z"/>
			</g>
			<g>
				<path class="st23" d="M383.3,262h-45.9c-0.9,0-1.7-0.8-1.7-1.7c0-0.9,0.8-1.7,1.7-1.7h45.9c0.9,0,1.7,0.8,1.7,1.7
					C385,261.2,384.2,262,383.3,262z"/>
			</g>
			<g>
				<path class="st23" d="M383.3,274.4h-45.9c-0.9,0-1.7-0.8-1.7-1.7c0-0.9,0.8-1.7,1.7-1.7h45.9c0.9,0,1.7,0.8,1.7,1.7
					C385,273.7,384.2,274.4,383.3,274.4z"/>
			</g>
			<g>
				<path class="st23" d="M383.3,286.9h-45.9c-0.9,0-1.7-0.8-1.7-1.7c0-0.9,0.8-1.7,1.7-1.7h45.9c0.9,0,1.7,0.8,1.7,1.7
					C385,286.1,384.2,286.9,383.3,286.9z"/>
			</g>
			<g>
				<path class="st23" d="M383.3,299.4h-45.9c-0.9,0-1.7-0.8-1.7-1.7c0-0.9,0.8-1.7,1.7-1.7h45.9c0.9,0,1.7,0.8,1.7,1.7
					C385,298.6,384.2,299.4,383.3,299.4z"/>
			</g>
			<g>
				<path class="st23" d="M383.3,311.8h-45.9c-0.9,0-1.7-0.8-1.7-1.7c0-0.9,0.8-1.7,1.7-1.7h45.9c0.9,0,1.7,0.8,1.7,1.7
					C385,311.1,384.2,311.8,383.3,311.8z"/>
			</g>
			<g>
				<path class="st23" d="M383.3,324.3h-45.9c-0.9,0-1.7-0.8-1.7-1.7c0-0.9,0.8-1.7,1.7-1.7h45.9c0.9,0,1.7,0.8,1.7,1.7
					C385,323.5,384.2,324.3,383.3,324.3z"/>
			</g>
			<g>
				<path class="st23" d="M383.3,336.8h-45.9c-0.9,0-1.7-0.8-1.7-1.7c0-0.9,0.8-1.7,1.7-1.7h45.9c0.9,0,1.7,0.8,1.7,1.7
					C385,336,384.2,336.8,383.3,336.8z"/>
			</g>
			<g>
				<path class="st23" d="M383.3,349.2h-45.9c-0.9,0-1.7-0.8-1.7-1.7c0-0.9,0.8-1.7,1.7-1.7h45.9c0.9,0,1.7,0.8,1.7,1.7
					C385,348.5,384.2,349.2,383.3,349.2z"/>
			</g>
			<g>
				<path class="st23" d="M383.3,361.7h-45.9c-0.9,0-1.7-0.8-1.7-1.7c0-0.9,0.8-1.7,1.7-1.7h45.9c0.9,0,1.7,0.8,1.7,1.7
					C385,360.9,384.2,361.7,383.3,361.7z"/>
			</g>
			<g>
				<path class="st23" d="M383.3,374.2h-45.9c-0.9,0-1.7-0.8-1.7-1.7c0-0.9,0.8-1.7,1.7-1.7h45.9c0.9,0,1.7,0.8,1.7,1.7
					C385,373.4,384.2,374.2,383.3,374.2z"/>
			</g>
			<g>
				<path class="st23" d="M383.3,386.6h-45.9c-0.9,0-1.7-0.8-1.7-1.7c0-0.9,0.8-1.7,1.7-1.7h45.9c0.9,0,1.7,0.8,1.7,1.7
					C385,385.9,384.2,386.6,383.3,386.6z"/>
			</g>
			<g>
				<path class="st23" d="M383.3,399.1h-45.9c-0.9,0-1.7-0.8-1.7-1.7c0-0.9,0.8-1.7,1.7-1.7h45.9c0.9,0,1.7,0.8,1.7,1.7
					C385,398.3,384.2,399.1,383.3,399.1z"/>
			</g>
			<g>
				<path class="st23" d="M383.3,411.6h-45.9c-0.9,0-1.7-0.8-1.7-1.7c0-0.9,0.8-1.7,1.7-1.7h45.9c0.9,0,1.7,0.8,1.7,1.7
					C385,410.8,384.2,411.6,383.3,411.6z"/>
			</g>
		</g>
	</g>
	<g>
		<path class="st24" d="M328,140.7c0.8-0.4,1.7-1.4,2-3.6c0.6-4,1.4-5,2.1-5.6c0.6-0.6-0.9-2-2.5,0.6c-0.5,0.9-0.9,1.4-1.1,1.8
			L328,140.7z"/>
		<rect x="112" y="107.1" class="st20" width="276" height="26.4"/>
		<text transform="matrix(1 0 0 1 343.5296 120.2923)" class="st11 st25 st26">SEARCH</text>
		<rect x="120.4" y="124.5" class="st11" width="259.2" height="1.3"/>
		<path class="st24" d="M328.4,133.9c-0.5,0.7-0.5,0.7-0.5,0.7s-0.5-6.3-2.3-8.4c-1.7-2.1-4.9,3.7-4.2,8.4c0.8,5.8,2.8,6.9,5.2,6.5
			c0,0,0.6,0,1.3-0.4L328.4,133.9z"/>
		<g>
			<g>
				<g>
					<path class="st11" d="M341.7,122.4c-0.1,0-0.3,0-0.4-0.1L338,119c-0.2-0.2-0.2-0.5,0-0.7c0.2-0.2,0.5-0.2,0.7,0l3.3,3.3
						c0.2,0.2,0.2,0.5,0,0.7C341.9,122.4,341.8,122.4,341.7,122.4z"/>
				</g>
				<g>
					<path class="st11" d="M335.3,112.1c0.9,0,1.8,0.4,2.4,1c1.3,1.3,1.3,3.5,0,4.8c-0.6,0.6-1.5,1-2.4,1c-0.9,0-1.8-0.4-2.4-1
						c-1.3-1.3-1.3-3.5,0-4.8C333.5,112.5,334.4,112.1,335.3,112.1 M335.3,111.1c-1.1,0-2.3,0.4-3.1,1.3c-1.7,1.7-1.7,4.5,0,6.2
						c0.9,0.9,2,1.3,3.1,1.3c1.1,0,2.3-0.4,3.1-1.3c1.7-1.7,1.7-4.5,0-6.2C337.5,111.6,336.4,111.1,335.3,111.1L335.3,111.1z"/>
				</g>
				<g>
					<path class="st11" d="M339.2,120.4c-0.3,0-0.5-0.1-0.7-0.3l-0.8-0.8c-0.4-0.4-0.4-1,0-1.4c0.4-0.4,1-0.4,1.4,0l0.8,0.8
						c0.4,0.4,0.4,1,0,1.4C339.7,120.3,339.4,120.4,339.2,120.4z"/>
				</g>
			</g>
		</g>
		<g>
			<g>
				<path class="st24" d="M352.8,138.8c-4.1,2.8-9.9,9.1-8,18.9c1.2,6.2,9.5,7.6,16.7,3.5c7.2-4,9.3-11.6,8.4-16.9
					C369.1,139.2,359.4,134.2,352.8,138.8z"/>
				<g>
					<path class="st24" d="M355.2,173.5c-0.3,0-0.6,0-0.9-0.1c-2.2-0.5-3.5-2.6-3-4.8c1.1-5.1,0.6-7.1,0.6-7.1
						c0.1,0.2,0.1,0.3,0.1,0.3l7.3-3.2c0.4,0.9,1.5,4.2-0.2,11.8C358.6,172.3,357,173.5,355.2,173.5z"/>
				</g>
				<path class="st14" d="M352.7,142.7c0,0-2.9,4.5-3.9,6.1c0,0,1.9,1.5,3.3-0.2c1.3-1.7,2.3-4.9,4.9-4.9c1.8,0,1.5,1.9,0.8,3.4
					c-1.2,2.3-3.1,3.5-4.3,3.4c0,0-3.2,5.1,3.3,8.8c6.5,3.6,11.2-1.1,14-6.4c2.7-5.3,2.7-12.7-2.9-16.8c-5.5-4-10.1-3.6-17.1-3.1
					C350.6,132.9,348.1,137.6,352.7,142.7z"/>
			</g>
			<g>
				<path class="st24" d="M396,145.4c-1,2.3-2.3,5.4-4.1,8.2c-1.8,2.9-4.3,5.5-6.9,7.4c-2.7,1.9-5.5,3.2-7.9,3.9
					c-2.4,0.7-4.2,1-5,1.2c-3.9,0.6-5.4,1.8-5.6,4.9c-0.1,1.5,0.4,2.7,1.6,3.4c1.2,0.7,3.1,0.9,5.6,0.5c1-0.2,3.3-0.7,6.3-1.8
					c3-1.2,6.7-3.2,9.9-6.1c1.6-1.5,3.1-3.1,4.3-4.9c1.2-1.8,2.3-3.7,3.1-5.6c1.6-3.8,2.2-7.4,2.4-10.2L396,145.4z"/>
			</g>
			<g>
				<path class="st24" d="M324.4,137.5c-0.4,1.2-0.9,2.6-1.3,4.2c-0.3,0.8-0.4,1.6-0.5,2.5c-0.1,0.9-0.3,1.8-0.4,2.7
					c-0.1,0.5-0.1,0.9-0.1,1.4c0,0.5,0,1,0,1.5c0,0.5,0,1,0,1.5c0,0.5,0,1,0,1.5c0.1,1,0.2,2,0.3,3.1c0.1,1,0.4,2,0.7,3
					c1,4,3,7.5,5,10c1.1,1.2,2,2.2,2.9,3c0.4,0.4,0.8,0.7,1.1,1c0.3,0.2,0.6,0.4,0.8,0.6c2.1,1.5,3.9,2,5.3,1.7
					c1.3-0.2,2.2-1.1,2.7-2.6c0.4-1.5,0.4-2.6,0-3.6c-0.4-1-1.4-1.8-2.8-2.8c-0.1-0.1-0.3-0.2-0.6-0.4c-0.2-0.2-0.5-0.4-0.8-0.6
					c-0.6-0.4-1.3-1.1-2.1-1.9c-1.5-1.6-3.1-3.9-4.2-6.7c-0.2-0.7-0.6-1.4-0.8-2.2c-0.2-0.8-0.4-1.6-0.6-2.4
					c-0.1-0.4-0.2-0.8-0.2-1.2l-0.2-1.2c-0.1-0.4-0.1-0.8-0.2-1.2c-0.1-0.4-0.1-0.8-0.1-1.2c0-0.8-0.1-1.6-0.1-2.4
					c0-0.8-0.1-1.6-0.1-2.3c0-1.5,0.1-2.9,0-4.1L324.4,137.5z"/>
			</g>
			<path class="st11" d="M345.5,215.8c0,0,4,9,13.1,9s14.5-4.6,13.1-14.2C371.7,210.6,352.8,207.3,345.5,215.8z"/>
			<g>
				<g>
					<path class="st11" d="M373.8,268.2c1.3-6.9,2.2-18.1,2.1-28.3c0-5.1-0.3-9.9-0.6-13.8c-0.3-3.8-0.8-6.7-1-7.9
						c-1.1-6.1-4-8.5-8-7.1c-4.1,1.4-5.3,3.8-4.3,9.3c0.2,1.1,0.7,3.7,1.3,7.2c0.6,3.6,1.3,8.1,1.9,12.9c1.3,9.7,2.3,20.7,3.5,27.5
						L373.8,268.2z"/>
				</g>
			</g>
			<g>
				<g>
					<path class="st11" d="M354.9,269c0.3-7.2-0.1-18.7,0-28.8c0-5.1,0.2-9.8,0.5-13.5c0.3-3.7,0.7-6.3,0.8-7.3
						c0.4-2.7,0.4-4.4-0.3-5.4c-0.3-0.5-0.8-1-1.4-1.5c-0.3-0.3-0.6-0.6-0.9-1c-0.3-0.4-0.6-0.7-1-1.1c-0.4-0.4-0.8-0.7-1.2-0.9
						c-0.4-0.3-0.9-0.4-1.3-0.4c-1,0-2,0.4-2.9,1.2c-1.8,1.5-3,4.1-3.4,7.5c-0.2,1.3-0.5,4.5-0.5,8.6c0,4.1,0.3,9.2,0.8,14.4
						c1.1,10.6,3.4,22.1,5.6,29L354.9,269z"/>
				</g>
				<g>
					<path class="st11" d="M373.8,268.2c1.3-6.9,2.2-18.1,2.1-28.3c0-5.1-0.3-9.9-0.6-13.8c-0.3-3.8-0.8-6.7-1-7.9
						c-1.1-6.1-4-8.5-8-7.1c-4.1,1.4-5.3,3.8-4.3,9.3c0.2,1.1,0.7,3.7,1.3,7.2c0.6,3.6,1.3,8.1,1.9,12.9c1.3,9.7,2.3,20.7,3.5,27.5
						L373.8,268.2z"/>
				</g>
				<path class="st27" d="M374.7,220.1c-0.1-0.8-0.2-1.4-0.3-1.8c-0.5-2.8-1.4-4.8-2.5-6c0-0.6-0.1-1.1-0.2-1.7
					c0,0-9.9-1.7-18.2,0.6c-0.2-0.3-0.5-0.6-0.8-0.8c-0.4-0.4-0.8-0.7-1.2-0.9c-0.4-0.3-0.9-0.4-1.3-0.4c-1,0-2,0.4-2.9,1.2
					c-1.8,1.5-3,4.1-3.4,7.5c-0.1,0.4-0.1,1.1-0.2,1.9C356,223.1,367.7,221.7,374.7,220.1z"/>
			</g>
			<path class="st28" d="M351.2,166.6c1.1,0.2,14.4,5.1,25.4-4.5c0,0,2.9,6.9,3.8,14.3c0,0-5,2.8-9.5,2.7c0,0-0.5,22.5,9.4,36.5
				c0,0-20.5,7.9-42.1,0c0,0,6.1-17.2,5.7-36.7c0,0-8.4-1-13.5-5.9c0,0,3.5-9.5,7.9-12.1C338.2,160.9,347.1,166,351.2,166.6z"/>
			<path class="st29" d="M370.8,179.1c4.5,0.1,9.5-2.7,9.5-2.7s-6,2.3-11.5,0.7c0,0-1.2,26.9,11.4,38.5
				C370.3,201.7,370.8,179.1,370.8,179.1z"/>
			<path class="st29" d="M347.2,177.8c-12.1-1-16.9-4.8-16.9-4.8c5,4.9,13.5,5.9,13.5,5.9c0.4,19.5-5.7,36.7-5.7,36.7
				C346.9,203.7,347.2,177.8,347.2,177.8z"/>
			<path class="st24" d="M396.1,148.5c0,0-2.5-1-1.5-4.9c1.1-4,0.7-5.2,0.4-6c-0.3-0.8,1.6-1.5,2.1,1.5c0.5,3,0.5,3,0.5,3
				s3-5.6,5.4-6.8c2.4-1.2,1.2,4.8,0.4,9C402.4,148.5,398,149.9,396.1,148.5z"/>
			<path class="st14" d="M371.2,266.2c-1.5,0.1-3.5,0.4-4.9,3.3c-0.5,1-0.5,1.9-0.3,2.6c0.3,1.4,1.6,2.3,3.1,2.3h5.2
				c1.9,0,3.5-1.7,3.2-3.7c-0.1-0.4-0.2-0.9-0.5-1.3C375.6,267.2,373.3,266.1,371.2,266.2z"/>
			<path class="st14" d="M352,265.4c-1.5,0.2-3.4,0.6-4.7,3.6c-0.4,1-0.4,1.9-0.2,2.6c0.4,1.4,1.8,2.2,3.2,2.2l5.1-0.3
				c1.9-0.1,3.4-2,2.9-3.8c-0.1-0.4-0.3-0.9-0.5-1.3C356.6,266.1,354.1,265.1,352,265.4z"/>
		</g>
	</g>
	<g>
		<g>
			<path class="st24" d="M109,263c3,4,6.5,11.8,1.6,20.5c-3.1,5.5-11.4,4.2-17-1.9c-5.6-6.1-5.2-14-2.8-18.6
				C93.4,258.3,104.2,256.7,109,263z"/>
			<g>
				<path class="st24" d="M103.7,296.5c-1.8,0-3.5-1.3-3.9-3.1c-1.7-7.5-0.6-10.9-0.2-11.8l7.3,3.2c0,0,0-0.1,0.1-0.3
					c0,0-0.5,2,0.6,7.1c0.5,2.2-0.9,4.3-3,4.8C104.3,296.5,104,296.5,103.7,296.5z"/>
			</g>
		</g>
		<g>
			<path class="st24" d="M65.3,262.3c-0.5,2.7-0.8,6.4-0.1,10.5c0.3,2,0.9,4.1,1.6,6.2c0.8,2.1,1.8,4,3,5.8c2.4,3.6,5.5,6.4,8.1,8.3
				c2.6,1.9,4.8,2.9,5.7,3.3c2.3,1,4.2,1.2,5.5,0.8c1.3-0.4,2.1-1.4,2.4-2.9c0.6-3.1-0.6-4.6-4.3-6.1c-0.7-0.3-2.4-1-4.6-2.3
				c-2.1-1.3-4.6-3.2-6.7-5.7c-2.2-2.5-3.9-5.6-5-8.8c-1.1-3.2-1.6-6.4-2.1-8.9L65.3,262.3z"/>
		</g>
		<g>
			<path class="st24" d="M154.6,281.2c0.1-0.9,0.8-2.1,2.6-3.1c3.6-2,4.2-3.1,4.6-3.9c0.4-0.8,2.2,0.2,0.3,2.5
				c-0.6,0.8-1,1.3-1.3,1.7L154.6,281.2z"/>
			<path class="st10" d="M162.2,277.2L162.2,277.2c-0.5,0-0.8-0.4-0.8-0.8v-12.5c0-0.5,0.4-0.8,0.8-0.8l0,0c0.5,0,0.8,0.4,0.8,0.8
				v12.5C163,276.8,162.6,277.2,162.2,277.2z"/>
			<path class="st10" d="M161.3,263.9L161.3,263.9c0-0.5,0.4-0.8,0.8-0.8h11.5c0.5,0,0.8,0.4,0.8,0.8l0,0c0,0.5-0.4,0.8-0.8,0.8
				h-11.5C161.7,264.7,161.3,264.3,161.3,263.9z"/>
			<path class="st10" d="M173.7,256.3L173.7,256.3c0.5,0,0.8,0.4,0.8,0.8v6.7c0,0.5-0.4,0.8-0.8,0.8l0,0c-0.5,0-0.8-0.4-0.8-0.8
				v-6.7C172.9,256.7,173.2,256.3,173.7,256.3z"/>
			<path class="st10" d="M174.5,257.2L174.5,257.2c0,0.5-0.4,0.8-0.8,0.8h-8.1c-0.5,0-0.8-0.4-0.8-0.8l0,0c0-0.5,0.4-0.8,0.8-0.8
				h8.1C174.2,256.3,174.5,256.7,174.5,257.2z"/>
			<path class="st30" d="M169,260h-13.8c-1,0-1.8-0.8-1.8-1.8v-2c0-1,0.8-1.8,1.8-1.8H169c1,0,1.8,0.8,1.8,1.8v2
				C170.8,259.2,170,260,169,260z"/>
			<path class="st11" d="M162.2,291L162.2,291c-1.5,0-2.6-1.2-2.6-2.6v-15.6c0-1.5,1.2-2.6,2.6-2.6l0,0c1.5,0,2.6,1.2,2.6,2.6v15.6
				C164.8,289.8,163.6,291,162.2,291z"/>
			<path class="st24" d="M160.9,278.5c-0.5,0.7-0.5,0.7-0.5,0.7s6.1-1.7,8.6-0.8c2.6,0.9-1.8,5.9-6.4,6.8c-5.7,1.2-7.5-0.3-7.9-2.7
				c0,0-0.2-0.6-0.1-1.4L160.9,278.5z"/>
			<g>
				<path class="st24" d="M157.2,280.2c-5,1.2-12.8,3.2-19.9,4.4c-7.1,1.3-13.4,1.9-15.1,2.1c-4.2,0.5-5.8,1.9-5.7,5
					c0.1,3.1,2.2,4.4,6.8,3.9c1.8-0.2,8.5-1.3,15.8-3.6c7.3-2.2,15.1-5.6,19.5-8.5L157.2,280.2z"/>
			</g>
		</g>
		<g>
			<path class="st24" d="M115.8,407.1c1.1-3.3,2.2-7.8,2.8-12.6c0.7-4.9,1-10.1,1.2-15.1c0.3-9.9-0.3-18.7-0.5-21
				c-0.6-5.9-2.9-8.1-7.2-7.5c-4.3,0.6-5.9,3.1-5.3,8.8c0.2,2.2,1.3,10.6,2.3,20.1c0.5,4.7,0.8,9.8,1.1,14.4
				c0.3,4.7,0.4,8.9,0.6,12.2L115.8,407.1z"/>
		</g>
		<g>
			<path class="st24" d="M71.4,388.1c1.7,0.4,3.9,0.7,6.2,0.7c2.4-0.1,5-0.6,7.5-1.6c2.6-1,5-2.6,7.2-4.5c1.1-1,2.1-2,3.1-3.2
				c0.5-0.6,0.9-1.2,1.3-1.8c0.1-0.2,0.2-0.3,0.3-0.5l0.3-0.5l0.6-1.1c1.4-2.8,2-5.3,2.6-7.6c0.5-2.3,0.9-4.4,1.2-6.2
				c0.6-3.7,0.8-6.4,0.8-7.5c0.3-5.8-1.7-8.3-6-8.3c-4.3,0-6.2,2.2-6.5,7.5c-0.1,1-0.1,3.5-0.3,6.9c-0.1,1.7-0.3,3.5-0.5,5.4
				c-0.3,1.9-0.6,3.9-1.1,5.4l-0.2,0.5L88,372c0,0.1-0.1,0.2-0.1,0.3c-0.2,0.4-0.4,0.8-0.7,1.2c-0.5,0.8-1,1.6-1.6,2.3
				c-1.2,1.5-2.6,2.8-4.2,3.8c-1.5,1-3.2,1.8-4.8,2.3c-1.6,0.5-3.3,0.8-4.7,1L71.4,388.1z"/>
		</g>
		<path class="st28" d="M110.7,287.6c-1.1,0.2-12.4,3.1-20.7-0.8c0,0-4.7,4.5-5.5,11.9c0,0,2.2,0.9,6.6,1.4c0,0,9.5,6.6,3.2,21
			c-7.4,17-9.3,33.2-12.6,37.8c0,0,20.5,7.9,42.1,0c0,0-0.6-22.8-7.5-37.8c-5.2-11.3,1.6-13.5,1.8-21.3c0,0,3.1-0.2,5-1.9
			c0,0,1.5-9.4-2.9-12C120.3,285.9,114.8,287,110.7,287.6z"/>
		<path class="st24" d="M68.2,265.4c0,0,2.7-0.3,2.6-4.4c-0.1-4.1,0.6-5.2,1.1-5.9c0.5-0.7-1.2-1.8-2.4,1c-1.2,2.8-1.2,2.8-1.2,2.8
			s-1.6-6.1-3.6-7.9c-2.1-1.8-2.3,4.4-2.5,8.7C62,263.8,65.9,266.2,68.2,265.4z"/>
		<path class="st10" d="M110.6,403.7c0,0,4.6,1,6.3,0c0,0,2.3,1.2,5.8,1c3.5-0.3,5.9,0.2,5.4,2.2c-0.4,2-13.5,3.9-16.8,2.3
			c-1.8-0.9-0.7-5.9-0.7-5.9"/>
		<path class="st10" d="M75.1,382.3c0,0-2.5,4-2.2,5.9c0,0-1.9,1.7-2.9,5.1s-2.2,5.4-4,4.3c-1.8-1.1,0.9-14,3.6-16.6
			c1.4-1.4,5.8,1.4,5.8,1.4"/>
		<path class="st14" d="M110.8,265.9c0,0-8.5,10.3-10.4,30.6c0,0-10.1,2.6-16.9-1.5c0,0-1.4-33.5,11.6-37
			C108.1,254.5,110.8,265.9,110.8,265.9z"/>
		<path class="st24" d="M109.7,270.1c0,0-1.5-3.6-4.4-2.4s0,8,2.7,8C110.5,275.7,109.7,270.1,109.7,270.1z"/>
	</g>
	<g>
		<g>
			<path class="st24" d="M276.7,286.2c-3.5,4.4-6.7,13.1-1.4,23.1c3.3,6.3,11.7,7.3,18.2,0.6c6.6-6.7,6.4-17.8,3.7-23.2
				C294.5,281.3,282.4,279.1,276.7,286.2z"/>
			<g>
				<path class="st24" d="M283.4,325.6c-0.5,0-0.9-0.1-1.4-0.2c-2.4-0.8-3.7-3.3-2.9-5.7c0.9-3,0.6-7.1,0.4-8.5
					c-0.4-2.5,1.3-4.8,3.7-5.2c2.5-0.4,4.8,1.3,5.2,3.7c0.1,0.7,1.1,7.1-0.7,12.7C287.1,324.4,285.4,325.6,283.4,325.6z"/>
			</g>
		</g>
		<g>
			<path class="st24" d="M309.7,280.3c-0.5,2.7-0.7,6.3-1.3,10c-0.1,0.9-0.2,1.9-0.4,2.9c-0.2,1-0.3,1.9-0.5,2.9
				c-0.3,2-0.7,3.8-1.1,5.7c-0.9,3.6-1.9,6.9-3,9.2c-0.2,0.6-0.5,1.1-0.8,1.6c-0.3,0.4-0.5,0.9-0.7,1.2c-0.5,0.6-0.8,1.2-1,1.4
				c-1,1.4-1.5,2.3-1.6,3.3c-0.1,1,0.1,2.3,0.6,4c0.5,1.7,1.7,2.7,3.5,2.6c1.8-0.1,4-1.4,5.7-3.8c0.4-0.5,0.8-1.3,1.5-2.4
				c0.3-0.6,0.6-1.2,0.9-1.9c0.3-0.7,0.7-1.4,0.9-2.2c1.3-3.2,2-7.3,2.6-11.5c0.9-8.5,0-17.6-1.2-23.1L309.7,280.3z"/>
		</g>
		<path class="st24" d="M260.3,282.9c1-0.3,2.2-1.1,3.2-3.4c1.8-4.3,2.9-5.1,3.8-5.6c0.9-0.5-0.4-2.4-2.9-0.1
			c-0.8,0.8-1.4,1.3-1.7,1.7L260.3,282.9z"/>
		<path class="st16" d="M266.2,277.7l-12.2-4.2c-2.9-1-4.5-4.2-3.5-7.1l4.2-12.2c1-2.9,4.2-4.5,7.1-3.5l12.2,4.2
			c2.9,1,4.5,4.2,3.5,7.1l-4.2,12.2C272.3,277.1,269.1,278.7,266.2,277.7z"/>
		<path class="st24" d="M262.7,275.5c-0.7,0.7-0.7,0.7-0.7,0.7s1.1-7-0.2-9.8c-1.3-2.8-6.4,2.8-6.9,8c-0.7,6.6,1.2,8.4,3.9,8.5
			c0,0,0.7,0.2,1.5,0L262.7,275.5z"/>
		<g>
			<path class="st24" d="M310.2,282.9c-1-0.3-2.2-1.1-3.2-3.4c-1.8-4.3-2.9-5.1-3.8-5.6c-0.9-0.5,0.4-2.4,2.9-0.1
				c0.8,0.8,1.4,1.3,1.7,1.7L310.2,282.9z"/>
			<path class="st21" d="M306,277.7l-12.2-4.2c-2.9-1-4.5-4.2-3.5-7.1l4.2-12.2c1-2.9,4.2-4.5,7.1-3.5l12.2,4.2
				c2.9,1,4.5,4.2,3.5,7.1l-4.2,12.2C312.1,277.1,309,278.7,306,277.7z"/>
			<path class="st24" d="M307.8,275.5c0.7,0.7,0.7,0.7,0.7,0.7s-1.1-7,0.2-9.8c1.3-2.8,6.4,2.8,6.9,8c0.7,6.6-1.2,8.4-3.9,8.5
				c0,0-0.7,0.2-1.5,0L307.8,275.5z"/>
		</g>
		<g>
			<path class="st24" d="M255.6,280.9c-0.3,1.2-0.7,2.7-1,4.3c-0.2,0.8-0.3,1.7-0.4,2.5c-0.1,0.9-0.2,1.8-0.3,2.7
				c-0.1,0.9-0.1,1.9-0.1,2.9c0,1,0,2,0.1,3c0.1,1,0.2,2,0.3,3c0.1,1,0.3,2,0.5,3c0.7,3.9,2,7.5,3.4,10.3c0.3,0.7,0.7,1.3,1,1.9
				c0.3,0.6,0.6,1.1,1,1.6c0.6,0.9,1.1,1.6,1.4,2c1.6,2,3.3,3,4.7,3.1c1.5,0.1,2.7-0.6,3.6-2.1c1.9-3,1.8-4.7-0.4-7.4
				c-0.2-0.3-0.6-0.7-1.1-1.3c-0.3-0.3-0.5-0.7-0.8-1.1c-0.3-0.4-0.6-0.8-0.9-1.3c-1.3-1.9-2.5-4.6-3.6-7.7
				c-0.2-0.8-0.6-1.5-0.7-2.4c-0.2-0.8-0.4-1.6-0.6-2.5c-0.2-0.8-0.3-1.7-0.5-2.5c-0.1-0.8-0.4-1.7-0.4-2.5
				c-0.1-0.8-0.2-1.6-0.3-2.4c-0.1-0.8-0.2-1.6-0.3-2.3c-0.1-1.5-0.3-2.9-0.5-4.1L255.6,280.9z"/>
		</g>
		<path class="st28" d="M270.8,371.8c0,0,4.5,9.5,14.8,10.2c13.3,0.9,16.5-5.2,14.8-16.1C300.4,366,279.1,362.3,270.8,371.8z"/>
		<path class="st10" d="M307.9,430.7c-1.7,0.1-3.9,0.5-5.5,3.7c-0.5,1.1-0.6,2.1-0.4,3c0.4,1.6,1.9,2.7,3.5,2.7l5.9,0
			c2.2,0,4-2,3.6-4.1c-0.1-0.5-0.3-1-0.5-1.5C313,431.9,310.3,430.6,307.9,430.7z"/>
		<g>
			<g>
				<path class="st28" d="M310.9,432.6c0.3-8-0.6-20.8-2-32.2c-1.3-11.5-3.2-21.5-3.7-24.2c-1.5-6.7-4.4-9.1-9.2-7.8
					c-4.7,1.3-6.2,4.4-4.7,10.9c0.6,2.5,3,12.2,5.6,23.2c2.7,11,5.6,23.4,8.2,30.9L310.9,432.6z"/>
			</g>
		</g>
		<path class="st10" d="M269.4,432c-1.7,0.1-3.9,0.5-5.5,3.8c-1,2-0.2,3.7,0.4,4.6c0.7,0.3,1.3,0.6,2,1l7.9-0.1
			c1.2,0,2.2-0.9,2.4-2.1c0.1-1,0.1-2.3-0.6-3.6C274.4,433.1,271.7,431.8,269.4,432z"/>
		<g>
			<g>
				<path class="st28" d="M273.5,434.5c2-7.9,4.1-20.9,6.2-32.3c1-5.7,2.1-11,3-15.2c0.9-4.2,1.7-7.2,2-8.4c0.8-3.2,0.9-5.5,0.3-7.3
					c-0.6-1.8-2.1-3.1-4.4-3.9c-2.3-0.8-4.2-0.7-5.9,0.5c-1.6,1.3-3,3.7-3.8,7.3c-0.3,1.4-1,4.8-1.7,9.3c-0.7,4.5-1.2,10.2-1.6,16.2
					c-0.8,11.9-0.8,25.2,0.1,33.4L273.5,434.5z"/>
			</g>
		</g>
		<path class="st16" d="M281.1,317.8c1.2,0.2,7.6,3.3,20.9-11.5c0,0,6.5,8.1,7.4,16.5c0,0-3.6,4.8-8.7,4.6c0,0-1.9,24.7,5.2,43
			c0,0-16,9.1-35.1,1.4c0,0,0.1-18.1-0.3-40.2c0,0-5.9-2.1-10.3-10.6c0,0,2.9-8.3,7.9-11.3C268.1,309.8,276.4,317,281.1,317.8z"/>
		<path class="st24" d="M274.1,294c0,0-1-4.1-4.3-3.3c-3.3,0.8-1.3,8.5,1.5,8.9C274.1,300.1,274.1,294,274.1,294z"/>
		<path class="st24" d="M297,295.2c0,0,1.6-3.9,4.7-2.7c3.1,1.2,0.1,8.6-2.7,8.7C296.2,301.2,297,295.2,297,295.2z"/>
		<path class="st14" d="M271.8,290.4c0,0,1.8-8.9,11.6-10.4c9.8-1.5,14.8,2.4,16.3,11.1c1.4,8.7-4.6,17.4-14,17
			C276.3,307.6,270.1,299.4,271.8,290.4z"/>
	</g>
	<g>
		<rect x="375.6" y="398.8" class="st11" width="64.8" height="49.7"/>
		<polygon class="st14" points="392.9,388 375.6,398.8 440.4,398.8 423.2,388 		"/>
		<rect x="392.9" y="388" class="st12" width="30.3" height="10.8"/>
		<polygon class="st31" points="375.6,398.8 385,410.4 408,410.4 430.6,410.4 440.4,398.8 		"/>
		<polygon class="st31" points="423.2,388 440.4,393.4 453.9,402.6 440.4,398.8 		"/>
		<polygon class="st31" points="392.9,388 374.1,393.4 360.6,402.6 375.6,398.8 		"/>
	</g>
</g>
<g id="DESIGNED_BY_FREEPIK" class="st0">
	<g id="XMLID_76_" class="st6">
		<g id="XMLID_929_">
			<path id="XMLID_958_" class="st32" d="M181.1,472.1c-0.2,0-0.4,0.1-0.6,0.3c-0.1,0.2-0.2,0.4-0.2,0.8v2.4
				c-0.3-0.3-0.6-0.6-0.9-0.7c-0.3-0.2-0.7-0.2-1.2-0.2c-0.8,0-1.5,0.3-2,0.8c-0.5,0.6-0.7,1.4-0.7,2.4c0,0.5,0.1,0.9,0.2,1.3
				c0.1,0.4,0.3,0.8,0.5,1.1c0.2,0.3,0.5,0.5,0.9,0.7c0.3,0.2,0.7,0.2,1.1,0.2c0.3,0,0.6,0,0.8-0.1c0.2-0.1,0.5-0.2,0.7-0.4
				c0.2-0.2,0.4-0.4,0.6-0.6v0.2c0,0.3,0.1,0.5,0.2,0.7c0.1,0.2,0.3,0.2,0.5,0.2c0.2,0,0.4-0.1,0.6-0.2c0.1-0.2,0.2-0.4,0.2-0.7
				v-7.1c0-0.3-0.1-0.5-0.2-0.7C181.5,472.2,181.3,472.1,181.1,472.1z M180,479c-0.1,0.3-0.3,0.5-0.6,0.7c-0.2,0.1-0.5,0.2-0.8,0.2
				c-0.3,0-0.5-0.1-0.8-0.2c-0.2-0.2-0.4-0.4-0.6-0.7c-0.1-0.3-0.2-0.7-0.2-1.1c0-0.4,0.1-0.8,0.2-1.1c0.1-0.3,0.3-0.6,0.5-0.7
				c0.2-0.2,0.5-0.3,0.8-0.3c0.3,0,0.5,0.1,0.8,0.2c0.2,0.2,0.4,0.4,0.6,0.7c0.1,0.3,0.2,0.7,0.2,1.1
				C180.2,478.3,180.2,478.7,180,479z"/>
			<path id="XMLID_954_" class="st32" d="M188.5,478.1c0.2-0.1,0.4-0.4,0.4-0.8c0-0.4-0.1-0.9-0.3-1.3c-0.2-0.4-0.6-0.8-1-1
				c-0.5-0.3-1-0.4-1.6-0.4c-0.5,0-0.9,0.1-1.3,0.2c-0.4,0.2-0.7,0.4-1,0.7c-0.3,0.3-0.5,0.6-0.6,1.1c-0.1,0.4-0.2,0.9-0.2,1.3
				c0,1,0.3,1.8,0.9,2.4c0.6,0.6,1.4,0.9,2.4,0.9c0.5,0,0.9-0.1,1.2-0.2c0.4-0.1,0.6-0.3,0.9-0.4c0.2-0.2,0.4-0.4,0.5-0.6
				c0.1-0.2,0.2-0.4,0.2-0.5c0-0.2-0.1-0.3-0.2-0.4c-0.1-0.1-0.2-0.1-0.4-0.1c-0.2,0-0.3,0-0.4,0.1c-0.2,0.2-0.4,0.3-0.5,0.5
				s-0.3,0.2-0.4,0.3c-0.2,0.1-0.3,0.2-0.5,0.2c-0.2,0-0.3,0.1-0.5,0.1c-0.3,0-0.6-0.1-0.8-0.2c-0.2-0.1-0.4-0.4-0.6-0.6
				c-0.1-0.3-0.2-0.6-0.2-1h3.2C187.9,478.2,188.2,478.2,188.5,478.1z M184.3,477.3c0.1-0.5,0.2-1,0.5-1.2c0.3-0.3,0.6-0.4,1-0.4
				c0.4,0,0.8,0.1,1,0.4c0.3,0.3,0.4,0.7,0.4,1.2H184.3z"/>
			<path id="XMLID_952_" class="st32" d="M193.9,477.6c-0.3-0.2-0.7-0.3-1.2-0.4c-0.4-0.1-0.8-0.2-1-0.3c-0.2-0.1-0.4-0.2-0.6-0.3
				c-0.1-0.1-0.2-0.2-0.2-0.4c0-0.2,0.1-0.3,0.3-0.5c0.2-0.1,0.4-0.2,0.7-0.2c0.3,0,0.5,0,0.7,0.1c0.2,0.1,0.3,0.2,0.4,0.4
				c0.2,0.2,0.3,0.3,0.4,0.4c0.1,0.1,0.3,0.1,0.4,0.1c0.2,0,0.4-0.1,0.5-0.2c0.1-0.1,0.2-0.3,0.2-0.5c0-0.2-0.1-0.3-0.2-0.5
				c-0.1-0.2-0.3-0.3-0.5-0.5c-0.2-0.1-0.5-0.3-0.8-0.4c-0.3-0.1-0.7-0.1-1.1-0.1c-0.5,0-1,0.1-1.4,0.3c-0.4,0.2-0.7,0.4-0.9,0.7
				c-0.2,0.3-0.3,0.6-0.3,0.9c0,0.4,0.1,0.7,0.3,0.9c0.2,0.2,0.5,0.5,0.8,0.6c0.4,0.2,0.8,0.3,1.4,0.4c0.5,0.1,0.8,0.2,1.1,0.4
				c0.2,0.1,0.3,0.3,0.3,0.6c0,0.2-0.1,0.4-0.3,0.5c-0.2,0.1-0.5,0.2-0.8,0.2c-0.4,0-0.7-0.1-0.9-0.2c-0.2-0.1-0.4-0.4-0.6-0.6
				c-0.1-0.1-0.2-0.3-0.3-0.4c-0.1-0.1-0.2-0.1-0.4-0.1c-0.2,0-0.4,0.1-0.5,0.2c-0.1,0.1-0.2,0.3-0.2,0.5c0,0.3,0.1,0.5,0.3,0.8
				c0.2,0.3,0.5,0.5,0.9,0.7c0.4,0.2,0.9,0.3,1.5,0.3c0.6,0,1.1-0.1,1.6-0.2c0.4-0.2,0.7-0.4,1-0.7c0.2-0.3,0.3-0.7,0.3-1.1
				c0-0.3-0.1-0.6-0.2-0.8C194.4,478,194.2,477.8,193.9,477.6z"/>
			<path id="XMLID_950_" class="st32" d="M196.5,474.5c-0.2,0-0.4,0.1-0.6,0.2c-0.1,0.2-0.2,0.4-0.2,0.7v4.6c0,0.3,0.1,0.6,0.2,0.7
				c0.1,0.2,0.3,0.3,0.6,0.3c0.2,0,0.4-0.1,0.6-0.2c0.2-0.2,0.2-0.4,0.2-0.7v-4.7c0-0.3-0.1-0.5-0.2-0.7
				C196.9,474.6,196.7,474.5,196.5,474.5z"/>
			<path id="XMLID_949_" class="st32" d="M196.5,472.2c-0.2,0-0.4,0.1-0.6,0.2c-0.2,0.1-0.2,0.3-0.2,0.6c0,0.3,0.1,0.4,0.2,0.6
				c0.2,0.1,0.4,0.2,0.6,0.2c0.2,0,0.4-0.1,0.6-0.2c0.2-0.1,0.2-0.3,0.2-0.6c0-0.3-0.1-0.5-0.2-0.6
				C196.9,472.3,196.7,472.2,196.5,472.2z"/>
			<path id="XMLID_945_" class="st32" d="M203.6,474.5c-0.2,0-0.4,0.1-0.5,0.2c-0.1,0.2-0.2,0.4-0.2,0.7v0.2
				c-0.3-0.4-0.6-0.7-0.9-0.8c-0.3-0.2-0.7-0.3-1.2-0.3c-0.4,0-0.7,0.1-1.1,0.2c-0.3,0.1-0.6,0.3-0.8,0.6c-0.2,0.3-0.4,0.6-0.6,1
				c-0.1,0.4-0.2,0.8-0.2,1.3c0,0.7,0.1,1.2,0.3,1.7c0.2,0.5,0.5,0.9,0.9,1.2c0.4,0.3,0.9,0.4,1.4,0.4c0.5,0,0.8-0.1,1.2-0.3
				c0.3-0.2,0.6-0.4,0.9-0.8c0,0.5,0,0.9,0,1.2c0,0.2-0.1,0.5-0.2,0.7c-0.1,0.2-0.3,0.4-0.5,0.5c-0.2,0.1-0.6,0.2-1,0.2
				c-0.2,0-0.4,0-0.5-0.1c-0.2,0-0.3-0.1-0.4-0.2c-0.1-0.1-0.2-0.2-0.3-0.3c-0.1-0.1-0.2-0.2-0.3-0.3c-0.2-0.2-0.4-0.3-0.6-0.3
				c-0.2,0-0.4,0.1-0.5,0.2c-0.1,0.1-0.2,0.3-0.2,0.5c0,0.3,0.1,0.5,0.4,0.8c0.2,0.2,0.6,0.4,1,0.6c0.4,0.2,0.9,0.2,1.5,0.2
				c0.6,0,1.1-0.1,1.5-0.2c0.4-0.1,0.7-0.3,1-0.6c0.3-0.3,0.4-0.6,0.6-1c0.1-0.4,0.2-0.9,0.2-1.4v-4.7c0-0.4-0.1-0.7-0.2-0.9
				C204.1,474.6,203.9,474.5,203.6,474.5z M202.6,478.9c-0.2,0.3-0.3,0.5-0.6,0.7c-0.2,0.1-0.5,0.2-0.8,0.2c-0.5,0-0.8-0.2-1.1-0.5
				c-0.3-0.3-0.4-0.8-0.4-1.5c0-0.6,0.1-1.1,0.4-1.5c0.3-0.4,0.6-0.5,1.1-0.5c0.5,0,0.9,0.2,1.1,0.6c0.3,0.4,0.4,0.9,0.4,1.5
				C202.8,478.3,202.7,478.6,202.6,478.9z"/>
			<path id="XMLID_944_" class="st32" d="M211,475.6c-0.2-0.3-0.4-0.6-0.8-0.8c-0.3-0.2-0.7-0.3-1.1-0.3c-0.4,0-0.8,0.1-1.2,0.3
				c-0.3,0.2-0.7,0.5-0.9,0.8v-0.2c0-0.2,0-0.4-0.1-0.5c-0.1-0.1-0.2-0.2-0.3-0.3c-0.1-0.1-0.2-0.1-0.4-0.1c-0.2,0-0.4,0.1-0.6,0.2
				c-0.1,0.2-0.2,0.4-0.2,0.7v4.7c0,0.3,0.1,0.6,0.2,0.7c0.2,0.2,0.3,0.3,0.6,0.3c0.2,0,0.4-0.1,0.6-0.2c0.2-0.2,0.2-0.4,0.2-0.7v-2
				c0-0.7,0-1.1,0.1-1.4c0.1-0.3,0.3-0.5,0.5-0.7c0.2-0.2,0.5-0.3,0.8-0.3c0.4,0,0.7,0.1,0.9,0.4c0.1,0.3,0.2,0.7,0.2,1.2v2.7
				c0,0.3,0.1,0.6,0.2,0.7c0.2,0.2,0.3,0.3,0.6,0.3c0.2,0,0.4-0.1,0.6-0.2c0.1-0.2,0.2-0.4,0.2-0.7v-3c0-0.4,0-0.6,0-0.9
				C211.2,476,211.1,475.8,211,475.6z"/>
			<path id="XMLID_939_" class="st32" d="M217.8,478.1c0.2-0.1,0.4-0.4,0.4-0.8c0-0.4-0.1-0.9-0.3-1.3c-0.2-0.4-0.6-0.8-1-1
				c-0.5-0.3-1-0.4-1.6-0.4c-0.5,0-0.9,0.1-1.3,0.2c-0.4,0.2-0.7,0.4-1,0.7c-0.3,0.3-0.5,0.6-0.6,1.1c-0.1,0.4-0.2,0.9-0.2,1.3
				c0,1,0.3,1.8,0.9,2.4c0.6,0.6,1.4,0.9,2.4,0.9c0.5,0,0.9-0.1,1.2-0.2c0.4-0.1,0.6-0.3,0.9-0.4c0.2-0.2,0.4-0.4,0.5-0.6
				c0.1-0.2,0.2-0.4,0.2-0.5c0-0.2-0.1-0.3-0.2-0.4c-0.1-0.1-0.2-0.1-0.4-0.1c-0.2,0-0.3,0-0.4,0.1c-0.2,0.2-0.4,0.3-0.5,0.5
				c-0.1,0.1-0.3,0.2-0.4,0.3c-0.2,0.1-0.3,0.2-0.5,0.2c-0.2,0-0.3,0.1-0.5,0.1c-0.3,0-0.6-0.1-0.8-0.2c-0.2-0.1-0.4-0.4-0.6-0.6
				c-0.1-0.3-0.2-0.6-0.2-1h3.2C217.3,478.2,217.6,478.2,217.8,478.1z M213.7,477.3c0.1-0.5,0.2-1,0.5-1.2c0.3-0.3,0.6-0.4,1-0.4
				c0.4,0,0.8,0.1,1,0.4c0.3,0.3,0.4,0.7,0.4,1.2H213.7z"/>
			<path id="XMLID_936_" class="st32" d="M224.2,472.1c-0.2,0-0.4,0.1-0.6,0.3c-0.1,0.2-0.2,0.4-0.2,0.8v2.4
				c-0.3-0.3-0.6-0.6-0.9-0.7c-0.3-0.2-0.7-0.2-1.2-0.2c-0.8,0-1.5,0.3-2,0.8c-0.5,0.6-0.7,1.4-0.7,2.4c0,0.5,0.1,0.9,0.2,1.3
				c0.1,0.4,0.3,0.8,0.5,1.1c0.2,0.3,0.5,0.5,0.9,0.7c0.3,0.2,0.7,0.2,1.1,0.2c0.3,0,0.6,0,0.8-0.1c0.2-0.1,0.5-0.2,0.7-0.4
				c0.2-0.2,0.4-0.4,0.6-0.6v0.2c0,0.3,0.1,0.5,0.2,0.7c0.1,0.2,0.3,0.2,0.5,0.2c0.2,0,0.4-0.1,0.6-0.2c0.1-0.2,0.2-0.4,0.2-0.7
				v-7.1c0-0.3-0.1-0.5-0.2-0.7C224.6,472.2,224.5,472.1,224.2,472.1z M223.1,479c-0.1,0.3-0.3,0.5-0.6,0.7
				c-0.2,0.1-0.5,0.2-0.8,0.2c-0.3,0-0.5-0.1-0.8-0.2c-0.2-0.2-0.4-0.4-0.6-0.7c-0.1-0.3-0.2-0.7-0.2-1.1c0-0.4,0.1-0.8,0.2-1.1
				c0.1-0.3,0.3-0.6,0.5-0.7c0.2-0.2,0.5-0.3,0.8-0.3c0.3,0,0.5,0.1,0.8,0.2c0.2,0.2,0.4,0.4,0.6,0.7c0.1,0.3,0.2,0.7,0.2,1.1
				C223.4,478.3,223.3,478.7,223.1,479z"/>
			<path id="XMLID_933_" class="st32" d="M233.6,474.9c-0.4-0.3-0.9-0.4-1.4-0.4c-0.5,0-0.9,0.1-1.2,0.3c-0.3,0.2-0.6,0.4-0.9,0.7
				v-2.5c0-0.3-0.1-0.5-0.2-0.7c-0.1-0.2-0.3-0.2-0.6-0.2c-0.2,0-0.4,0.1-0.6,0.3c-0.1,0.2-0.2,0.4-0.2,0.7v7.1
				c0,0.3,0.1,0.5,0.2,0.7c0.1,0.2,0.3,0.2,0.5,0.2c0.2,0,0.4-0.1,0.6-0.2c0.1-0.2,0.2-0.4,0.2-0.7V480c0.2,0.2,0.3,0.4,0.4,0.5
				c0.1,0.1,0.2,0.2,0.4,0.3c0.2,0.1,0.3,0.2,0.6,0.2c0.2,0.1,0.5,0.1,0.7,0.1c0.4,0,0.8-0.1,1.1-0.2c0.3-0.2,0.6-0.4,0.9-0.7
				c0.2-0.3,0.4-0.7,0.5-1.1c0.1-0.4,0.2-0.9,0.2-1.3c0-0.7-0.1-1.2-0.3-1.7C234.3,475.6,234,475.2,233.6,474.9z M232.8,479.3
				c-0.3,0.4-0.6,0.5-1.1,0.5c-0.5,0-0.9-0.2-1.2-0.5c-0.3-0.3-0.4-0.8-0.4-1.5c0-0.4,0.1-0.8,0.2-1.1c0.1-0.3,0.3-0.6,0.6-0.7
				c0.2-0.2,0.5-0.3,0.8-0.3c0.3,0,0.6,0.1,0.8,0.3c0.2,0.2,0.4,0.4,0.5,0.7c0.1,0.3,0.2,0.7,0.2,1.1
				C233.2,478.5,233.1,479,232.8,479.3z"/>
			<path id="XMLID_931_" class="st32" d="M240.5,474.6c-0.1-0.1-0.2-0.1-0.4-0.1c-0.2,0-0.3,0-0.4,0.1c-0.1,0.1-0.2,0.2-0.3,0.3
				c-0.1,0.2-0.2,0.4-0.3,0.7l-1.3,3.7l-1.4-4c-0.1-0.3-0.2-0.5-0.3-0.6c-0.1-0.1-0.3-0.2-0.5-0.2c-0.1,0-0.3,0-0.4,0.1
				c-0.1,0.1-0.2,0.2-0.3,0.3c-0.1,0.1-0.1,0.2-0.1,0.4c0,0.1,0.1,0.3,0.2,0.6l2,5l-0.1,0.4c-0.1,0.3-0.2,0.5-0.3,0.6
				c-0.1,0.1-0.2,0.2-0.3,0.3c-0.1,0.1-0.3,0.1-0.4,0.1c-0.1,0-0.2,0-0.3,0c-0.1,0-0.2,0-0.3,0c-0.2,0-0.4,0.1-0.5,0.2
				c-0.1,0.1-0.2,0.2-0.2,0.4c0,0.3,0.1,0.5,0.4,0.6c0.2,0.1,0.6,0.2,1.1,0.2c0.5,0,0.9-0.1,1.2-0.2c0.3-0.1,0.5-0.4,0.7-0.6
				c0.2-0.3,0.4-0.7,0.5-1.1l2.1-5.5c0.1-0.1,0.1-0.3,0.1-0.4c0-0.1,0.1-0.2,0.1-0.3c0-0.1,0-0.2-0.1-0.3
				C240.7,474.8,240.6,474.7,240.5,474.6z"/>
		</g>
		<g id="XMLID_365_">
			<g id="XMLID_380_">
				<path id="XMLID_928_" class="st32" d="M262.9,472.1c-0.5,0-1,0.1-1.3,0.2c-0.3,0.1-0.5,0.4-0.7,0.7c-0.1,0.3-0.2,0.7-0.2,1.2
					v0.5h-0.4c-0.5,0-0.8,0.2-0.8,0.6c0,0.2,0.1,0.3,0.2,0.4c0.1,0.1,0.3,0.2,0.6,0.2h0.4v4.3c0,0.3,0.1,0.6,0.2,0.7
					c0.2,0.2,0.3,0.3,0.6,0.3c0.2,0,0.4-0.1,0.6-0.3c0.2-0.2,0.2-0.4,0.2-0.7v-4.3h0.4c0.3,0,0.5,0,0.7-0.1c0.2-0.1,0.2-0.2,0.2-0.5
					c0-0.4-0.3-0.6-0.9-0.6h-0.4v-0.4c0-0.3,0-0.6,0.1-0.7c0.1-0.2,0.3-0.3,0.6-0.3c0.1,0,0.2,0,0.4,0c0.2,0,0.3,0,0.3,0
					c0.1,0,0.3-0.1,0.3-0.2c0.1-0.1,0.2-0.2,0.2-0.4C264.3,472.4,263.9,472.1,262.9,472.1z"/>
				<path id="XMLID_926_" class="st32" d="M268.1,474.8c-0.3-0.2-0.6-0.3-1-0.3c-0.3,0-0.6,0.1-0.8,0.3c-0.2,0.2-0.4,0.4-0.6,0.8
					c0-0.3-0.1-0.6-0.2-0.8c-0.1-0.2-0.3-0.3-0.6-0.3c-0.5,0-0.8,0.4-0.8,1.1v4.5c0,0.3,0.1,0.6,0.2,0.7c0.1,0.2,0.3,0.3,0.6,0.3
					c0.2,0,0.4-0.1,0.6-0.2c0.2-0.2,0.2-0.4,0.2-0.7v-1.4c0-0.5,0-0.9,0-1.2c0-0.3,0.1-0.6,0.2-0.9c0.1-0.2,0.2-0.4,0.4-0.6
					c0.1-0.1,0.3-0.2,0.6-0.2c0.2,0,0.4,0,0.6,0.1c0.2,0.1,0.4,0.1,0.4,0.1c0.2,0,0.3-0.1,0.4-0.2c0.1-0.1,0.2-0.3,0.2-0.5
					C268.6,475.2,268.4,475,268.1,474.8z"/>
				<path id="XMLID_922_" class="st32" d="M274.2,478.1c0.2-0.1,0.4-0.4,0.4-0.8c0-0.4-0.1-0.9-0.3-1.3c-0.2-0.4-0.6-0.8-1-1
					c-0.5-0.3-1-0.4-1.6-0.4c-0.5,0-0.9,0.1-1.3,0.2c-0.4,0.2-0.7,0.4-1,0.7c-0.3,0.3-0.5,0.6-0.6,1.1c-0.1,0.4-0.2,0.9-0.2,1.3
					c0,1,0.3,1.8,0.9,2.4c0.6,0.6,1.4,0.9,2.4,0.9c0.5,0,0.9-0.1,1.2-0.2c0.3-0.1,0.6-0.3,0.9-0.4c0.2-0.2,0.4-0.4,0.5-0.6
					c0.1-0.2,0.2-0.4,0.2-0.5c0-0.2,0-0.3-0.2-0.4c-0.1-0.1-0.2-0.1-0.4-0.1c-0.2,0-0.3,0-0.4,0.1c-0.2,0.2-0.4,0.3-0.5,0.4
					c-0.1,0.1-0.3,0.2-0.4,0.3c-0.2,0.1-0.3,0.2-0.5,0.2c-0.2,0-0.3,0.1-0.5,0.1c-0.3,0-0.6-0.1-0.8-0.2c-0.2-0.1-0.4-0.4-0.6-0.6
					c-0.1-0.3-0.2-0.6-0.2-1h3.2C273.6,478.2,273.9,478.2,274.2,478.1z M270,477.3c0.1-0.5,0.2-1,0.5-1.2c0.3-0.3,0.6-0.4,1-0.4
					c0.4,0,0.8,0.1,1,0.4c0.3,0.3,0.4,0.7,0.4,1.2H270z"/>
				<path id="XMLID_919_" class="st32" d="M280.9,478.1c0.2-0.1,0.4-0.4,0.4-0.8c0-0.4-0.1-0.9-0.3-1.3c-0.2-0.4-0.6-0.8-1-1
					c-0.5-0.3-1-0.4-1.6-0.4c-0.5,0-0.9,0.1-1.3,0.2c-0.4,0.2-0.7,0.4-1,0.7c-0.3,0.3-0.5,0.6-0.6,1.1c-0.1,0.4-0.2,0.9-0.2,1.3
					c0,1,0.3,1.8,0.9,2.4c0.6,0.6,1.4,0.9,2.4,0.9c0.5,0,0.9-0.1,1.2-0.2c0.3-0.1,0.6-0.3,0.9-0.4c0.2-0.2,0.4-0.4,0.5-0.6
					c0.1-0.2,0.2-0.4,0.2-0.5c0-0.2,0-0.3-0.2-0.4c-0.1-0.1-0.2-0.1-0.4-0.1c-0.2,0-0.3,0-0.4,0.1c-0.2,0.2-0.4,0.3-0.5,0.4
					c-0.1,0.1-0.3,0.2-0.4,0.3c-0.2,0.1-0.3,0.2-0.5,0.2c-0.2,0-0.3,0.1-0.5,0.1c-0.3,0-0.6-0.1-0.8-0.2c-0.2-0.1-0.4-0.4-0.6-0.6
					c-0.1-0.3-0.2-0.6-0.2-1h3.2C280.4,478.2,280.7,478.2,280.9,478.1z M276.8,477.3c0.1-0.5,0.2-1,0.5-1.2c0.3-0.3,0.6-0.4,1-0.4
					c0.4,0,0.8,0.1,1,0.4c0.3,0.3,0.4,0.7,0.4,1.2H276.8z"/>
				<path id="XMLID_390_" class="st32" d="M286.9,474.9c-0.4-0.3-0.9-0.4-1.4-0.4c-0.4,0-0.8,0.1-1.1,0.3c-0.3,0.2-0.6,0.5-1,0.8
					v-0.2c0-0.3-0.1-0.5-0.2-0.7c-0.1-0.2-0.3-0.2-0.6-0.2c-0.2,0-0.4,0.1-0.6,0.2c-0.1,0.2-0.2,0.4-0.2,0.7v7
					c0,0.4,0.1,0.6,0.1,0.8c0.1,0.2,0.3,0.3,0.6,0.3c0.5,0,0.8-0.4,0.8-1.1V480c0.3,0.4,0.6,0.6,0.9,0.8c0.3,0.2,0.7,0.3,1.2,0.3
					c0.4,0,0.7-0.1,1.1-0.2c0.3-0.2,0.6-0.4,0.9-0.7c0.2-0.3,0.4-0.6,0.6-1c0.1-0.4,0.2-0.9,0.2-1.4c0-0.7-0.1-1.3-0.4-1.8
					C287.7,475.6,287.3,475.2,286.9,474.9z M286.5,478.9c-0.1,0.3-0.3,0.5-0.6,0.7c-0.2,0.2-0.5,0.2-0.7,0.2c-0.5,0-0.8-0.2-1.1-0.5
					c-0.3-0.4-0.5-0.9-0.5-1.5c0-0.7,0.2-1.2,0.5-1.6c0.3-0.3,0.7-0.5,1.1-0.5c0.3,0,0.5,0.1,0.8,0.2c0.2,0.2,0.4,0.4,0.5,0.7
					c0.1,0.3,0.2,0.7,0.2,1.1C286.7,478.2,286.6,478.6,286.5,478.9z"/>
				<path id="XMLID_389_" class="st32" d="M289.9,474.5c-0.2,0-0.4,0.1-0.6,0.2c-0.1,0.2-0.2,0.4-0.2,0.7v4.6c0,0.3,0.1,0.6,0.2,0.7
					c0.2,0.2,0.3,0.3,0.6,0.3s0.4-0.1,0.6-0.3c0.2-0.2,0.2-0.4,0.2-0.7v-4.7c0-0.3-0.1-0.5-0.2-0.7
					C290.3,474.6,290.1,474.5,289.9,474.5z"/>
				<path id="XMLID_388_" class="st32" d="M289.9,472.2c-0.2,0-0.4,0.1-0.6,0.2c-0.2,0.1-0.2,0.3-0.2,0.6c0,0.3,0.1,0.4,0.2,0.6
					c0.2,0.1,0.3,0.2,0.6,0.2c0.2,0,0.4-0.1,0.6-0.2c0.2-0.1,0.2-0.3,0.2-0.6c0-0.3-0.1-0.5-0.2-0.6
					C290.3,472.3,290.1,472.2,289.9,472.2z"/>
				<path id="XMLID_387_" class="st32" d="M297.3,479.6l-1.7-2.6l0.9-0.8c0.4-0.4,0.7-0.7,0.7-1c0-0.2-0.1-0.4-0.2-0.5
					c-0.1-0.1-0.3-0.2-0.5-0.2c-0.2,0-0.3,0-0.4,0.1c-0.1,0.1-0.3,0.3-0.5,0.5l-1.8,1.9v-3.9c0-0.3-0.1-0.6-0.2-0.8
					c-0.1-0.2-0.3-0.3-0.6-0.3c-0.3,0-0.5,0.1-0.6,0.3c-0.1,0.2-0.2,0.5-0.2,0.8v6.9c0,0.3,0.1,0.6,0.2,0.7c0.1,0.2,0.3,0.3,0.6,0.3
					c0.2,0,0.4-0.1,0.6-0.3c0.2-0.2,0.2-0.4,0.2-0.7v-1.3l0.9-0.8l1.4,2.4c0.2,0.3,0.3,0.5,0.4,0.6c0.1,0.1,0.3,0.2,0.5,0.2
					c0.2,0,0.4-0.1,0.6-0.2c0.1-0.2,0.2-0.4,0.2-0.6c0-0.1,0-0.2-0.1-0.3C297.5,479.9,297.4,479.8,297.3,479.6z"/>
				<path id="XMLID_386_" class="st32" d="M299.5,479.3c-0.3,0-0.5,0.1-0.6,0.3c-0.2,0.2-0.3,0.4-0.3,0.6c0,0.3,0.1,0.5,0.3,0.7
					c0.2,0.2,0.4,0.2,0.6,0.2c0.2,0,0.4-0.1,0.6-0.2c0.2-0.2,0.3-0.4,0.3-0.7c0-0.2-0.1-0.5-0.3-0.6
					C299.9,479.4,299.7,479.3,299.5,479.3z"/>
				<path id="XMLID_385_" class="st32" d="M306.8,478.4c-0.2,0-0.3,0.1-0.4,0.2c-0.1,0.1-0.2,0.2-0.3,0.4c-0.2,0.3-0.4,0.5-0.6,0.7
					c-0.2,0.1-0.5,0.2-0.8,0.2c-0.2,0-0.5,0-0.7-0.1c-0.2-0.1-0.4-0.2-0.5-0.4c-0.1-0.2-0.3-0.4-0.3-0.7c-0.1-0.3-0.1-0.5-0.1-0.8
					c0-0.6,0.1-1.2,0.4-1.5c0.3-0.4,0.7-0.6,1.2-0.6c0.3,0,0.6,0.1,0.8,0.2c0.2,0.1,0.4,0.4,0.6,0.7c0.1,0.2,0.2,0.3,0.3,0.3
					c0.1,0.1,0.2,0.1,0.3,0.1c0.2,0,0.4-0.1,0.5-0.2c0.1-0.1,0.2-0.3,0.2-0.5c0-0.2-0.1-0.4-0.2-0.6c-0.1-0.2-0.3-0.4-0.6-0.6
					c-0.2-0.2-0.5-0.4-0.9-0.5c-0.4-0.1-0.7-0.2-1.2-0.2c-0.7,0-1.3,0.1-1.7,0.4c-0.5,0.3-0.9,0.7-1.1,1.2c-0.3,0.5-0.4,1.1-0.4,1.8
					c0,1,0.3,1.8,0.8,2.3c0.6,0.6,1.3,0.9,2.3,0.9c0.5,0,0.9-0.1,1.3-0.2c0.4-0.1,0.7-0.3,0.9-0.5c0.2-0.2,0.4-0.4,0.6-0.7
					c0.1-0.2,0.2-0.4,0.2-0.6c0-0.2-0.1-0.3-0.2-0.5C307.2,478.5,307,478.4,306.8,478.4z"/>
				<path id="XMLID_382_" class="st32" d="M313.6,475.5c-0.3-0.3-0.6-0.5-1-0.7c-0.4-0.2-0.8-0.2-1.3-0.2c-0.5,0-0.9,0.1-1.3,0.2
					c-0.4,0.2-0.7,0.4-1,0.7c-0.3,0.3-0.5,0.6-0.6,1c-0.1,0.4-0.2,0.9-0.2,1.3c0,0.5,0.1,0.9,0.2,1.3c0.2,0.4,0.4,0.8,0.7,1
					c0.3,0.3,0.6,0.5,1,0.7c0.4,0.2,0.8,0.2,1.3,0.2c0.5,0,0.9-0.1,1.3-0.2c0.4-0.2,0.7-0.4,1-0.7c0.3-0.3,0.5-0.6,0.7-1
					c0.1-0.4,0.2-0.9,0.2-1.3c0-0.5-0.1-0.9-0.2-1.3C314.1,476.1,313.9,475.7,313.6,475.5z M312.5,479.4c-0.3,0.4-0.7,0.6-1.2,0.6
					c-0.3,0-0.6-0.1-0.8-0.3c-0.2-0.2-0.4-0.4-0.6-0.7c-0.1-0.3-0.2-0.7-0.2-1.1c0-0.4,0.1-0.8,0.2-1.1c0.1-0.3,0.3-0.6,0.6-0.7
					c0.2-0.2,0.5-0.2,0.8-0.2c0.5,0,0.9,0.2,1.2,0.6c0.3,0.4,0.4,0.9,0.4,1.5C312.9,478.5,312.7,479,312.5,479.4z"/>
				<path id="XMLID_381_" class="st32" d="M323.6,474.8c-0.3-0.2-0.7-0.3-1.1-0.3c-0.4,0-0.7,0.1-1,0.2c-0.3,0.2-0.6,0.4-0.9,0.7
					c-0.2-0.3-0.4-0.6-0.7-0.7c-0.3-0.2-0.6-0.2-1-0.2c-0.4,0-0.7,0.1-1.1,0.2c-0.3,0.2-0.6,0.4-0.9,0.7v-0.2c0-0.3-0.1-0.5-0.2-0.6
					c-0.2-0.1-0.3-0.2-0.6-0.2c-0.2,0-0.4,0.1-0.6,0.2c-0.1,0.2-0.2,0.4-0.2,0.7v4.6c0,0.3,0.1,0.6,0.2,0.8c0.2,0.2,0.4,0.3,0.6,0.3
					c0.2,0,0.4-0.1,0.6-0.3c0.1-0.2,0.2-0.4,0.2-0.8v-2.2c0-0.7,0.1-1.2,0.3-1.6c0.2-0.4,0.5-0.5,1-0.5c0.3,0,0.5,0.1,0.6,0.2
					c0.1,0.1,0.2,0.3,0.2,0.6c0,0.2,0,0.5,0,1v2.6c0,0.3,0.1,0.6,0.2,0.8c0.1,0.2,0.3,0.3,0.6,0.3c0.3,0,0.5-0.1,0.6-0.3
					c0.2-0.2,0.2-0.4,0.2-0.8V478c0-0.7,0.1-1.2,0.2-1.5c0.1-0.2,0.3-0.4,0.5-0.5c0.2-0.1,0.4-0.2,0.6-0.2c0.3,0,0.5,0.1,0.6,0.2
					c0.1,0.1,0.2,0.3,0.2,0.5c0,0.2,0,0.5,0,0.8v2.7c0,0.3,0.1,0.6,0.2,0.8c0.2,0.2,0.4,0.3,0.6,0.3c0.3,0,0.5-0.1,0.6-0.3
					c0.2-0.2,0.2-0.4,0.2-0.8v-3.2c0-0.6-0.1-1.1-0.2-1.4C324.1,475.2,323.9,475,323.6,474.8z"/>
			</g>
			<g id="XMLID_366_">
				<path id="XMLID_379_" class="st32" d="M245.3,477.4C245.3,477.4,245.3,477.4,245.3,477.4C245.3,477.4,245.3,477.4,245.3,477.4z"
					/>
				<path id="XMLID_378_" class="st32" d="M245.4,478C245.4,478,245.4,478,245.4,478c0-0.1-0.1-0.3-0.1-0.4
					C245.3,477.7,245.3,477.8,245.4,478z"/>
				<path id="XMLID_377_" class="st32" d="M245.9,479.5C245.9,479.5,245.9,479.5,245.9,479.5C245.9,479.5,245.9,479.5,245.9,479.5z"
					/>
				<path id="XMLID_376_" class="st32" d="M245.8,479.4C245.8,479.3,245.8,479.3,245.8,479.4C245.8,479.3,245.8,479.3,245.8,479.4z"
					/>
				<path id="XMLID_375_" class="st32" d="M245.5,478.5c0.1,0.3,0.2,0.5,0.3,0.7C245.7,479,245.6,478.8,245.5,478.5L245.5,478.5z"/>
				<path id="XMLID_374_" class="st32" d="M250.7,470.7l-0.1-0.3c0.3-0.1,0.5-0.3,0.5-0.6c0-0.4-0.3-0.7-0.7-0.7
					c-0.4,0-0.7,0.3-0.7,0.7c0,0.3,0.2,0.6,0.5,0.6l0.1,0.3c-1,0.1-1.8,0.5-1.8,0.5l0.1,0.4c0.6-0.2,1.2-0.3,1.6-0.4
					c0.5-0.1,0.8-0.1,1.1-0.1c0.3,0,0.5,0,0.8,0.1l0.1-0.5C252.4,470.8,251.7,470.6,250.7,470.7z"/>
				<path id="XMLID_373_" class="st32" d="M245.5,473.2c0,0-0.5,0.5-0.9,1.3c0,0,0-0.1-0.1-0.1c-0.1-0.1-0.3-0.2-0.5-0.2
					c0,0,0,0,0,0c-0.1,0-0.2,0-0.3-0.1c0.1-0.1,0.1-0.2,0.1-0.3c0-0.2-0.2-0.4-0.4-0.4c-0.2,0-0.4,0.2-0.4,0.4
					c0,0.2,0.2,0.4,0.4,0.4c0,0,0.1,0,0.1,0c0.1,0.1,0.3,0.2,0.5,0.2c0.1,0,0.2,0,0.3,0.1c0.1,0.1,0.1,0.2,0.1,0.3c0,0,0,0,0,0
					c-0.3,0.7-0.2,1.7-0.2,1.7l0.7,0c0-0.3,0.1-0.9,0.2-1.4c0.3-0.9,0.7-1.5,0.8-1.5l0,0c0,0,0-0.1,0.1-0.1l-0.2-0.1L245.5,473.2z"
					/>
				<path id="XMLID_372_" class="st32" d="M257.3,471.8c-0.2,0-0.4,0.2-0.4,0.4c0,0,0,0.1,0,0.1c-0.1,0.1-0.2,0.3-0.2,0.5
					c0,0.1,0,0.2-0.1,0.3c-0.1,0-0.1,0.1-0.2,0.1c-0.5-0.7-1.1-1.1-1.1-1.1l-0.5,0.5c0.4,0.3,0.7,0.7,1.1,1.2
					c0.2,0.4,0.5,0.8,0.7,1.3l0.6-0.3c0,0-0.3-0.7-0.7-1.4c0.1,0,0.1-0.1,0.2-0.1c0.1-0.1,0.2-0.3,0.2-0.5c0-0.1,0-0.2,0.1-0.3
					c0.1,0.1,0.2,0.1,0.3,0.1c0.2,0,0.4-0.2,0.4-0.4C257.7,472,257.5,471.8,257.3,471.8z"/>
				<path id="XMLID_371_" class="st32" d="M255.6,477.5c-0.9,0.4-2.3,1-4.2,1.3c-0.7,0.1-1.5,0.1-2.1,0.1c-0.9,0-1.6-0.1-2.2-0.1
					c-0.7-0.1-1.2-0.2-1.5-0.3c0.1,0.2,0.2,0.5,0.3,0.7c0,0,0,0,0,0c0,0,0,0.1,0,0.1c0,0,0,0.1,0,0.1c0,0,0,0,0,0
					c0.2,0.4,0.4,0.7,0.7,1c0.9,1,1.8,1.1,1.8,1.1l0,0l0,0c0,0,0.8,0.3,2.1,0.3c1.2,0,2.4-0.2,3.5-0.7c0.8-0.4,1.6-1.1,2-1.7
					c0.3-0.5,0.5-0.9,0.7-1.4c0.1-0.3,0.1-0.7,0.1-1.1C256.6,477,256.2,477.3,255.6,477.5z"/>
				<path id="XMLID_367_" class="st32" d="M252.3,471.7c-0.3,0-0.5-0.1-0.8-0.1c-0.3,0-0.6,0-1.1,0.1c-0.5,0-1,0.2-1.6,0.4
					c-0.8,0.3-1.6,0.7-2.2,1.3l0,0c-0.1,0.1-0.3,0.3-0.5,0.5c0,0-0.4,0.6-0.7,1.4c-0.2,0.6-0.2,1.5-0.2,1.5v0c0,0.2,0,0.4,0,0.6
					c0,0,0,0,0,0c0,0,0,0.1,0,0.1c0,0.1,0,0.3,0.1,0.4c0.4,0.1,3,0.7,6,0.3c1.8-0.3,3.2-0.8,4.1-1.2c0.7-0.3,1.2-0.6,1.3-0.8
					c-0.2-0.6-0.7-1.7-1.1-2.3C254.4,472.2,253,471.8,252.3,471.7z M248.7,476.9c-1,0-1.8-0.8-1.8-1.8c0-1,0.8-1.8,1.8-1.8
					c1,0,1.8,0.8,1.8,1.8C250.4,476.1,249.7,476.9,248.7,476.9z M253.8,475.6c-0.6,0-1.1-0.5-1.1-1.1c0-0.6,0.5-1.1,1.1-1.1
					s1.1,0.5,1.1,1.1C254.9,475.1,254.4,475.6,253.8,475.6z"/>
			</g>
		</g>
	</g>
</g>
</svg>
