<?xml version="1.0" encoding="utf-8"?>
<!-- Generator: Adobe Illustrator 22.1.0, SVG Export Plug-In . SVG Version: 6.00 Build 0)  -->
<svg version="1.1" xmlns="http://www.w3.org/2000/svg" xmlns:xlink="http://www.w3.org/1999/xlink" x="0px" y="0px"
	 viewBox="0 0 500 500" style="enable-background:new 0 0 500 500;" xml:space="preserve">
<style type="text/css">
	.st0{display:none;}
	.st1{display:inline;fill:#3DBBE3;}
	.st2{fill:#26A2C9;}
	.st3{fill:#FFFFFF;}
	.st4{fill:#B3B3B3;}
	.st5{fill:#FFCD97;}
	.st6{fill:#DEB385;}
	.st7{fill:#B88F63;}
	.st8{fill:none;stroke:#9E7F5D;stroke-width:2;stroke-linecap:round;stroke-linejoin:round;stroke-miterlimit:10;}
	.st9{fill:#634A2E;}
	.st10{fill:#87653F;}
	.st11{fill:#3B445A;}
	.st12{fill:#282E3D;}
	.st13{fill:#3C455B;}
	.st14{fill:#3091B0;}
	.st15{fill:#D8E3E3;}
	.st16{fill:#B3BDBD;}
	.st17{fill:#161C2B;}
	.st18{fill:#B5D649;}
	.st19{fill:#EDD328;}
	.st20{fill:#ED565B;}
	.st21{fill:#C3CDCD;}
	.st22{fill:#949C9C;}
	.st23{fill:#3DBBE3;}
	.st24{font-family:'Comfortaa-Thin';}
	.st25{font-size:7.7781px;}
	.st26{font-family:'Comfortaa';}
	.st27{font-size:26.4838px;}
	.st28{font-size:11.0331px;}
	.st29{fill:#9DA6A6;}
	.st30{fill:#F1535C;}
	.st31{fill:#B53037;}
	.st32{fill:#5D657A;}
	.st33{fill:#495066;}
	.st34{display:inline;}
	.st35{fill:#1485A8;}
</style>
<g id="BACKGROUND" class="st0">
	<rect class="st1" width="500" height="500"/>
</g>
<g id="OBJECTS">
	<ellipse class="st2" cx="250" cy="432.2" rx="126.8" ry="29.3"/>
	<g>
		<path class="st3" d="M88.2,182c0,0,27.1-35,137.8-46.8l9.6,32c0,0-76.9,0-112.4,36.5L88.2,182z"/>
		<path class="st3" d="M413.1,202.1c0,0-28.4-48.3-139.1-60.1l-9.6,32c0,0,79.3,14.2,114.7,50.8L413.1,202.1z"/>
		<g>
			<path class="st3" d="M101.1,229c0,0-22.3,4.5-18.1-33.4c3-27,32.2-26.3,66.2-28.4l-20.3,30.1L101.1,229z"/>
			<path class="st4" d="M103.3,185.6c-8.3,0-15.1,6.8-15.1,15.1v20.1c0,1.6,0.2,3.1,0.7,4.5c5.4,5.2,12.2,3.8,12.2,3.8l17.3-19.7
				v-8.7C118.4,192.4,111.6,185.6,103.3,185.6z"/>
			<path class="st5" d="M106.8,191.4l-7.9,9.7c-1.5,1.9-4.4,2.2-6.3,0.6l-0.9-0.7c-1.9-1.5-2.2-4.4-0.6-6.3L99,185
				c1.5-1.9,4.4-2.2,6.3-0.6l0.9,0.7C108.1,186.7,108.4,189.5,106.8,191.4z"/>
		</g>
		<g>
			<path class="st3" d="M398.9,247.3c0,0,22.3,4.5,18.1-33.4c-3-27-32.2-26.3-66.2-28.4l20.3,30.1L398.9,247.3z"/>
			<path class="st4" d="M396.7,203.8c8.3,0,15.1,6.8,15.1,15.1V239c0,1.6-0.2,3.1-0.7,4.5c-5.4,5.2-12.2,3.8-12.2,3.8l-17.3-19.7
				v-8.7C381.6,210.6,388.4,203.8,396.7,203.8z"/>
			<path class="st5" d="M391.6,208.6l7.9,9.7c1.5,1.9,4.4,2.2,6.3,0.6l0.9-0.7c1.9-1.5,2.2-4.4,0.6-6.3l-7.9-9.7
				c-1.5-1.9-4.4-2.2-6.3-0.6l-0.9,0.7C390.3,203.9,390,206.7,391.6,208.6z"/>
		</g>
		<g>
			<g>
				<path class="st6" d="M204.7,135.1L204.7,135.1c-6.4,0-11.6-5.2-11.6-11.6V115c0-6.4,5.2-11.6,11.6-11.6l0,0
					c6.4,0,11.6,5.2,11.6,11.6v8.5C216.3,129.9,211.1,135.1,204.7,135.1z"/>
				<path class="st7" d="M205.2,127.5h-0.9c-4,0-7.3-3.3-7.3-7.3V116c0-4,3.3-7.3,7.3-7.3h0.9c4,0,7.3,3.3,7.3,7.3v4.2
					C212.5,124.2,209.2,127.5,205.2,127.5z"/>
				<path class="st6" d="M207,121.8h-4.6c-1.4,0-2.6-1.2-2.6-2.6l0,0c0-1.4,1.2-2.6,2.6-2.6h4.6c1.4,0,2.6,1.2,2.6,2.6l0,0
					C209.6,120.7,208.4,121.8,207,121.8z"/>
			</g>
			<g>
				<path class="st6" d="M295.7,135.1L295.7,135.1c6.4,0,11.6-5.2,11.6-11.6V115c0-6.4-5.2-11.6-11.6-11.6l0,0
					c-6.4,0-11.6,5.2-11.6,11.6v8.5C284.1,129.9,289.3,135.1,295.7,135.1z"/>
				<path class="st7" d="M295.2,127.5h0.9c4,0,7.3-3.3,7.3-7.3V116c0-4-3.3-7.3-7.3-7.3h-0.9c-4,0-7.3,3.3-7.3,7.3v4.2
					C288,124.2,291.2,127.5,295.2,127.5z"/>
				<path class="st6" d="M293.4,121.8h4.6c1.4,0,2.6-1.2,2.6-2.6l0,0c0-1.4-1.2-2.6-2.6-2.6h-4.6c-1.4,0-2.6,1.2-2.6,2.6l0,0
					C290.8,120.7,292,121.8,293.4,121.8z"/>
			</g>
			<path class="st5" d="M250.2,168.4L250.2,168.4c-25,0-45.5-20.5-45.5-45.5V96.7c0-21.6,17.7-39.3,39.3-39.3h12.4
				c21.6,0,39.3,17.7,39.3,39.3v26.2C295.7,148,275.2,168.4,250.2,168.4z"/>
			<path class="st6" d="M250.2,126.2L250.2,126.2c-4.7,0-8.6-3.9-8.6-8.6v-13.1c0-4.7,3.9-8.6,8.6-8.6l0,0c4.7,0,8.6,3.9,8.6,8.6
				v13.1C258.8,122.3,254.9,126.2,250.2,126.2z"/>
			<path class="st8" d="M233.4,100.8c0,4.1-3.3,7.4-7.4,7.4c-4.1,0-7.4-3.3-7.4-7.4"/>
			<path class="st8" d="M282,100.8c0,4.1-3.3,7.4-7.4,7.4c-4.1,0-7.3-3.3-7.3-7.4"/>
			<path class="st9" d="M232.8,90.9l-12,3.3c-1.6,0.4-3.3-0.5-3.7-2.1l0,0c-0.4-1.6,0.5-3.3,2.1-3.7l12-3.3c1.6-0.4,3.3,0.5,3.7,2.1
				l0,0C235.4,88.8,234.5,90.4,232.8,90.9z"/>
			<path class="st9" d="M267.8,90.9l12,3.3c1.6,0.4,3.3-0.5,3.7-2.1l0,0c0.4-1.6-0.5-3.3-2.1-3.7l-12-3.3c-1.6-0.4-3.3,0.5-3.7,2.1
				l0,0C265.2,88.8,266.2,90.4,267.8,90.9z"/>
			<path class="st9" d="M204.7,108.7c0,0-9.3-34.8,4.7-43c14-8.2,7.2,11.8,7.2,11.8S212,99.5,204.7,108.7z"/>
			<path class="st9" d="M295.6,108.7c0,0,4.4-31.4-5.8-45c-9.7-12.9-6.1,13.7-6.1,13.7S288.3,99.5,295.6,108.7z"/>
			<path class="st10" d="M306.3,38c0,0,4.3,34-29.1,40.7c-36.6,7.3-72.5,5.8-71-10.1c1.1-12,14.2-20,44-19.6
				C295.7,49.7,306.3,38,306.3,38z"/>
		</g>
		<path class="st3" d="M202.7,256.8h101.4c0.4-2.5,0.6-5.1,0.6-7.7v-59.2c0-30-24.5-54.5-54.5-54.5h0c-30,0-54.5,24.5-54.5,54.5V249
			c0,2.8,0.2,5.5,0.6,8.2C198.4,256.9,200.5,256.8,202.7,256.8z"/>
		<path class="st11" d="M250.2,250.3L250.2,250.3c-14.9,0-44.1-5.4-55-14.5c-3.1,43.4-7.4,109.1-8.5,158.3h24
			c0,0,8-121.7,39.5-121.7c31.6,0,39.5,121.7,39.5,121.7h24c-1.2-49.2-5.4-114.9-8.5-158.3C294.3,244.8,265,250.3,250.2,250.3z"/>
		<path class="st12" d="M191.6,353.8c1.2-0.1,2.4-0.1,3.6-0.1c0.8,0,1.6,0,2.3,0c0.2,0,0.5,0,0.7,0c0.6,0,1.1,0,1.7,0.1
			c0.2,0,0.5,0,0.7,0.1c0.6,0,1.1,0.1,1.7,0.1c0.2,0,0.4,0,0.6,0.1c0.7,0.1,1.4,0.2,2.1,0.2c0.1,0,0.1,0,0.2,0
			c1.6,0.2,3.2,0.5,4.8,0.8c0,0,0,0,0.1,0c0.8,0.2,1.5,0.3,2.3,0.5c0.1,0,0.1,0,0.2,0c0.8,0.2,1.5,0.4,2.3,0.6l0,0
			c5.1-35.8,15.6-84.1,35.5-84.1c19.9,0,30.4,48.3,35.5,84.1c0.7-0.2,1.5-0.4,2.3-0.6c0.1,0,0.1,0,0.2,0c0.7-0.2,1.5-0.3,2.2-0.5
			c0,0,0.1,0,0.1,0c1.6-0.3,3.2-0.6,4.8-0.8c0.1,0,0.1,0,0.2,0c0.7-0.1,1.4-0.2,2.1-0.2c0.2,0,0.4,0,0.6-0.1
			c0.6-0.1,1.1-0.1,1.7-0.1c0.2,0,0.5,0,0.7-0.1c0.6,0,1.1-0.1,1.7-0.1c0.2,0,0.5,0,0.7,0c0.8,0,1.6,0,2.4,0c1.2,0,2.4,0,3.6,0.1
			c1.2,0.1,2.3,0.1,3.4,0.2c0,0,0.1,0,0.1,0c-1.8-41.1-4.8-85.9-7.1-118.3c-10.9,9.1-40.1,14.5-55,14.5c-14.9,0-44.1-5.4-55-14.5
			c-2.3,32.4-5.3,77.2-7.1,118.3C189.3,354,190.4,353.9,191.6,353.8z"/>
		<g>
			<g>
				<rect x="101.1" y="131.6" class="st13" width="298.1" height="216.8"/>
				<rect x="105.7" y="135" class="st14" width="289" height="210.1"/>
				<rect x="122.6" y="145.8" class="st3" width="255.2" height="199.3"/>
				<rect x="122.6" y="145.8" class="st3" width="255.2" height="25.2"/>
				<rect x="122.6" y="170.9" class="st15" width="255.2" height="40.7"/>
				<rect x="169.8" y="301.2" class="st15" width="160.7" height="43.9"/>
				<rect x="169.8" y="301.2" class="st16" width="160.7" height="17.9"/>
				<rect x="101.1" y="131.6" class="st13" width="298.1" height="14.1"/>
				<path class="st17" d="M389.3,143.4h-4.5c-1.4,0-2.5-1.1-2.5-2.5v-4.5c0-1.4,1.1-2.5,2.5-2.5h4.5c1.4,0,2.5,1.1,2.5,2.5v4.5
					C391.8,142.3,390.7,143.4,389.3,143.4z"/>
				<path class="st17" d="M375.6,143.4h-4.5c-1.4,0-2.5-1.1-2.5-2.5v-4.5c0-1.4,1.1-2.5,2.5-2.5h4.5c1.4,0,2.5,1.1,2.5,2.5v4.5
					C378.1,142.3,377,143.4,375.6,143.4z"/>
				<path class="st17" d="M361.9,143.4h-4.5c-1.4,0-2.5-1.1-2.5-2.5v-4.5c0-1.4,1.1-2.5,2.5-2.5h4.5c1.4,0,2.5,1.1,2.5,2.5v4.5
					C364.4,142.3,363.3,143.4,361.9,143.4z"/>
				<path class="st18" d="M361.3,142.2H358c-1,0-1.8-0.8-1.8-1.8v-3.3c0-1,0.8-1.8,1.8-1.8h3.3c1,0,1.8,0.8,1.8,1.8v3.3
					C363.2,141.4,362.4,142.2,361.3,142.2z"/>
				<path class="st19" d="M375,142.2h-3.3c-1,0-1.8-0.8-1.8-1.8v-3.3c0-1,0.8-1.8,1.8-1.8h3.3c1,0,1.8,0.8,1.8,1.8v3.3
					C376.9,141.4,376.1,142.2,375,142.2z"/>
				<path class="st20" d="M388.8,142.2h-3.3c-1,0-1.8-0.8-1.8-1.8v-3.3c0-1,0.8-1.8,1.8-1.8h3.3c1,0,1.8,0.8,1.8,1.8v3.3
					C390.6,141.4,389.8,142.2,388.8,142.2z"/>
				<path class="st3" d="M385.2,140.6L385.2,140.6c-0.1-0.1-0.1-0.4,0-0.5l3.3-3.3c0.1-0.1,0.4-0.1,0.5,0l0,0c0.1,0.1,0.1,0.4,0,0.5
					l-3.3,3.3C385.5,140.8,385.3,140.8,385.2,140.6z"/>
				<path class="st3" d="M385.2,136.8L385.2,136.8c0.1-0.1,0.4-0.1,0.5,0l3.3,3.3c0.1,0.1,0.1,0.4,0,0.5l0,0c-0.1,0.1-0.4,0.1-0.5,0
					l-3.3-3.3C385,137.1,385,136.9,385.2,136.8z"/>
				<path class="st3" d="M371.1,140.6L371.1,140.6c0-0.2,0.1-0.4,0.3-0.4h4c0.2,0,0.3,0.1,0.3,0.3v0.1c0,0.2-0.1,0.3-0.3,0.3h-4
					C371.2,140.9,371.1,140.7,371.1,140.6z"/>
				<g>
					<rect x="122.6" y="156.8" class="st21" width="255.2" height="14.1"/>
					<rect x="122.6" y="169.6" class="st22" width="255.2" height="1.3"/>
					<rect x="324.7" y="156.8" class="st23" width="53.1" height="14.1"/>
					<rect x="324.7" y="169.6" class="st14" width="53.1" height="1.3"/>
					<g>
						<path class="st3" d="M334.6,164.4c-0.2,0.2-0.4,0.3-0.6,0.4l0.4,0.4c0.3,0.3,0.7,0.3,1,0c0.3-0.3,0.3-0.7,0-1l-0.4-0.4
							C334.9,164.1,334.8,164.3,334.6,164.4z"/>
						<path class="st3" d="M335.8,165.6c-0.1,0.1-0.3,0.2-0.5,0.2l2.4,2.4c0.2,0.2,0.5,0.2,0.7,0c0.2-0.2,0.2-0.5,0-0.7l-2.4-2.4
							C336,165.3,335.9,165.5,335.8,165.6z"/>
						<path class="st3" d="M329.9,159.7c-1.2,1.2-1.2,3.2,0,4.4c1.2,1.2,3.2,1.2,4.4,0c1.2-1.2,1.2-3.2,0-4.4
							C333.1,158.5,331.1,158.5,329.9,159.7z M333.7,163.5c-0.9,0.9-2.3,0.9-3.2,0c-0.9-0.9-0.9-2.3,0-3.2c0.9-0.9,2.3-0.9,3.2,0
							C334.6,161.2,334.6,162.6,333.7,163.5z"/>
					</g>
					<text transform="matrix(1 0 0 1 342.1945 165.9354)" class="st3 st24 st25">SEARCH</text>
				</g>
				<text transform="matrix(1 0 0 1 210.3756 200.9531)" class="st3 st26 st27">ERROR!</text>
				<text transform="matrix(1 0 0 1 187.0719 313.8573)" class="st3 st24 st28">SORRY, PAGE NOT FOUND</text>
				<g>
					<path class="st16" d="M192,221.7l-16.2,38.9h6.6v-13.1h20.4v13.1h7.8v16h-7.8v13.2h-20.4v-13.2h-29V262l17.4-40.3H192z"/>
					<path class="st16" d="M328.3,221.7l-16.2,38.9h6.6v-13.1h20.4v13.1h7.8v16h-7.8v13.2h-20.4v-13.2h-29V262l17.4-40.3H328.3z"/>
					<path class="st21" d="M250.2,221.7c-18.8,0-34,15.2-34,34s15.2,34,34,34s34-15.2,34-34S269,221.7,250.2,221.7z"/>
					<path class="st29" d="M260.9,257.3l1.7-1.7l0,0l3.8-3.8c3-3,3-7.9,0-10.9l0,0c-3-3-7.9-3-10.9,0l-3.8,3.8l-1.7,1.7l-5.6-5.6
						c-3-3-7.9-3-10.9,0c-3,3-3,7.9,0,10.9l5.6,5.6l-1.7,1.7h0l-3.8,3.8c-3,3-3,7.9,0,10.9c3,3,7.9,3,10.9,0l3.8-3.8l0,0l1.7-1.7
						l5.6,5.6c3,3,7.9,3,10.9,0l0,0c3-3,3-7.9,0-10.9L260.9,257.3z"/>
					<g>
						<path class="st30" d="M234.3,271.5L234.3,271.5c-2.9-2.9-2.9-7.6,0-10.4l21.1-21.1c2.9-2.9,7.6-2.9,10.4,0l0,0
							c2.9,2.9,2.9,7.6,0,10.4l-21.1,21.1C241.8,274.3,237.1,274.3,234.3,271.5z"/>
						
							<rect x="240.3" y="248.3" transform="matrix(0.7071 -0.7071 0.7071 0.7071 -107.5579 251.6947)" class="st31" width="19.5" height="14.8"/>
						<path class="st30" d="M234.3,239.9L234.3,239.9c2.9-2.9,7.6-2.9,10.4,0l21.1,21.1c2.9,2.9,2.9,7.6,0,10.4l0,0
							c-2.9,2.9-7.6,2.9-10.4,0l-21.1-21.1C231.4,247.5,231.4,242.8,234.3,239.9z"/>
					</g>
				</g>
			</g>
			<g>
				<path class="st3" d="M197.2,188.1c-1.8,0-3.2,1.4-3.2,3.2c0,1.8,1.4,3.2,3.2,3.2c1.8,0,3.2-1.4,3.2-3.2
					C200.4,189.5,199,188.1,197.2,188.1z"/>
				<path class="st3" d="M303.2,188.1c-1.8,0-3.2,1.4-3.2,3.2c0,1.8,1.4,3.2,3.2,3.2s3.2-1.4,3.2-3.2
					C306.3,189.5,304.9,188.1,303.2,188.1z"/>
			</g>
		</g>
		<path class="st17" d="M187.7,392.5c0,0-4.7,17.9-33.1,24.3c-3.8,0.9-7.2,2.9-9.5,6.1c-1.9,2.8-3.4,6.7-2.5,11.6
			c0.8,4.3,5.2,7,9.5,6c12.3-3,40.1-9.3,61.8-10.9c0,0,2.6-24.6-3.2-35.7L187.7,392.5z"/>
		<path class="st17" d="M313,392.5c0,0,4.7,17.9,33.1,24.3c3.8,0.9,7.2,2.9,9.5,6.1c1.9,2.8,3.4,6.7,2.5,11.6c-0.8,4.3-5.2,7-9.5,6
			c-12.3-3-40.1-9.3-61.8-10.9c0,0-2.6-24.6,3.2-35.7L313,392.5z"/>
		<path class="st32" d="M209.4,399.3h-22.4c-3.7,0-6.7-3-6.7-6.7v0c0-3.7,3-6.7,6.7-6.7h22.4c3.7,0,6.7,3,6.7,6.7v0
			C216.2,396.2,213.1,399.3,209.4,399.3z"/>
		<path class="st32" d="M313.5,399.3h-22.4c-3.7,0-6.7-3-6.7-6.7v0c0-3.7,3-6.7,6.7-6.7h22.4c3.7,0,6.7,3,6.7,6.7v0
			C320.2,396.2,317.2,399.3,313.5,399.3z"/>
		<path class="st33" d="M209.4,392.5h-22.4c-2.5,0-4.7-1.4-5.8-3.4c-0.6,1-0.9,2.1-0.9,3.4c0,3.7,3,6.7,6.7,6.7h22.4
			c3.7,0,6.7-3,6.7-6.7c0-1.2-0.3-2.4-0.9-3.4C214.1,391.2,211.9,392.5,209.4,392.5z"/>
		<path class="st33" d="M313.5,392.5h-22.4c-2.5,0-4.7-1.4-5.8-3.4c-0.6,1-0.9,2.1-0.9,3.4c0,3.7,3,6.7,6.7,6.7h22.4
			c3.7,0,6.7-3,6.7-6.7c0-1.2-0.3-2.4-0.9-3.4C318.1,391.2,315.9,392.5,313.5,392.5z"/>
		<path class="st5" d="M399.2,251.9L399.2,251.9c-8.3,0-15.1-6.8-15.1-15.1v-14.1c0-8.3,6.8-15.1,15.1-15.1l0,0
			c8.3,0,15.1,6.8,15.1,15.1v14.1C414.3,245.1,407.5,251.9,399.2,251.9z"/>
		<path class="st5" d="M363.1,218.8h32.1c2.8,0,5-2.3,5-5l0,0c0-2.8-2.3-5-5-5h-32.1c-2.8,0-5,2.3-5,5l0,0
			C358.1,216.5,360.4,218.8,363.1,218.8z"/>
		<path class="st5" d="M361,229.7h31.5c2.6,0,4.8-2.1,4.8-4.8v-0.6c0-2.6-2.1-4.8-4.8-4.8H361c-2.6,0-4.8,2.1-4.8,4.8v0.6
			C356.2,227.6,358.3,229.7,361,229.7z"/>
		<path class="st5" d="M364.7,240.5h27.5c2.8,0,5-2.3,5-5l0,0c0-2.8-2.3-5-5-5h-27.5c-2.8,0-5,2.3-5,5l0,0
			C359.7,238.2,362,240.5,364.7,240.5z"/>
		<path class="st5" d="M371.6,251h24.9c2.8,0,5-2.3,5-5l0,0c0-2.8-2.3-5-5-5h-24.9c-2.8,0-5,2.3-5,5l0,0
			C366.5,248.7,368.8,251,371.6,251z"/>
		<path class="st5" d="M101.1,233.7L101.1,233.7c-8.3,0-15.1-6.8-15.1-15.1v-13.1c0-8.3,6.8-15.1,15.1-15.1l0,0
			c8.3,0,15.1,6.8,15.1,15.1v13.1C116.2,226.9,109.4,233.7,101.1,233.7z"/>
		<path class="st5" d="M135.9,201.4h-32.1c-2.8,0-5-2.3-5-5l0,0c0-2.8,2.3-5,5-5h32.1c2.8,0,5,2.3,5,5l0,0
			C140.9,199.1,138.7,201.4,135.9,201.4z"/>
		<path class="st5" d="M138.1,212.4h-31.5c-2.6,0-4.8-2.1-4.8-4.8V207c0-2.6,2.1-4.8,4.8-4.8h31.5c2.6,0,4.8,2.1,4.8,4.8v0.6
			C142.9,210.2,140.7,212.4,138.1,212.4z"/>
		<path class="st5" d="M134.3,223.1h-27.5c-2.8,0-5-2.3-5-5l0,0c0-2.8,2.3-5,5-5h27.5c2.8,0,5,2.3,5,5l0,0
			C139.4,220.8,137.1,223.1,134.3,223.1z"/>
		<path class="st5" d="M127.5,233.6h-24.9c-2.8,0-5-2.3-5-5l0,0c0-2.8,2.3-5,5-5h24.9c2.8,0,5,2.3,5,5l0,0
			C132.5,231.4,130.2,233.6,127.5,233.6z"/>
	</g>
</g>
<g id="DESIGNED_BY_FREEPIK" class="st0">
	<g id="XMLID_76_" class="st34">
		<g id="XMLID_929_">
			<path id="XMLID_958_" class="st35" d="M181.1,478.1c-0.2,0-0.4,0.1-0.6,0.3c-0.1,0.2-0.2,0.4-0.2,0.8v2.4
				c-0.3-0.3-0.6-0.6-0.9-0.7c-0.3-0.2-0.7-0.2-1.2-0.2c-0.8,0-1.5,0.3-2,0.8c-0.5,0.6-0.7,1.4-0.7,2.4c0,0.5,0.1,0.9,0.2,1.3
				c0.1,0.4,0.3,0.8,0.5,1.1c0.2,0.3,0.5,0.5,0.9,0.7c0.3,0.2,0.7,0.2,1.1,0.2c0.3,0,0.6,0,0.8-0.1c0.2-0.1,0.5-0.2,0.7-0.4
				c0.2-0.2,0.4-0.4,0.6-0.6v0.2c0,0.3,0.1,0.5,0.2,0.7c0.1,0.2,0.3,0.2,0.5,0.2c0.2,0,0.4-0.1,0.6-0.2c0.1-0.2,0.2-0.4,0.2-0.7
				v-7.1c0-0.3-0.1-0.5-0.2-0.7C181.5,478.2,181.3,478.1,181.1,478.1z M180,485c-0.1,0.3-0.3,0.5-0.6,0.7c-0.2,0.1-0.5,0.2-0.8,0.2
				c-0.3,0-0.5-0.1-0.8-0.2c-0.2-0.2-0.4-0.4-0.6-0.7c-0.1-0.3-0.2-0.7-0.2-1.1c0-0.4,0.1-0.8,0.2-1.1c0.1-0.3,0.3-0.6,0.5-0.7
				c0.2-0.2,0.5-0.3,0.8-0.3c0.3,0,0.5,0.1,0.8,0.2c0.2,0.2,0.4,0.4,0.6,0.7c0.1,0.3,0.2,0.7,0.2,1.1
				C180.2,484.3,180.2,484.7,180,485z"/>
			<path id="XMLID_954_" class="st35" d="M188.5,484.1c0.2-0.1,0.4-0.4,0.4-0.8c0-0.4-0.1-0.9-0.3-1.3c-0.2-0.4-0.6-0.8-1-1
				c-0.5-0.3-1-0.4-1.6-0.4c-0.5,0-0.9,0.1-1.3,0.2c-0.4,0.2-0.7,0.4-1,0.7c-0.3,0.3-0.5,0.6-0.6,1.1c-0.1,0.4-0.2,0.9-0.2,1.3
				c0,1,0.3,1.8,0.9,2.4c0.6,0.6,1.4,0.9,2.4,0.9c0.5,0,0.9-0.1,1.2-0.2c0.4-0.1,0.6-0.3,0.9-0.4c0.2-0.2,0.4-0.4,0.5-0.6
				c0.1-0.2,0.2-0.4,0.2-0.5c0-0.2-0.1-0.3-0.2-0.4c-0.1-0.1-0.2-0.1-0.4-0.1c-0.2,0-0.3,0-0.4,0.1c-0.2,0.2-0.4,0.3-0.5,0.5
				s-0.3,0.2-0.4,0.3c-0.2,0.1-0.3,0.2-0.5,0.2c-0.2,0-0.3,0.1-0.5,0.1c-0.3,0-0.6-0.1-0.8-0.2c-0.2-0.1-0.4-0.4-0.6-0.6
				c-0.1-0.3-0.2-0.6-0.2-1h3.2C187.9,484.2,188.2,484.2,188.5,484.1z M184.3,483.3c0.1-0.5,0.2-1,0.5-1.2c0.3-0.3,0.6-0.4,1-0.4
				c0.4,0,0.8,0.1,1,0.4c0.3,0.3,0.4,0.7,0.4,1.2H184.3z"/>
			<path id="XMLID_952_" class="st35" d="M193.9,483.6c-0.3-0.2-0.7-0.3-1.2-0.4c-0.4-0.1-0.8-0.2-1-0.3c-0.2-0.1-0.4-0.2-0.6-0.3
				c-0.1-0.1-0.2-0.2-0.2-0.4c0-0.2,0.1-0.3,0.3-0.5c0.2-0.1,0.4-0.2,0.7-0.2c0.3,0,0.5,0,0.7,0.1c0.2,0.1,0.3,0.2,0.4,0.4
				c0.2,0.2,0.3,0.3,0.4,0.4c0.1,0.1,0.3,0.1,0.4,0.1c0.2,0,0.4-0.1,0.5-0.2c0.1-0.1,0.2-0.3,0.2-0.5c0-0.2-0.1-0.3-0.2-0.5
				c-0.1-0.2-0.3-0.3-0.5-0.5c-0.2-0.1-0.5-0.3-0.8-0.4c-0.3-0.1-0.7-0.1-1.1-0.1c-0.5,0-1,0.1-1.4,0.3c-0.4,0.2-0.7,0.4-0.9,0.7
				c-0.2,0.3-0.3,0.6-0.3,0.9c0,0.4,0.1,0.7,0.3,0.9c0.2,0.2,0.5,0.5,0.8,0.6c0.4,0.2,0.8,0.3,1.4,0.4c0.5,0.1,0.8,0.2,1.1,0.4
				c0.2,0.1,0.3,0.3,0.3,0.6c0,0.2-0.1,0.4-0.3,0.5c-0.2,0.1-0.5,0.2-0.8,0.2c-0.4,0-0.7-0.1-0.9-0.2c-0.2-0.1-0.4-0.4-0.6-0.6
				c-0.1-0.1-0.2-0.3-0.3-0.4c-0.1-0.1-0.2-0.1-0.4-0.1c-0.2,0-0.4,0.1-0.5,0.2c-0.1,0.1-0.2,0.3-0.2,0.5c0,0.3,0.1,0.5,0.3,0.8
				c0.2,0.3,0.5,0.5,0.9,0.7c0.4,0.2,0.9,0.3,1.5,0.3c0.6,0,1.1-0.1,1.6-0.2c0.4-0.2,0.7-0.4,1-0.7c0.2-0.3,0.3-0.7,0.3-1.1
				c0-0.3-0.1-0.6-0.2-0.8C194.4,484,194.2,483.8,193.9,483.6z"/>
			<path id="XMLID_950_" class="st35" d="M196.5,480.5c-0.2,0-0.4,0.1-0.6,0.2c-0.1,0.2-0.2,0.4-0.2,0.7v4.6c0,0.3,0.1,0.6,0.2,0.7
				c0.1,0.2,0.3,0.3,0.6,0.3c0.2,0,0.4-0.1,0.6-0.2c0.2-0.2,0.2-0.4,0.2-0.7v-4.7c0-0.3-0.1-0.5-0.2-0.7
				C196.9,480.6,196.7,480.5,196.5,480.5z"/>
			<path id="XMLID_949_" class="st35" d="M196.5,478.2c-0.2,0-0.4,0.1-0.6,0.2c-0.2,0.1-0.2,0.3-0.2,0.6c0,0.3,0.1,0.4,0.2,0.6
				c0.2,0.1,0.4,0.2,0.6,0.2c0.2,0,0.4-0.1,0.6-0.2c0.2-0.1,0.2-0.3,0.2-0.6c0-0.3-0.1-0.5-0.2-0.6
				C196.9,478.3,196.7,478.2,196.5,478.2z"/>
			<path id="XMLID_945_" class="st35" d="M203.6,480.5c-0.2,0-0.4,0.1-0.5,0.2c-0.1,0.2-0.2,0.4-0.2,0.7v0.2
				c-0.3-0.4-0.6-0.7-0.9-0.8c-0.3-0.2-0.7-0.3-1.2-0.3c-0.4,0-0.7,0.1-1.1,0.2c-0.3,0.1-0.6,0.3-0.8,0.6c-0.2,0.3-0.4,0.6-0.6,1
				c-0.1,0.4-0.2,0.8-0.2,1.3c0,0.7,0.1,1.2,0.3,1.7c0.2,0.5,0.5,0.9,0.9,1.2c0.4,0.3,0.9,0.4,1.4,0.4c0.5,0,0.8-0.1,1.2-0.3
				c0.3-0.2,0.6-0.4,0.9-0.8c0,0.5,0,0.9,0,1.2c0,0.2-0.1,0.5-0.2,0.7c-0.1,0.2-0.3,0.4-0.5,0.5c-0.2,0.1-0.6,0.2-1,0.2
				c-0.2,0-0.4,0-0.5-0.1c-0.2,0-0.3-0.1-0.4-0.2c-0.1-0.1-0.2-0.2-0.3-0.3c-0.1-0.1-0.2-0.2-0.3-0.3c-0.2-0.2-0.4-0.3-0.6-0.3
				c-0.2,0-0.4,0.1-0.5,0.2c-0.1,0.1-0.2,0.3-0.2,0.5c0,0.3,0.1,0.5,0.4,0.8c0.2,0.2,0.6,0.4,1,0.6c0.4,0.2,0.9,0.2,1.5,0.2
				c0.6,0,1.1-0.1,1.5-0.2c0.4-0.1,0.7-0.3,1-0.6c0.3-0.3,0.4-0.6,0.6-1c0.1-0.4,0.2-0.9,0.2-1.4v-4.7c0-0.4-0.1-0.7-0.2-0.9
				C204.1,480.6,203.9,480.5,203.6,480.5z M202.6,484.9c-0.2,0.3-0.3,0.5-0.6,0.7c-0.2,0.1-0.5,0.2-0.8,0.2c-0.5,0-0.8-0.2-1.1-0.5
				c-0.3-0.3-0.4-0.8-0.4-1.5c0-0.6,0.1-1.1,0.4-1.5c0.3-0.4,0.6-0.5,1.1-0.5c0.5,0,0.9,0.2,1.1,0.6c0.3,0.4,0.4,0.9,0.4,1.5
				C202.8,484.3,202.7,484.6,202.6,484.9z"/>
			<path id="XMLID_944_" class="st35" d="M211,481.6c-0.2-0.3-0.4-0.6-0.8-0.8c-0.3-0.2-0.7-0.3-1.1-0.3c-0.4,0-0.8,0.1-1.2,0.3
				c-0.3,0.2-0.7,0.5-0.9,0.8v-0.2c0-0.2,0-0.4-0.1-0.5c-0.1-0.1-0.2-0.2-0.3-0.3c-0.1-0.1-0.2-0.1-0.4-0.1c-0.2,0-0.4,0.1-0.6,0.2
				c-0.1,0.2-0.2,0.4-0.2,0.7v4.7c0,0.3,0.1,0.6,0.2,0.7c0.2,0.2,0.3,0.3,0.6,0.3c0.2,0,0.4-0.1,0.6-0.2c0.2-0.2,0.2-0.4,0.2-0.7v-2
				c0-0.7,0-1.1,0.1-1.4c0.1-0.3,0.3-0.5,0.5-0.7c0.2-0.2,0.5-0.3,0.8-0.3c0.4,0,0.7,0.1,0.9,0.4c0.1,0.3,0.2,0.7,0.2,1.2v2.7
				c0,0.3,0.1,0.6,0.2,0.7c0.2,0.2,0.3,0.3,0.6,0.3c0.2,0,0.4-0.1,0.6-0.2c0.1-0.2,0.2-0.4,0.2-0.7v-3c0-0.4,0-0.6,0-0.9
				C211.2,482,211.1,481.8,211,481.6z"/>
			<path id="XMLID_939_" class="st35" d="M217.8,484.1c0.2-0.1,0.4-0.4,0.4-0.8c0-0.4-0.1-0.9-0.3-1.3c-0.2-0.4-0.6-0.8-1-1
				c-0.5-0.3-1-0.4-1.6-0.4c-0.5,0-0.9,0.1-1.3,0.2c-0.4,0.2-0.7,0.4-1,0.7c-0.3,0.3-0.5,0.6-0.6,1.1c-0.1,0.4-0.2,0.9-0.2,1.3
				c0,1,0.3,1.8,0.9,2.4c0.6,0.6,1.4,0.9,2.4,0.9c0.5,0,0.9-0.1,1.2-0.2c0.4-0.1,0.6-0.3,0.9-0.4c0.2-0.2,0.4-0.4,0.5-0.6
				c0.1-0.2,0.2-0.4,0.2-0.5c0-0.2-0.1-0.3-0.2-0.4c-0.1-0.1-0.2-0.1-0.4-0.1c-0.2,0-0.3,0-0.4,0.1c-0.2,0.2-0.4,0.3-0.5,0.5
				c-0.1,0.1-0.3,0.2-0.4,0.3c-0.2,0.1-0.3,0.2-0.5,0.2c-0.2,0-0.3,0.1-0.5,0.1c-0.3,0-0.6-0.1-0.8-0.2c-0.2-0.1-0.4-0.4-0.6-0.6
				c-0.1-0.3-0.2-0.6-0.2-1h3.2C217.3,484.2,217.6,484.2,217.8,484.1z M213.7,483.3c0.1-0.5,0.2-1,0.5-1.2c0.3-0.3,0.6-0.4,1-0.4
				c0.4,0,0.8,0.1,1,0.4c0.3,0.3,0.4,0.7,0.4,1.2H213.7z"/>
			<path id="XMLID_936_" class="st35" d="M224.2,478.1c-0.2,0-0.4,0.1-0.6,0.3c-0.1,0.2-0.2,0.4-0.2,0.8v2.4
				c-0.3-0.3-0.6-0.6-0.9-0.7c-0.3-0.2-0.7-0.2-1.2-0.2c-0.8,0-1.5,0.3-2,0.8c-0.5,0.6-0.7,1.4-0.7,2.4c0,0.5,0.1,0.9,0.2,1.3
				c0.1,0.4,0.3,0.8,0.5,1.1c0.2,0.3,0.5,0.5,0.9,0.7c0.3,0.2,0.7,0.2,1.1,0.2c0.3,0,0.6,0,0.8-0.1c0.2-0.1,0.5-0.2,0.7-0.4
				c0.2-0.2,0.4-0.4,0.6-0.6v0.2c0,0.3,0.1,0.5,0.2,0.7c0.1,0.2,0.3,0.2,0.5,0.2c0.2,0,0.4-0.1,0.6-0.2c0.1-0.2,0.2-0.4,0.2-0.7
				v-7.1c0-0.3-0.1-0.5-0.2-0.7C224.6,478.2,224.5,478.1,224.2,478.1z M223.1,485c-0.1,0.3-0.3,0.5-0.6,0.7
				c-0.2,0.1-0.5,0.2-0.8,0.2c-0.3,0-0.5-0.1-0.8-0.2c-0.2-0.2-0.4-0.4-0.6-0.7c-0.1-0.3-0.2-0.7-0.2-1.1c0-0.4,0.1-0.8,0.2-1.1
				c0.1-0.3,0.3-0.6,0.5-0.7c0.2-0.2,0.5-0.3,0.8-0.3c0.3,0,0.5,0.1,0.8,0.2c0.2,0.2,0.4,0.4,0.6,0.7c0.1,0.3,0.2,0.7,0.2,1.1
				C223.4,484.3,223.3,484.7,223.1,485z"/>
			<path id="XMLID_933_" class="st35" d="M233.6,480.9c-0.4-0.3-0.9-0.4-1.4-0.4c-0.5,0-0.9,0.1-1.2,0.3c-0.3,0.2-0.6,0.4-0.9,0.7
				v-2.5c0-0.3-0.1-0.5-0.2-0.7c-0.1-0.2-0.3-0.2-0.6-0.2c-0.2,0-0.4,0.1-0.6,0.3c-0.1,0.2-0.2,0.4-0.2,0.7v7.1
				c0,0.3,0.1,0.5,0.2,0.7c0.1,0.2,0.3,0.2,0.5,0.2c0.2,0,0.4-0.1,0.6-0.2c0.1-0.2,0.2-0.4,0.2-0.7V486c0.2,0.2,0.3,0.4,0.4,0.5
				c0.1,0.1,0.2,0.2,0.4,0.3c0.2,0.1,0.3,0.2,0.6,0.2c0.2,0.1,0.5,0.1,0.7,0.1c0.4,0,0.8-0.1,1.1-0.2c0.3-0.2,0.6-0.4,0.9-0.7
				c0.2-0.3,0.4-0.7,0.5-1.1c0.1-0.4,0.2-0.9,0.2-1.3c0-0.7-0.1-1.2-0.3-1.7C234.3,481.6,234,481.2,233.6,480.9z M232.8,485.3
				c-0.3,0.4-0.6,0.5-1.1,0.5c-0.5,0-0.9-0.2-1.2-0.5c-0.3-0.3-0.4-0.8-0.4-1.5c0-0.4,0.1-0.8,0.2-1.1c0.1-0.3,0.3-0.6,0.6-0.7
				c0.2-0.2,0.5-0.3,0.8-0.3c0.3,0,0.6,0.1,0.8,0.3c0.2,0.2,0.4,0.4,0.5,0.7c0.1,0.3,0.2,0.7,0.2,1.1
				C233.2,484.5,233.1,485,232.8,485.3z"/>
			<path id="XMLID_931_" class="st35" d="M240.5,480.6c-0.1-0.1-0.2-0.1-0.4-0.1c-0.2,0-0.3,0-0.4,0.1c-0.1,0.1-0.2,0.2-0.3,0.3
				c-0.1,0.2-0.2,0.4-0.3,0.7l-1.3,3.7l-1.4-4c-0.1-0.3-0.2-0.5-0.3-0.6c-0.1-0.1-0.3-0.2-0.5-0.2c-0.1,0-0.3,0-0.4,0.1
				c-0.1,0.1-0.2,0.2-0.3,0.3c-0.1,0.1-0.1,0.2-0.1,0.4c0,0.1,0.1,0.3,0.2,0.6l2,5l-0.1,0.4c-0.1,0.3-0.2,0.5-0.3,0.6
				c-0.1,0.1-0.2,0.2-0.3,0.3c-0.1,0.1-0.3,0.1-0.4,0.1c-0.1,0-0.2,0-0.3,0c-0.1,0-0.2,0-0.3,0c-0.2,0-0.4,0.1-0.5,0.2
				c-0.1,0.1-0.2,0.2-0.2,0.4c0,0.3,0.1,0.5,0.4,0.6c0.2,0.1,0.6,0.2,1.1,0.2c0.5,0,0.9-0.1,1.2-0.2c0.3-0.1,0.5-0.4,0.7-0.6
				c0.2-0.3,0.4-0.7,0.5-1.1l2.1-5.5c0.1-0.1,0.1-0.3,0.1-0.4c0-0.1,0.1-0.2,0.1-0.3c0-0.1,0-0.2-0.1-0.3
				C240.7,480.8,240.6,480.7,240.5,480.6z"/>
		</g>
		<g id="XMLID_365_">
			<g id="XMLID_380_">
				<path id="XMLID_928_" class="st35" d="M262.9,478.1c-0.5,0-1,0.1-1.3,0.2c-0.3,0.1-0.5,0.4-0.7,0.7c-0.1,0.3-0.2,0.7-0.2,1.2
					v0.5h-0.4c-0.5,0-0.8,0.2-0.8,0.6c0,0.2,0.1,0.3,0.2,0.4c0.1,0.1,0.3,0.2,0.6,0.2h0.4v4.3c0,0.3,0.1,0.6,0.2,0.7
					c0.2,0.2,0.3,0.3,0.6,0.3c0.2,0,0.4-0.1,0.6-0.3c0.2-0.2,0.2-0.4,0.2-0.7v-4.3h0.4c0.3,0,0.5,0,0.7-0.1c0.2-0.1,0.2-0.2,0.2-0.5
					c0-0.4-0.3-0.6-0.9-0.6h-0.4v-0.4c0-0.3,0-0.6,0.1-0.7c0.1-0.2,0.3-0.3,0.6-0.3c0.1,0,0.2,0,0.4,0c0.2,0,0.3,0,0.3,0
					c0.1,0,0.3-0.1,0.3-0.2c0.1-0.1,0.2-0.2,0.2-0.4C264.3,478.4,263.9,478.1,262.9,478.1z"/>
				<path id="XMLID_926_" class="st35" d="M268.1,480.8c-0.3-0.2-0.6-0.3-1-0.3c-0.3,0-0.6,0.1-0.8,0.3c-0.2,0.2-0.4,0.4-0.6,0.8
					c0-0.3-0.1-0.6-0.2-0.8c-0.1-0.2-0.3-0.3-0.6-0.3c-0.5,0-0.8,0.4-0.8,1.1v4.5c0,0.3,0.1,0.6,0.2,0.7c0.1,0.2,0.3,0.3,0.6,0.3
					c0.2,0,0.4-0.1,0.6-0.2c0.2-0.2,0.2-0.4,0.2-0.7v-1.4c0-0.5,0-0.9,0-1.2c0-0.3,0.1-0.6,0.2-0.9c0.1-0.2,0.2-0.4,0.4-0.6
					c0.1-0.1,0.3-0.2,0.6-0.2c0.2,0,0.4,0,0.6,0.1c0.2,0.1,0.4,0.1,0.4,0.1c0.2,0,0.3-0.1,0.4-0.2c0.1-0.1,0.2-0.3,0.2-0.5
					C268.6,481.2,268.4,481,268.1,480.8z"/>
				<path id="XMLID_922_" class="st35" d="M274.2,484.1c0.2-0.1,0.4-0.4,0.4-0.8c0-0.4-0.1-0.9-0.3-1.3c-0.2-0.4-0.6-0.8-1-1
					c-0.5-0.3-1-0.4-1.6-0.4c-0.5,0-0.9,0.1-1.3,0.2c-0.4,0.2-0.7,0.4-1,0.7c-0.3,0.3-0.5,0.6-0.6,1.1c-0.1,0.4-0.2,0.9-0.2,1.3
					c0,1,0.3,1.8,0.9,2.4c0.6,0.6,1.4,0.9,2.4,0.9c0.5,0,0.9-0.1,1.2-0.2c0.3-0.1,0.6-0.3,0.9-0.4c0.2-0.2,0.4-0.4,0.5-0.6
					c0.1-0.2,0.2-0.4,0.2-0.5c0-0.2,0-0.3-0.2-0.4c-0.1-0.1-0.2-0.1-0.4-0.1c-0.2,0-0.3,0-0.4,0.1c-0.2,0.2-0.4,0.3-0.5,0.4
					c-0.1,0.1-0.3,0.2-0.4,0.3c-0.2,0.1-0.3,0.2-0.5,0.2c-0.2,0-0.3,0.1-0.5,0.1c-0.3,0-0.6-0.1-0.8-0.2c-0.2-0.1-0.4-0.4-0.6-0.6
					c-0.1-0.3-0.2-0.6-0.2-1h3.2C273.6,484.2,273.9,484.2,274.2,484.1z M270,483.3c0.1-0.5,0.2-1,0.5-1.2c0.3-0.3,0.6-0.4,1-0.4
					c0.4,0,0.8,0.1,1,0.4c0.3,0.3,0.4,0.7,0.4,1.2H270z"/>
				<path id="XMLID_919_" class="st35" d="M280.9,484.1c0.2-0.1,0.4-0.4,0.4-0.8c0-0.4-0.1-0.9-0.3-1.3c-0.2-0.4-0.6-0.8-1-1
					c-0.5-0.3-1-0.4-1.6-0.4c-0.5,0-0.9,0.1-1.3,0.2c-0.4,0.2-0.7,0.4-1,0.7c-0.3,0.3-0.5,0.6-0.6,1.1c-0.1,0.4-0.2,0.9-0.2,1.3
					c0,1,0.3,1.8,0.9,2.4c0.6,0.6,1.4,0.9,2.4,0.9c0.5,0,0.9-0.1,1.2-0.2c0.3-0.1,0.6-0.3,0.9-0.4c0.2-0.2,0.4-0.4,0.5-0.6
					c0.1-0.2,0.2-0.4,0.2-0.5c0-0.2,0-0.3-0.2-0.4c-0.1-0.1-0.2-0.1-0.4-0.1c-0.2,0-0.3,0-0.4,0.1c-0.2,0.2-0.4,0.3-0.5,0.4
					c-0.1,0.1-0.3,0.2-0.4,0.3c-0.2,0.1-0.3,0.2-0.5,0.2c-0.2,0-0.3,0.1-0.5,0.1c-0.3,0-0.6-0.1-0.8-0.2c-0.2-0.1-0.4-0.4-0.6-0.6
					c-0.1-0.3-0.2-0.6-0.2-1h3.2C280.4,484.2,280.7,484.2,280.9,484.1z M276.8,483.3c0.1-0.5,0.2-1,0.5-1.2c0.3-0.3,0.6-0.4,1-0.4
					c0.4,0,0.8,0.1,1,0.4c0.3,0.3,0.4,0.7,0.4,1.2H276.8z"/>
				<path id="XMLID_390_" class="st35" d="M286.9,480.9c-0.4-0.3-0.9-0.4-1.4-0.4c-0.4,0-0.8,0.1-1.1,0.3c-0.3,0.2-0.6,0.5-1,0.8
					v-0.2c0-0.3-0.1-0.5-0.2-0.7c-0.1-0.2-0.3-0.2-0.6-0.2c-0.2,0-0.4,0.1-0.6,0.2c-0.1,0.2-0.2,0.4-0.2,0.7v7
					c0,0.4,0.1,0.6,0.1,0.8c0.1,0.2,0.3,0.3,0.6,0.3c0.5,0,0.8-0.4,0.8-1.1V486c0.3,0.4,0.6,0.6,0.9,0.8c0.3,0.2,0.7,0.3,1.2,0.3
					c0.4,0,0.7-0.1,1.1-0.2c0.3-0.2,0.6-0.4,0.9-0.7c0.2-0.3,0.4-0.6,0.6-1c0.1-0.4,0.2-0.9,0.2-1.4c0-0.7-0.1-1.3-0.4-1.8
					C287.7,481.6,287.3,481.2,286.9,480.9z M286.5,484.9c-0.1,0.3-0.3,0.5-0.6,0.7c-0.2,0.2-0.5,0.2-0.7,0.2c-0.5,0-0.8-0.2-1.1-0.5
					c-0.3-0.4-0.5-0.9-0.5-1.5c0-0.7,0.2-1.2,0.5-1.6c0.3-0.3,0.7-0.5,1.1-0.5c0.3,0,0.5,0.1,0.8,0.2c0.2,0.2,0.4,0.4,0.5,0.7
					c0.1,0.3,0.2,0.7,0.2,1.1C286.7,484.2,286.6,484.6,286.5,484.9z"/>
				<path id="XMLID_389_" class="st35" d="M289.9,480.5c-0.2,0-0.4,0.1-0.6,0.2c-0.1,0.2-0.2,0.4-0.2,0.7v4.6c0,0.3,0.1,0.6,0.2,0.7
					c0.2,0.2,0.3,0.3,0.6,0.3s0.4-0.1,0.6-0.3c0.2-0.2,0.2-0.4,0.2-0.7v-4.7c0-0.3-0.1-0.5-0.2-0.7
					C290.3,480.6,290.1,480.5,289.9,480.5z"/>
				<path id="XMLID_388_" class="st35" d="M289.9,478.2c-0.2,0-0.4,0.1-0.6,0.2c-0.2,0.1-0.2,0.3-0.2,0.6c0,0.3,0.1,0.4,0.2,0.6
					c0.2,0.1,0.3,0.2,0.6,0.2c0.2,0,0.4-0.1,0.6-0.2c0.2-0.1,0.2-0.3,0.2-0.6c0-0.3-0.1-0.5-0.2-0.6
					C290.3,478.3,290.1,478.2,289.9,478.2z"/>
				<path id="XMLID_387_" class="st35" d="M297.3,485.6l-1.7-2.6l0.9-0.8c0.4-0.4,0.7-0.7,0.7-1c0-0.2-0.1-0.4-0.2-0.5
					c-0.1-0.1-0.3-0.2-0.5-0.2c-0.2,0-0.3,0-0.4,0.1c-0.1,0.1-0.3,0.3-0.5,0.5l-1.8,1.9v-3.9c0-0.3-0.1-0.6-0.2-0.8
					c-0.1-0.2-0.3-0.3-0.6-0.3c-0.3,0-0.5,0.1-0.6,0.3c-0.1,0.2-0.2,0.5-0.2,0.8v6.9c0,0.3,0.1,0.6,0.2,0.7c0.1,0.2,0.3,0.3,0.6,0.3
					c0.2,0,0.4-0.1,0.6-0.3c0.2-0.2,0.2-0.4,0.2-0.7v-1.3l0.9-0.8l1.4,2.4c0.2,0.3,0.3,0.5,0.4,0.6c0.1,0.1,0.3,0.2,0.5,0.2
					c0.2,0,0.4-0.1,0.6-0.2c0.1-0.2,0.2-0.4,0.2-0.6c0-0.1,0-0.2-0.1-0.3C297.5,485.9,297.4,485.8,297.3,485.6z"/>
				<path id="XMLID_386_" class="st35" d="M299.5,485.3c-0.3,0-0.5,0.1-0.6,0.3c-0.2,0.2-0.3,0.4-0.3,0.6c0,0.3,0.1,0.5,0.3,0.7
					c0.2,0.2,0.4,0.2,0.6,0.2c0.2,0,0.4-0.1,0.6-0.2c0.2-0.2,0.3-0.4,0.3-0.7c0-0.2-0.1-0.5-0.3-0.6
					C299.9,485.4,299.7,485.3,299.5,485.3z"/>
				<path id="XMLID_385_" class="st35" d="M306.8,484.4c-0.2,0-0.3,0.1-0.4,0.2c-0.1,0.1-0.2,0.2-0.3,0.4c-0.2,0.3-0.4,0.5-0.6,0.7
					c-0.2,0.1-0.5,0.2-0.8,0.2c-0.2,0-0.5,0-0.7-0.1c-0.2-0.1-0.4-0.2-0.5-0.4c-0.1-0.2-0.3-0.4-0.3-0.7c-0.1-0.3-0.1-0.5-0.1-0.8
					c0-0.6,0.1-1.2,0.4-1.5c0.3-0.4,0.7-0.6,1.2-0.6c0.3,0,0.6,0.1,0.8,0.2c0.2,0.1,0.4,0.4,0.6,0.7c0.1,0.2,0.2,0.3,0.3,0.3
					c0.1,0.1,0.2,0.1,0.3,0.1c0.2,0,0.4-0.1,0.5-0.2c0.1-0.1,0.2-0.3,0.2-0.5c0-0.2-0.1-0.4-0.2-0.6c-0.1-0.2-0.3-0.4-0.6-0.6
					c-0.2-0.2-0.5-0.4-0.9-0.5c-0.4-0.1-0.7-0.2-1.2-0.2c-0.7,0-1.3,0.1-1.7,0.4c-0.5,0.3-0.9,0.7-1.1,1.2c-0.3,0.5-0.4,1.1-0.4,1.8
					c0,1,0.3,1.8,0.8,2.3c0.6,0.6,1.3,0.9,2.3,0.9c0.5,0,0.9-0.1,1.3-0.2c0.4-0.1,0.7-0.3,0.9-0.5c0.2-0.2,0.4-0.4,0.6-0.7
					c0.1-0.2,0.2-0.4,0.2-0.6c0-0.2-0.1-0.3-0.2-0.5C307.2,484.5,307,484.4,306.8,484.4z"/>
				<path id="XMLID_382_" class="st35" d="M313.6,481.5c-0.3-0.3-0.6-0.5-1-0.7c-0.4-0.2-0.8-0.2-1.3-0.2c-0.5,0-0.9,0.1-1.3,0.2
					c-0.4,0.2-0.7,0.4-1,0.7c-0.3,0.3-0.5,0.6-0.6,1c-0.1,0.4-0.2,0.9-0.2,1.3c0,0.5,0.1,0.9,0.2,1.3c0.2,0.4,0.4,0.8,0.7,1
					c0.3,0.3,0.6,0.5,1,0.7c0.4,0.2,0.8,0.2,1.3,0.2c0.5,0,0.9-0.1,1.3-0.2c0.4-0.2,0.7-0.4,1-0.7c0.3-0.3,0.5-0.6,0.7-1
					c0.1-0.4,0.2-0.9,0.2-1.3c0-0.5-0.1-0.9-0.2-1.3C314.1,482.1,313.9,481.7,313.6,481.5z M312.5,485.4c-0.3,0.4-0.7,0.6-1.2,0.6
					c-0.3,0-0.6-0.1-0.8-0.3c-0.2-0.2-0.4-0.4-0.6-0.7c-0.1-0.3-0.2-0.7-0.2-1.1c0-0.4,0.1-0.8,0.2-1.1c0.1-0.3,0.3-0.6,0.6-0.7
					c0.2-0.2,0.5-0.2,0.8-0.2c0.5,0,0.9,0.2,1.2,0.6c0.3,0.4,0.4,0.9,0.4,1.5C312.9,484.5,312.7,485,312.5,485.4z"/>
				<path id="XMLID_381_" class="st35" d="M323.6,480.8c-0.3-0.2-0.7-0.3-1.1-0.3c-0.4,0-0.7,0.1-1,0.2c-0.3,0.2-0.6,0.4-0.9,0.7
					c-0.2-0.3-0.4-0.6-0.7-0.7c-0.3-0.2-0.6-0.2-1-0.2c-0.4,0-0.7,0.1-1.1,0.2c-0.3,0.2-0.6,0.4-0.9,0.7v-0.2c0-0.3-0.1-0.5-0.2-0.6
					c-0.2-0.1-0.3-0.2-0.6-0.2c-0.2,0-0.4,0.1-0.6,0.2c-0.1,0.2-0.2,0.4-0.2,0.7v4.6c0,0.3,0.1,0.6,0.2,0.8c0.2,0.2,0.4,0.3,0.6,0.3
					c0.2,0,0.4-0.1,0.6-0.3c0.1-0.2,0.2-0.4,0.2-0.8v-2.2c0-0.7,0.1-1.2,0.3-1.6c0.2-0.4,0.5-0.5,1-0.5c0.3,0,0.5,0.1,0.6,0.2
					c0.1,0.1,0.2,0.3,0.2,0.6c0,0.2,0,0.5,0,1v2.6c0,0.3,0.1,0.6,0.2,0.8c0.1,0.2,0.3,0.3,0.6,0.3c0.3,0,0.5-0.1,0.6-0.3
					c0.2-0.2,0.2-0.4,0.2-0.8V484c0-0.7,0.1-1.2,0.2-1.5c0.1-0.2,0.3-0.4,0.5-0.5c0.2-0.1,0.4-0.2,0.6-0.2c0.3,0,0.5,0.1,0.6,0.2
					c0.1,0.1,0.2,0.3,0.2,0.5c0,0.2,0,0.5,0,0.8v2.7c0,0.3,0.1,0.6,0.2,0.8c0.2,0.2,0.4,0.3,0.6,0.3c0.3,0,0.5-0.1,0.6-0.3
					c0.2-0.2,0.2-0.4,0.2-0.8v-3.2c0-0.6-0.1-1.1-0.2-1.4C324.1,481.2,323.9,481,323.6,480.8z"/>
			</g>
			<g id="XMLID_366_">
				<path id="XMLID_379_" class="st35" d="M245.3,483.4C245.3,483.4,245.3,483.4,245.3,483.4C245.3,483.4,245.3,483.4,245.3,483.4z"
					/>
				<path id="XMLID_378_" class="st35" d="M245.4,484C245.4,484,245.4,484,245.4,484c0-0.1-0.1-0.3-0.1-0.4
					C245.3,483.7,245.3,483.8,245.4,484z"/>
				<path id="XMLID_377_" class="st35" d="M245.9,485.5C245.9,485.5,245.9,485.5,245.9,485.5C245.9,485.5,245.9,485.5,245.9,485.5z"
					/>
				<path id="XMLID_376_" class="st35" d="M245.8,485.4C245.8,485.3,245.8,485.3,245.8,485.4C245.8,485.3,245.8,485.3,245.8,485.4z"
					/>
				<path id="XMLID_375_" class="st35" d="M245.5,484.5c0.1,0.3,0.2,0.5,0.3,0.7C245.7,485,245.6,484.8,245.5,484.5L245.5,484.5z"/>
				<path id="XMLID_374_" class="st35" d="M250.7,476.7l-0.1-0.3c0.3-0.1,0.5-0.3,0.5-0.6c0-0.4-0.3-0.7-0.7-0.7
					c-0.4,0-0.7,0.3-0.7,0.7c0,0.3,0.2,0.6,0.5,0.6l0.1,0.3c-1,0.1-1.8,0.5-1.8,0.5l0.1,0.4c0.6-0.2,1.2-0.3,1.6-0.4
					c0.5-0.1,0.8-0.1,1.1-0.1c0.3,0,0.5,0,0.8,0.1l0.1-0.5C252.4,476.8,251.7,476.6,250.7,476.7z"/>
				<path id="XMLID_373_" class="st35" d="M245.5,479.2c0,0-0.5,0.5-0.9,1.3c0,0,0-0.1-0.1-0.1c-0.1-0.1-0.3-0.2-0.5-0.2
					c0,0,0,0,0,0c-0.1,0-0.2,0-0.3-0.1c0.1-0.1,0.1-0.2,0.1-0.3c0-0.2-0.2-0.4-0.4-0.4c-0.2,0-0.4,0.2-0.4,0.4
					c0,0.2,0.2,0.4,0.4,0.4c0,0,0.1,0,0.1,0c0.1,0.1,0.3,0.2,0.5,0.2c0.1,0,0.2,0,0.3,0.1c0.1,0.1,0.1,0.2,0.1,0.3c0,0,0,0,0,0
					c-0.3,0.7-0.2,1.7-0.2,1.7l0.7,0c0-0.3,0.1-0.9,0.2-1.4c0.3-0.9,0.7-1.5,0.8-1.5l0,0c0,0,0-0.1,0.1-0.1l-0.2-0.1L245.5,479.2z"
					/>
				<path id="XMLID_372_" class="st35" d="M257.3,477.8c-0.2,0-0.4,0.2-0.4,0.4c0,0,0,0.1,0,0.1c-0.1,0.1-0.2,0.3-0.2,0.5
					c0,0.1,0,0.2-0.1,0.3c-0.1,0-0.1,0.1-0.2,0.1c-0.5-0.7-1.1-1.1-1.1-1.1l-0.5,0.5c0.4,0.3,0.7,0.7,1.1,1.2
					c0.2,0.4,0.5,0.8,0.7,1.3l0.6-0.3c0,0-0.3-0.7-0.7-1.4c0.1,0,0.1-0.1,0.2-0.1c0.1-0.1,0.2-0.3,0.2-0.5c0-0.1,0-0.2,0.1-0.3
					c0.1,0.1,0.2,0.1,0.3,0.1c0.2,0,0.4-0.2,0.4-0.4C257.7,478,257.5,477.8,257.3,477.8z"/>
				<path id="XMLID_371_" class="st35" d="M255.6,483.5c-0.9,0.4-2.3,1-4.2,1.3c-0.7,0.1-1.5,0.1-2.1,0.1c-0.9,0-1.6-0.1-2.2-0.1
					c-0.7-0.1-1.2-0.2-1.5-0.3c0.1,0.2,0.2,0.5,0.3,0.7c0,0,0,0,0,0c0,0,0,0.1,0,0.1c0,0,0,0.1,0,0.1c0,0,0,0,0,0
					c0.2,0.4,0.4,0.7,0.7,1c0.9,1,1.8,1.1,1.8,1.1l0,0l0,0c0,0,0.8,0.3,2.1,0.3c1.2,0,2.4-0.2,3.5-0.7c0.8-0.4,1.6-1.1,2-1.7
					c0.3-0.5,0.5-0.9,0.7-1.4c0.1-0.3,0.1-0.7,0.1-1.1C256.6,483,256.2,483.3,255.6,483.5z"/>
				<path id="XMLID_367_" class="st35" d="M252.3,477.7c-0.3,0-0.5-0.1-0.8-0.1c-0.3,0-0.6,0-1.1,0.1c-0.5,0-1,0.2-1.6,0.4
					c-0.8,0.3-1.6,0.7-2.2,1.3l0,0c-0.1,0.1-0.3,0.3-0.5,0.5c0,0-0.4,0.6-0.7,1.4c-0.2,0.6-0.2,1.5-0.2,1.5v0c0,0.2,0,0.4,0,0.6
					c0,0,0,0,0,0c0,0,0,0.1,0,0.1c0,0.1,0,0.3,0.1,0.4c0.4,0.1,3,0.7,6,0.3c1.8-0.3,3.2-0.8,4.1-1.2c0.7-0.3,1.2-0.6,1.3-0.8
					c-0.2-0.6-0.7-1.7-1.1-2.3C254.4,478.2,253,477.8,252.3,477.7z M248.7,482.9c-1,0-1.8-0.8-1.8-1.8c0-1,0.8-1.8,1.8-1.8
					c1,0,1.8,0.8,1.8,1.8C250.4,482.1,249.7,482.9,248.7,482.9z M253.8,481.6c-0.6,0-1.1-0.5-1.1-1.1c0-0.6,0.5-1.1,1.1-1.1
					s1.1,0.5,1.1,1.1C254.9,481.1,254.4,481.6,253.8,481.6z"/>
			</g>
		</g>
	</g>
</g>
</svg>
